<svg xmlns="http://www.w3.org/2000/svg" xmlns:xlink="http://www.w3.org/1999/xlink" width="500" zoomAndPan="magnify" viewBox="0 0 375 374.999991" height="500" preserveAspectRatio="xMidYMid meet" version="1.0"><defs><clipPath id="1f29a61ae8"><path d="M 50.996094 101.992188 L 323.996094 101.992188 L 323.996094 374.992188 L 50.996094 374.992188 Z M 50.996094 101.992188 " clip-rule="nonzero"/></clipPath><clipPath id="5e531f3e20"><path d="M 187.496094 101.992188 C 112.109375 101.992188 50.996094 163.105469 50.996094 238.492188 C 50.996094 313.878906 112.109375 374.992188 187.496094 374.992188 C 262.882812 374.992188 323.996094 313.878906 323.996094 238.492188 C 323.996094 163.105469 262.882812 101.992188 187.496094 101.992188 Z M 187.496094 101.992188 " clip-rule="nonzero"/></clipPath><clipPath id="4683ebec0a"><path d="M 49.230469 101.992188 L 325.769531 101.992188 L 325.769531 272.402344 L 49.230469 272.402344 Z M 49.230469 101.992188 " clip-rule="nonzero"/></clipPath><clipPath id="4cba2cdb00"><path d="M 49.230469 107.886719 L 322 107.886719 L 322 271.792969 L 49.230469 271.792969 Z M 49.230469 107.886719 " clip-rule="nonzero"/></clipPath><clipPath id="578aa87a98"><path d="M 49.230469 0 L 322.230469 0 L 322.230469 273 L 49.230469 273 Z M 49.230469 0 " clip-rule="nonzero"/></clipPath><clipPath id="31c823ce4c"><path d="M 185.730469 0 C 110.34375 0 49.230469 61.113281 49.230469 136.5 C 49.230469 211.886719 110.34375 273 185.730469 273 C 261.117188 273 322.230469 211.886719 322.230469 136.5 C 322.230469 61.113281 261.117188 0 185.730469 0 Z M 185.730469 0 " clip-rule="nonzero"/></clipPath><clipPath id="ff4544970e"><path d="M 185.773438 0 L 322.277344 0 L 322.277344 45.136719 L 185.773438 45.136719 Z M 185.773438 0 " clip-rule="nonzero"/></clipPath><clipPath id="e3ffe557ac"><path d="M 277.511719 0.515625 L 322.234375 0.515625 L 322.234375 136.503906 L 277.511719 136.503906 Z M 277.511719 0.515625 " clip-rule="nonzero"/></clipPath><clipPath id="7fcb8c0ddd"><path d="M 144.828125 94.785156 L 226.722656 94.785156 L 226.722656 176.679688 L 144.828125 176.679688 Z M 144.828125 94.785156 " clip-rule="nonzero"/></clipPath><clipPath id="048e576d98"><path d="M 185.773438 94.785156 C 163.160156 94.785156 144.828125 113.117188 144.828125 135.734375 C 144.828125 158.347656 163.160156 176.679688 185.773438 176.679688 C 208.390625 176.679688 226.722656 158.347656 226.722656 135.734375 C 226.722656 113.117188 208.390625 94.785156 185.773438 94.785156 Z M 185.773438 94.785156 " clip-rule="nonzero"/></clipPath></defs><g clip-path="url(#1f29a61ae8)"><g clip-path="url(#5e531f3e20)"><path stroke-linecap="butt" transform="matrix(0.75, 0, 0, 0.75, 50.99642, 101.992829)" fill="none" stroke-linejoin="miter" d="M 181.999576 -0.000855737 C 81.483945 -0.000855737 -0.000435468 81.483525 -0.000435468 181.999156 C -0.000435468 282.514788 81.483945 363.999168 181.999576 363.999168 C 282.515208 363.999168 363.999588 282.514788 363.999588 181.999156 C 363.999588 81.483525 282.515208 -0.000855737 181.999576 -0.000855737 Z M 181.999576 -0.000855737 " stroke="#000000" stroke-width="140" stroke-opacity="1" stroke-miterlimit="4"/></g></g><g clip-path="url(#4683ebec0a)"><path fill="#ffffff" d="M 49.230469 101.992188 L 325.476562 101.992188 L 325.476562 272.402344 L 49.230469 272.402344 Z M 49.230469 101.992188 " fill-opacity="1" fill-rule="nonzero"/></g><g clip-path="url(#4cba2cdb00)"><path fill="#ffffff" d="M 49.230469 107.886719 L 321.980469 107.886719 L 321.980469 271.792969 L 49.230469 271.792969 Z M 49.230469 107.886719 " fill-opacity="1" fill-rule="nonzero"/></g><g clip-path="url(#578aa87a98)"><g clip-path="url(#31c823ce4c)"><path stroke-linecap="butt" transform="matrix(0.75, 0, 0, 0.75, 49.228739, -0.000000000000021316)" fill="none" stroke-linejoin="miter" d="M 182.002318 0.000000000000028422 C 81.486687 0.000000000000028422 0.00230651 81.48438 0.00230651 182.000012 C 0.00230651 282.515644 81.486687 364.000024 182.002318 364.000024 C 282.51795 364.000024 364.00233 282.515644 364.00233 182.000012 C 364.00233 81.48438 282.51795 0.000000000000028422 182.002318 0.000000000000028422 Z M 182.002318 0.000000000000028422 " stroke="#000000" stroke-width="140" stroke-opacity="1" stroke-miterlimit="4"/></g></g><g clip-path="url(#ff4544970e)"><path fill="#000000" d="M 185.773438 0 L 322.246094 0 L 322.246094 45.136719 L 185.773438 45.136719 Z M 185.773438 0 " fill-opacity="1" fill-rule="nonzero"/></g><g clip-path="url(#e3ffe557ac)"><path fill="#000000" d="M 277.511719 0.515625 L 322.234375 0.515625 L 322.234375 136.4375 L 277.511719 136.4375 Z M 277.511719 0.515625 " fill-opacity="1" fill-rule="nonzero"/></g><g clip-path="url(#7fcb8c0ddd)"><g clip-path="url(#048e576d98)"><path fill="#db4404" d="M 144.828125 94.785156 L 226.722656 94.785156 L 226.722656 176.679688 L 144.828125 176.679688 Z M 144.828125 94.785156 " fill-opacity="1" fill-rule="nonzero"/></g></g></svg>