<svg xmlns="http://www.w3.org/2000/svg" xmlns:xlink="http://www.w3.org/1999/xlink" width="1200" zoomAndPan="magnify" viewBox="0 0 900 299.999988" height="400" preserveAspectRatio="xMidYMid meet" version="1.0"><defs><g/><clipPath id="c7c4ef6ca7"><path d="M 0.96875 120.113281 L 150.851562 120.113281 L 150.851562 269.996094 L 0.96875 269.996094 Z M 0.96875 120.113281 " clip-rule="nonzero"/></clipPath><clipPath id="83948121f4"><path d="M 75.910156 120.113281 C 34.523438 120.113281 0.96875 153.664062 0.96875 195.054688 C 0.96875 236.441406 34.523438 269.996094 75.910156 269.996094 C 117.300781 269.996094 150.851562 236.441406 150.851562 195.054688 C 150.851562 153.664062 117.300781 120.113281 75.910156 120.113281 Z M 75.910156 120.113281 " clip-rule="nonzero"/></clipPath><clipPath id="ac525fec5a"><path d="M 0 120.113281 L 151.828125 120.113281 L 151.828125 213.671875 L 0 213.671875 Z M 0 120.113281 " clip-rule="nonzero"/></clipPath><clipPath id="87dff90470"><path d="M 0 123.347656 L 149.886719 123.347656 L 149.886719 213.335938 L 0 213.335938 Z M 0 123.347656 " clip-rule="nonzero"/></clipPath><clipPath id="70c9c46277"><path d="M 0 64.117188 L 149.882812 64.117188 L 149.882812 214 L 0 214 Z M 0 64.117188 " clip-rule="nonzero"/></clipPath><clipPath id="384fc39899"><path d="M 74.941406 64.117188 C 33.550781 64.117188 0 97.667969 0 139.058594 C 0 180.445312 33.550781 214 74.941406 214 C 116.332031 214 149.882812 180.445312 149.882812 139.058594 C 149.882812 97.667969 116.332031 64.117188 74.941406 64.117188 Z M 74.941406 64.117188 " clip-rule="nonzero"/></clipPath><clipPath id="4919b23428"><path d="M 74.945312 64.257812 L 149.886719 64.257812 L 149.886719 94.367188 L 74.945312 94.367188 Z M 74.945312 64.257812 " clip-rule="nonzero"/></clipPath><clipPath id="6bf156fb4f"><path d="M 119.949219 65.671875 L 149.886719 65.671875 L 149.886719 138.988281 L 119.949219 138.988281 Z M 119.949219 65.671875 " clip-rule="nonzero"/></clipPath><clipPath id="4d25424491"><path d="M 52.488281 116.15625 L 97.449219 116.15625 L 97.449219 161.117188 L 52.488281 161.117188 Z M 52.488281 116.15625 " clip-rule="nonzero"/></clipPath><clipPath id="2372d4ccde"><path d="M 74.96875 116.15625 C 62.550781 116.15625 52.488281 126.222656 52.488281 138.636719 C 52.488281 151.050781 62.550781 161.117188 74.96875 161.117188 C 87.382812 161.117188 97.449219 151.050781 97.449219 138.636719 C 97.449219 126.222656 87.382812 116.15625 74.96875 116.15625 Z M 74.96875 116.15625 " clip-rule="nonzero"/></clipPath></defs><g fill="#000000" fill-opacity="1"><g transform="translate(156.691521, 199.845847)"><g><path d="M 51.078125 -65.109375 C 51.078125 -61.128906 51.273438 -56.148438 51.671875 -50.171875 C 52.066406 -44.203125 53.109375 -38.425781 54.796875 -32.84375 C 56.492188 -27.269531 58.9375 -22.492188 62.125 -18.515625 C 65.3125 -14.535156 69.691406 -12.546875 75.265625 -12.546875 C 81.035156 -12.546875 85.5625 -14.535156 88.84375 -18.515625 C 92.132812 -22.492188 94.578125 -27.222656 96.171875 -32.703125 C 97.765625 -38.179688 98.757812 -43.90625 99.15625 -49.875 C 99.550781 -55.851562 99.75 -60.929688 99.75 -65.109375 C 99.75 -69.285156 99.550781 -74.359375 99.15625 -80.328125 C 98.757812 -86.304688 97.765625 -92.035156 96.171875 -97.515625 C 94.578125 -102.992188 92.132812 -107.722656 88.84375 -111.703125 C 85.5625 -115.679688 81.035156 -117.671875 75.265625 -117.671875 C 69.691406 -117.671875 65.257812 -115.679688 61.96875 -111.703125 C 58.6875 -107.722656 56.25 -102.941406 54.65625 -97.359375 C 53.0625 -91.785156 52.066406 -86.007812 51.671875 -80.03125 C 51.273438 -74.0625 51.078125 -69.085938 51.078125 -65.109375 Z M 8.65625 -65.40625 C 8.65625 -87.113281 14.378906 -103.390625 25.828125 -114.234375 C 37.285156 -125.085938 53.765625 -130.515625 75.265625 -130.515625 C 96.972656 -130.515625 113.550781 -125.140625 125 -114.390625 C 136.445312 -103.640625 142.171875 -87.3125 142.171875 -65.40625 C 142.171875 -43.507812 136.445312 -27.082031 125 -16.125 C 113.550781 -5.175781 96.972656 0.296875 75.265625 0.296875 C 53.554688 0.296875 37.023438 -5.226562 25.671875 -16.28125 C 14.328125 -27.332031 8.65625 -43.707031 8.65625 -65.40625 Z M 8.65625 -65.40625 "/></g></g></g><g fill="#000000" fill-opacity="1"><g transform="translate(307.820913, 199.845847)"><g><path d="M 51.078125 -65.109375 C 51.078125 -61.128906 51.273438 -56.148438 51.671875 -50.171875 C 52.066406 -44.203125 53.109375 -38.425781 54.796875 -32.84375 C 56.492188 -27.269531 58.9375 -22.492188 62.125 -18.515625 C 65.3125 -14.535156 69.691406 -12.546875 75.265625 -12.546875 C 81.035156 -12.546875 85.5625 -14.535156 88.84375 -18.515625 C 92.132812 -22.492188 94.578125 -27.222656 96.171875 -32.703125 C 97.765625 -38.179688 98.757812 -43.90625 99.15625 -49.875 C 99.550781 -55.851562 99.75 -60.929688 99.75 -65.109375 C 99.75 -69.285156 99.550781 -74.359375 99.15625 -80.328125 C 98.757812 -86.304688 97.765625 -92.035156 96.171875 -97.515625 C 94.578125 -102.992188 92.132812 -107.722656 88.84375 -111.703125 C 85.5625 -115.679688 81.035156 -117.671875 75.265625 -117.671875 C 69.691406 -117.671875 65.257812 -115.679688 61.96875 -111.703125 C 58.6875 -107.722656 56.25 -102.941406 54.65625 -97.359375 C 53.0625 -91.785156 52.066406 -86.007812 51.671875 -80.03125 C 51.273438 -74.0625 51.078125 -69.085938 51.078125 -65.109375 Z M 8.65625 -65.40625 C 8.65625 -87.113281 14.378906 -103.390625 25.828125 -114.234375 C 37.285156 -125.085938 53.765625 -130.515625 75.265625 -130.515625 C 96.972656 -130.515625 113.550781 -125.140625 125 -114.390625 C 136.445312 -103.640625 142.171875 -87.3125 142.171875 -65.40625 C 142.171875 -43.507812 136.445312 -27.082031 125 -16.125 C 113.550781 -5.175781 96.972656 0.296875 75.265625 0.296875 C 53.554688 0.296875 37.023438 -5.226562 25.671875 -16.28125 C 14.328125 -27.332031 8.65625 -43.707031 8.65625 -65.40625 Z M 8.65625 -65.40625 "/></g></g></g><g fill="#000000" fill-opacity="1"><g transform="translate(458.950305, 199.845847)"><g><path d="M 13.4375 -130.21875 L 56.15625 -130.21875 L 56.15625 -124.84375 C 59.738281 -126.832031 63.566406 -128.222656 67.640625 -129.015625 C 71.722656 -129.816406 75.757812 -130.21875 79.75 -130.21875 C 86.320312 -130.21875 92.941406 -129.269531 99.609375 -127.375 C 106.273438 -125.488281 111.898438 -122.054688 116.484375 -117.078125 C 121.265625 -122.054688 126.789062 -125.488281 133.0625 -127.375 C 139.332031 -129.269531 145.753906 -130.21875 152.328125 -130.21875 C 167.859375 -130.21875 180.050781 -125.984375 188.90625 -117.515625 C 197.769531 -109.054688 202.203125 -97.0625 202.203125 -81.53125 L 202.203125 0 L 159.796875 0 L 159.796875 -93.484375 C 159.796875 -96.066406 159.59375 -98.753906 159.1875 -101.546875 C 158.789062 -104.335938 157.992188 -106.875 156.796875 -109.15625 C 155.609375 -111.445312 154.015625 -113.335938 152.015625 -114.828125 C 150.023438 -116.328125 147.441406 -117.078125 144.265625 -117.078125 C 139.679688 -117.078125 135.796875 -115.734375 132.609375 -113.046875 C 129.421875 -110.359375 127.234375 -106.925781 126.046875 -102.75 C 127.429688 -99.363281 128.375 -95.875 128.875 -92.28125 C 129.375 -88.695312 129.625 -85.113281 129.625 -81.53125 L 129.625 0 L 86.90625 0 L 86.90625 -93.484375 C 86.90625 -95.867188 86.707031 -98.457031 86.3125 -101.25 C 85.914062 -104.039062 85.171875 -106.628906 84.078125 -109.015625 C 82.984375 -111.398438 81.488281 -113.335938 79.59375 -114.828125 C 77.707031 -116.328125 75.171875 -117.078125 71.984375 -117.078125 C 68.203125 -117.078125 65.066406 -116.179688 62.578125 -114.390625 C 60.085938 -112.597656 57.945312 -110.109375 56.15625 -106.921875 L 56.15625 0 L 13.4375 0 Z M 13.4375 -130.21875 "/></g></g></g><g fill="#000000" fill-opacity="1"><g transform="translate(673.39874, 199.845847)"><g><path d="M 13.4375 -130.21875 L 55.859375 -130.21875 L 55.859375 0 L 13.4375 0 Z M 11.953125 -158.890625 C 11.953125 -165.265625 14.140625 -170.59375 18.515625 -174.875 C 22.898438 -179.15625 28.273438 -181.296875 34.640625 -181.296875 C 40.816406 -181.296875 46.144531 -179.15625 50.625 -174.875 C 55.101562 -170.59375 57.34375 -165.265625 57.34375 -158.890625 C 57.34375 -152.523438 55.148438 -147.203125 50.765625 -142.921875 C 46.390625 -138.640625 41.015625 -136.5 34.640625 -136.5 C 28.273438 -136.5 22.898438 -138.640625 18.515625 -142.921875 C 14.140625 -147.203125 11.953125 -152.523438 11.953125 -158.890625 Z M 11.953125 -158.890625 "/></g></g></g><g fill="#000000" fill-opacity="1"><g transform="translate(742.989909, 199.845847)"><g><path d="M 51.078125 -60.625 C 51.273438 -56.84375 51.570312 -51.960938 51.96875 -45.984375 C 52.363281 -40.015625 53.40625 -34.289062 55.09375 -28.8125 C 56.789062 -23.34375 59.179688 -18.613281 62.265625 -14.625 C 65.359375 -10.644531 69.691406 -8.65625 75.265625 -8.65625 C 80.046875 -8.65625 83.726562 -9.703125 86.3125 -11.796875 C 88.90625 -13.890625 90.894531 -16.476562 92.28125 -19.5625 C 93.675781 -22.644531 94.769531 -26.03125 95.5625 -29.71875 C 96.363281 -33.40625 97.460938 -36.789062 98.859375 -39.875 C 100.253906 -42.957031 102.242188 -45.546875 104.828125 -47.640625 C 107.421875 -49.734375 111.109375 -50.78125 115.890625 -50.78125 C 121.066406 -50.78125 125.492188 -49.132812 129.171875 -45.84375 C 132.859375 -42.5625 134.703125 -38.332031 134.703125 -33.15625 C 134.703125 -31.363281 134.503906 -29.96875 134.109375 -28.96875 C 132.109375 -22.195312 129.066406 -16.867188 124.984375 -12.984375 C 120.910156 -9.109375 116.1875 -6.171875 110.8125 -4.171875 C 105.4375 -2.179688 99.710938 -0.9375 93.640625 -0.4375 C 87.566406 0.0507812 81.539062 0.296875 75.5625 0.296875 C 53.863281 0.296875 37.285156 -5.226562 25.828125 -16.28125 C 14.378906 -27.332031 8.65625 -43.707031 8.65625 -65.40625 C 8.65625 -87.113281 14.378906 -103.390625 25.828125 -114.234375 C 37.285156 -125.085938 53.765625 -130.515625 75.265625 -130.515625 C 96.972656 -130.515625 113.550781 -125.140625 125 -114.390625 C 136.445312 -103.640625 142.171875 -87.3125 142.171875 -65.40625 L 142.171875 -60.625 Z M 99.75 -73.765625 C 99.75 -77.953125 99.550781 -82.582031 99.15625 -87.65625 C 98.757812 -92.738281 97.710938 -97.46875 96.015625 -101.84375 C 94.328125 -106.226562 91.890625 -109.910156 88.703125 -112.890625 C 85.515625 -115.878906 81.035156 -117.375 75.265625 -117.375 C 69.691406 -117.375 65.3125 -115.878906 62.125 -112.890625 C 58.9375 -109.910156 56.546875 -106.179688 54.953125 -101.703125 C 53.359375 -97.222656 52.363281 -92.492188 51.96875 -87.515625 C 51.570312 -82.535156 51.273438 -77.953125 51.078125 -73.765625 Z M 99.75 -73.765625 "/></g></g></g><g clip-path="url(#c7c4ef6ca7)"><g clip-path="url(#83948121f4)"><path stroke-linecap="butt" transform="matrix(0.75, 0, 0, 0.75, 0.970515, 120.112769)" fill="none" stroke-linejoin="miter" d="M 99.919529 0.000683546 C 44.737233 0.000683546 -0.00235396 44.735062 -0.00235396 99.922567 C -0.00235396 155.104863 44.737233 199.84445 99.919529 199.84445 C 155.107034 199.84445 199.841412 155.104863 199.841412 99.922567 C 199.841412 44.735062 155.107034 0.000683546 99.919529 0.000683546 Z M 99.919529 0.000683546 " stroke="#000000" stroke-width="80" stroke-opacity="1" stroke-miterlimit="4"/></g></g><g clip-path="url(#ac525fec5a)"><path fill="#ffffff" d="M 0 120.113281 L 151.667969 120.113281 L 151.667969 213.671875 L 0 213.671875 Z M 0 120.113281 " fill-opacity="1" fill-rule="nonzero"/></g><g clip-path="url(#87dff90470)"><path fill="#ffffff" d="M 0 123.347656 L 149.746094 123.347656 L 149.746094 213.335938 L 0 213.335938 Z M 0 123.347656 " fill-opacity="1" fill-rule="nonzero"/></g><g clip-path="url(#70c9c46277)"><g clip-path="url(#384fc39899)"><path stroke-linecap="butt" transform="matrix(0.75, 0, 0, 0.75, 0.000018, 64.116367)" fill="none" stroke-linejoin="miter" d="M 99.921859 0.00109431 C 44.734355 0.00109431 -0.000024 44.735473 -0.000024 99.922977 C -0.000024 155.105274 44.734355 199.844861 99.921859 199.844861 C 155.109364 199.844861 199.843742 155.105274 199.843742 99.922977 C 199.843742 44.735473 155.109364 0.00109431 99.921859 0.00109431 Z M 99.921859 0.00109431 " stroke="#000000" stroke-width="80" stroke-opacity="1" stroke-miterlimit="4"/></g></g><g clip-path="url(#4919b23428)"><path fill="#000000" d="M 74.945312 64.257812 L 149.863281 64.257812 L 149.863281 94.367188 L 74.945312 94.367188 Z M 74.945312 64.257812 " fill-opacity="1" fill-rule="nonzero"/></g><g clip-path="url(#6bf156fb4f)"><path fill="#000000" d="M 119.949219 65.671875 L 149.886719 65.671875 L 149.886719 139 L 119.949219 139 Z M 119.949219 65.671875 " fill-opacity="1" fill-rule="nonzero"/></g><g clip-path="url(#4d25424491)"><g clip-path="url(#2372d4ccde)"><path fill="#db4404" d="M 52.488281 116.15625 L 97.449219 116.15625 L 97.449219 161.117188 L 52.488281 161.117188 Z M 52.488281 116.15625 " fill-opacity="1" fill-rule="nonzero"/></g></g></svg>