<?xml version="1.0" encoding="UTF-8"?>
<svg version="1.1" xmlns="http://www.w3.org/2000/svg" width="1180" height="340">
<path d="M0 0 C19.14 0 38.28 0 58 0 C59 4 59 4 58 7 C58.7425 6.566875 59.485 6.13375 60.25 5.6875 C76.61949836 -2.45864187 96.56375481 -0.70105043 114 2 C114 2.66 114 3.32 114 4 C115.546875 4.185625 115.546875 4.185625 117.125 4.375 C120.62116846 4.93889814 123.68397627 5.78682059 127 7 C127 7.66 127 8.32 127 9 C128.0828125 9.3403125 128.0828125 9.3403125 129.1875 9.6875 C132.53209313 11.24831013 134.51603959 13.3031287 137 16 C139.55542423 14.8642559 141.43077828 13.65127473 143.625 11.875 C146 10 146 10 148 10 C148.33 9.34 148.66 8.68 149 8 C168.86975019 -2.03422385 192.07003368 -2.08090985 213.1015625 3.87890625 C224.14829417 7.59745395 233.75584476 13.61187216 240.75 23 C241.91789062 24.546875 241.91789062 24.546875 243.109375 26.125 C244.76317835 28.63987451 245.39303965 30.14992531 246 33 C246.66 33.33 247.32 33.66 248 34 C255.28873236 51.38362668 254.15428664 71.94974798 254.1328125 90.41015625 C254.13348772 92.47033194 254.13445955 94.53050756 254.13571167 96.59068298 C254.13717806 100.88801845 254.13506811 105.185333 254.13037109 109.48266602 C254.12467086 114.96171005 254.12796146 120.44070511 254.13394356 125.91974735 C254.13757478 130.167357 254.13639891 134.41495522 254.13381577 138.66256523 C254.13315376 140.68176721 254.13394921 142.70097025 254.13629532 144.72017097 C254.14549243 154.85641435 254.15052027 164.91273358 253 175 C245.73316444 175.15373908 238.46623813 175.30192054 231.19914436 175.4429636 C227.82491975 175.50862772 224.4507566 175.57622188 221.07666016 175.64819336 C217.19962343 175.72994239 213.32250733 175.80508895 209.4453125 175.87890625 C207.6233989 175.91945885 207.6233989 175.91945885 205.76467896 175.96083069 C204.64366791 175.98092697 203.52265686 176.00102325 202.36767578 176.02172852 C200.88208664 176.05170677 200.88208664 176.05170677 199.3664856 176.08229065 C197 176 197 176 195 175 C195.00184359 174.37660768 195.00368717 173.75321535 195.00558662 173.11093235 C195.04996343 157.86664084 195.08295199 142.62236948 195.10362434 127.37802982 C195.1138898 120.00565823 195.12785837 112.63333004 195.15087891 105.26098633 C195.17095902 98.8271875 195.1837507 92.39342015 195.18817699 85.95959085 C195.19075992 82.56025601 195.19672915 79.1610111 195.21146011 75.7617054 C197.04930201 48.53309767 197.04930201 48.53309767 187.51171875 24.45703125 C182.71858285 20.21100267 178.77735187 19.70454276 172.6328125 19.78515625 C167.22469311 20.22647163 163.36240944 21.87979668 159.1875 25.3125 C156.94056948 28.07301464 155.52745547 30.79961711 154 34 C153.01 34.495 153.01 34.495 152 35 C152.27714844 36.17175781 152.55429687 37.34351563 152.83984375 38.55078125 C153.20610956 40.1379331 153.57197321 41.72517779 153.9375 43.3125 C154.21110352 44.46202148 154.21110352 44.46202148 154.49023438 45.63476562 C156.69923466 55.31420325 157.15066534 64.98326556 157.12939453 74.8840332 C157.13202301 76.42280373 157.13202301 76.42280373 157.13470459 77.99266052 C157.13906575 81.34538521 157.13620659 84.69805613 157.1328125 88.05078125 C157.13348693 90.39723216 157.13445811 92.743683 157.13571167 95.09013367 C157.13718064 99.98953929 157.13505891 104.8889266 157.13037109 109.78833008 C157.12465849 116.06393284 157.12796756 122.33949297 157.13394356 128.61509418 C157.13755735 133.45265525 157.13640708 138.2902062 157.13381577 143.12776756 C157.13314958 145.44220167 157.13396413 147.75663669 157.13629532 150.07106972 C157.13883696 153.30171774 157.13496055 156.53229658 157.12939453 159.76293945 C157.13141876 160.71526459 157.13344299 161.66758972 157.13552856 162.64877319 C157.13270874 163.53302475 157.12988892 164.41727631 157.12698364 165.32832336 C157.1264181 166.4711174 157.1264181 166.4711174 157.12584114 167.63699818 C156.9762573 170.44583225 156.46242382 173.22545708 156 176 C136.86 175.67 117.72 175.34 98 175 C97.9906543 170.94299805 97.98130859 166.88599609 97.97167969 162.70605469 C97.9378632 149.27899191 97.88248748 135.85208994 97.81609726 122.42515182 C97.77638104 114.28701216 97.74395105 106.14896816 97.72900391 98.01074219 C97.71594874 90.91289937 97.68888626 83.8152677 97.64538693 76.71754384 C97.62285839 72.96343596 97.6070841 69.20958765 97.60811615 65.45540619 C97.60886791 61.91266026 97.59071342 58.37048623 97.55883217 54.82788849 C97.54641991 52.92655912 97.55335682 51.02513325 97.56114197 49.1237793 C97.45262276 40.06943618 96.48344423 30.16068315 89.9375 23.3125 C84.70630727 19.194327 79.41847687 19.47660489 73 20 C69.14735991 21.44474004 66.79900444 23.06104534 64 26 C63.34 26 62.68 26 62 26 C59.70648589 31.35153291 58.87295328 36.01278124 58.89320374 41.826828 C58.89471939 42.99196426 58.89623505 44.15710052 58.89779663 45.35754395 C58.904534 46.62682739 58.91127136 47.89611084 58.91821289 49.20385742 C58.9217711 50.56093739 58.92485652 51.91801866 58.92750549 53.27510071 C58.93404424 56.19160202 58.94359539 59.10807242 58.95540047 62.02455711 C58.9737107 66.63357752 58.98329613 71.24259049 58.99131775 75.85163879 C59.0154589 88.95573189 59.05143551 102.05977923 59.09594727 115.16381836 C59.12046844 122.40541529 59.13784527 129.64699453 59.14750665 136.88862687 C59.15406023 141.47351124 59.16963987 146.05824987 59.19182408 150.64308393 C59.20352445 153.48934468 59.20691969 156.3355696 59.20792198 159.18185234 C59.21110559 161.13760479 59.22429637 163.09333285 59.23773193 165.04904175 C59.23642776 166.20571854 59.2351236 167.36239532 59.23377991 168.55412292 C59.23692231 169.5634447 59.24006472 170.57276648 59.24330235 171.61267376 C59 174 59 174 57 176 C38.19 175.67 19.38 175.34 0 175 C0 117.25 0 59.5 0 0 Z " fill="#080808" transform="translate(629,67)"/>
<path d="M0 0 C0.0703983 14.60465574 0.12313795 29.20928871 0.15543652 43.81408024 C0.1708387 50.59689605 0.19179922 57.37960582 0.22631836 64.16235352 C0.25966347 70.71759574 0.27689268 77.27276955 0.28463173 83.82809258 C0.29014149 86.31931724 0.30089997 88.81053644 0.31719017 91.30171394 C0.39819289 104.21161148 0.42392451 116.47843248 -3 129 C-3.21263992 129.81594131 -3.42527985 130.63188263 -3.6443634 131.47254944 C-6.80001433 142.88901095 -13.7171912 155.70949797 -21 165 C-21.66 165 -22.32 165 -23 165 C-23.36351562 165.85271484 -23.36351562 165.85271484 -23.734375 166.72265625 C-32.30989362 182.15329624 -51.4383618 190.60318777 -67 197 C-67.804375 197.36222656 -68.60875 197.72445312 -69.4375 198.09765625 C-92.95456801 206.37881892 -120.64091551 202.78209947 -143 193 C-143.680625 192.74476563 -144.36125 192.48953125 -145.0625 192.2265625 C-150.04285442 190.33669587 -153.87301994 187.27259601 -158 184 C-158.76957031 183.41605469 -159.53914063 182.83210937 -160.33203125 182.23046875 C-164.5169154 179.04495992 -168.36966424 175.82140606 -172 172 C-172.74443359 171.33871094 -172.74443359 171.33871094 -173.50390625 170.6640625 C-182.44847603 162.48735602 -191.05032306 149.97658693 -193 138 C-193.66 137.67 -194.32 137.34 -195 137 C-195.78814178 134.64152289 -196.45486891 132.34261011 -197.0625 129.9375 C-197.23587891 129.29361328 -197.40925781 128.64972656 -197.58789062 127.98632812 C-199.87325296 119.20388208 -200.15747967 110.7222627 -200.125 101.6875 C-200.12886719 100.62337891 -200.13273438 99.55925781 -200.13671875 98.46289062 C-200.12833083 91.58899102 -199.74720462 84.83292242 -199 78 C-198.34 78 -197.68 78 -197 78 C-197.33 77.01 -197.66 76.02 -198 75 C-196.68877777 68.89730216 -194.00938701 62.45832138 -191 57 C-190.01 56.505 -190.01 56.505 -189 56 C-188.855625 55.05125 -188.71125 54.1025 -188.5625 53.125 C-187.93455885 49.63643803 -187.45467526 49.3045069 -185 47 C-183.94145121 45.65898871 -182.9012657 44.30337537 -181.875 42.9375 C-177.85393609 37.71011692 -173.49335023 32.82425587 -169 28 C-168.18789062 27.11441406 -168.18789062 27.11441406 -167.359375 26.2109375 C-166 25 -166 25 -164 25 C-164 24.34 -164 23.68 -164 23 C-144.74365568 6.57485115 -119.89024344 0.94490733 -95.24194336 0.79467773 C-94.21796448 0.78477814 -93.1939856 0.77487854 -92.13897705 0.76467896 C-88.78928862 0.73335409 -85.43958609 0.708421 -82.08984375 0.68359375 C-79.75240229 0.66299762 -77.41496433 0.64200049 -75.07752991 0.62062073 C-68.95092633 0.56565836 -62.82429056 0.51613917 -56.69763184 0.46777344 C-50.43966825 0.41738955 -44.18175129 0.36177968 -37.92382812 0.30664062 C-28.81374233 0.22698715 -19.70364252 0.14954629 -10.59350586 0.07592773 C-9.63098404 0.06814804 -8.66846222 0.06036835 -7.67677307 0.05235291 C-1.13803138 0 -1.13803138 0 0 0 Z M-145 62 C-145 62.66 -145 63.32 -145 64 C-145.66 64 -146.32 64 -147 64 C-158.26602276 76.48843579 -159.73143346 93.4842975 -159.17041016 109.39746094 C-158.44783688 120.43274904 -153.66920949 130.30981794 -147 139 C-146.34 139 -145.68 139 -145 139 C-144.63841797 139.85464844 -144.63841797 139.85464844 -144.26953125 140.7265625 C-138.22010854 151.55968256 -125.20733873 156.47814076 -114 160 C-98.11231875 163.30993359 -81.94803424 160.64279375 -68.109375 152.24609375 C-58.62981833 145.69248963 -51.77339074 138.18013099 -46.5625 127.9375 C-46.2322583 127.28910156 -45.9020166 126.64070313 -45.56176758 125.97265625 C-39.49876669 113.32937148 -38.78926892 97.21168293 -42.6875 83.8125 C-48.33440854 68.42075275 -58.54825566 55.88513319 -73 48 C-80.55607903 44.51417931 -88.66274287 42.24189334 -97 42 C-97.67675781 41.94972656 -98.35351562 41.89945313 -99.05078125 41.84765625 C-116.56135576 41.04735577 -133.32195347 49.2271366 -145 62 Z " fill="#070707" transform="translate(200,59)"/>
<path d="M0 0 C0 0.66 0 1.32 0 2 C0.59167969 2.26039062 1.18335938 2.52078125 1.79296875 2.7890625 C12.32235524 8.56624801 18.38508578 23.44440236 21.93359375 34.21875 C28.05166921 55.91214578 28.69551468 81.13235878 23 103 C22.01 103.495 22.01 103.495 21 104 C20.85691406 104.87140625 20.71382812 105.7428125 20.56640625 106.640625 C18.1954577 120.70280263 6.96500701 133.62322431 -4 142 C-10.52119833 146.60492416 -17.36365175 149.73019956 -24.875 152.3125 C-25.56907959 152.55500488 -26.26315918 152.79750977 -26.97827148 153.04736328 C-38.60005169 156.80145962 -50.64742069 157.35238657 -62.75854492 157.31567383 C-64.93263714 157.31250708 -67.10537052 157.33611538 -69.27929688 157.36132812 C-86.93182241 157.44169885 -103.38598052 153.40754895 -119 145 C-119.66 144.67 -120.32 144.34 -121 144 C-121 143.34 -121 142.68 -121 142 C-121.58136719 141.72285156 -122.16273438 141.44570312 -122.76171875 141.16015625 C-129.97687689 137.42036224 -135.81060604 131.98232327 -140 125 C-140.34713357 123.3361529 -140.68315117 121.66987895 -141 120 C-141.66 119.67 -142.32 119.34 -143 119 C-143.66666667 116.66666667 -144.33333333 114.33333333 -145 112 C-145.66 111.67 -146.32 111.34 -147 111 C-148.31745857 107.12081644 -149 104.11624135 -149 100 C-149.66 99.67 -150.32 99.34 -151 99 C-151.50524493 96.4519438 -151.85881365 94.01465534 -152.125 91.4375 C-152.2077417 90.644646 -152.2904834 89.85179199 -152.37573242 89.03491211 C-155.00039878 60.94046181 -153.23184621 32.88032251 -136.125 9.4296875 C-104.14200238 -28.81664715 -38.33481414 -25.55654276 0 0 Z M-82 9 C-82.48210937 9.56847656 -82.96421875 10.13695312 -83.4609375 10.72265625 C-99.05528095 31.26444369 -97.58514307 66.65784415 -95 91 C-94.26136577 96.39214472 -93.1759569 101.68641697 -92 107 C-91.86980469 107.75023437 -91.73960937 108.50046875 -91.60546875 109.2734375 C-90.09136565 117.16008443 -85.33968549 126.9909946 -80 133 C-79.34 133 -78.68 133 -78 133 C-78 133.66 -78 134.32 -78 135 C-71.34274743 139.09677081 -65.7769898 140.12390046 -58 139 C-50.06938275 136.65353003 -45.16454323 132.01901276 -41 125 C-33.95224998 111.26936984 -31.85191359 96.41811808 -31.83203125 81.171875 C-31.82870285 80.26101135 -31.82537445 79.35014771 -31.82194519 78.41168213 C-31.81691379 76.49565124 -31.81453568 74.57961171 -31.81469727 72.66357422 C-31.81251633 69.77165886 -31.79433501 66.88012909 -31.77539062 63.98828125 C-31.74553756 54.1161589 -32.00262987 44.70177567 -34 35 C-34.1664502 34.12996338 -34.33290039 33.25992676 -34.50439453 32.36352539 C-36.96156017 20.6453872 -41.80235929 10.74968523 -51.15234375 3.1875 C-54.2813587 1.17646291 -57.33950757 0.44965742 -61 0 C-61.66128906 -0.0825 -62.32257813 -0.165 -63.00390625 -0.25 C-70.91212104 -0.74523067 -76.99574733 3.07391131 -82 9 Z " fill="#070707" transform="translate(373,85)"/>
<path d="M0 0 C1.27528564 0.00821777 2.55057129 0.01643555 3.86450195 0.02490234 C28.77289588 0.32016468 50.75361219 5.42777878 69.375 22.75 C70.138125 23.575 70.90125 24.4 71.6875 25.25 C72.615625 26.178125 73.54375 27.10625 74.5 28.0625 C88.10176237 44.09566549 91.06065137 65.36371904 90.94824219 85.58007812 C90.93748047 87.87917234 90.94822464 90.17749116 90.9609375 92.4765625 C90.96732478 99.77972927 90.73675172 106.82638196 89.17724609 113.99682617 C88.43963145 117.39036834 88.07791462 120.80133753 87.6875 124.25 C87.0275 124.25 86.3675 124.25 85.6875 124.25 C85.80158203 125.27480469 85.80158203 125.27480469 85.91796875 126.3203125 C85.61443799 130.17875434 83.96037687 132.88623037 82 136.125 C81.45351807 137.05046631 81.45351807 137.05046631 80.89599609 137.99462891 C78.36254852 142.24171432 75.80326945 146.40110832 72.6875 150.25 C72.0275 150.25 71.3675 150.25 70.6875 150.25 C70.0275 151.57 69.3675 152.89 68.6875 154.25 C68.0275 154.25 67.3675 154.25 66.6875 154.25 C66.6875 154.91 66.6875 155.57 66.6875 156.25 C64.63421627 157.7960376 62.60471478 159.19210498 60.4375 160.5625 C59.80360352 160.96549316 59.16970703 161.36848633 58.51660156 161.78369141 C52.82770713 165.31330782 47.00359769 168.01507313 40.6875 170.25 C39.85863281 170.54519531 39.02976562 170.84039062 38.17578125 171.14453125 C26.46372364 174.97311047 14.54814529 175.572687 2.3125 175.5 C1.01828125 175.50773438 -0.2759375 175.51546875 -1.609375 175.5234375 C-23.41333674 175.47991662 -45.48088896 171.08640124 -62.75 156.875 C-65.3125 154.25 -65.3125 154.25 -65.3125 152.25 C-65.9725 152.25 -66.6325 152.25 -67.3125 152.25 C-70.3535813 149.60131629 -72.43701405 146.81342331 -74.3125 143.25 C-74.3125 142.59 -74.3125 141.93 -74.3125 141.25 C-74.9725 140.92 -75.6325 140.59 -76.3125 140.25 C-85.86405373 126.37511142 -87.50914272 106.74868358 -87.55273438 90.50170898 C-87.56233701 88.34903754 -87.59337185 86.19736592 -87.625 84.04492188 C-87.69984953 74.10054602 -86.46986901 64.96333492 -84.3125 55.25 C-84.10117432 54.26459229 -83.88984863 53.27918457 -83.67211914 52.26391602 C-83.23505766 50.25569554 -82.77724866 48.25199423 -82.3125 46.25 C-81.6525 46.25 -80.9925 46.25 -80.3125 46.25 C-80.1990625 45.52167969 -80.085625 44.79335937 -79.96875 44.04296875 C-77.24814449 32.46420124 -65.82014253 20.90738567 -56.3125 14.25 C-54.98159919 13.90708321 -53.64863353 13.57192556 -52.3125 13.25 C-51.9825 12.59 -51.6525 11.93 -51.3125 11.25 C-34.79688799 3.00367912 -18.40679719 -0.14444384 0 0 Z M-17.84375 28.01171875 C-25.19368868 37.85538663 -27.89411045 51.25535793 -29.3125 63.25 C-29.39862549 63.9301416 -29.48475098 64.6102832 -29.57348633 65.31103516 C-32.64061616 91.89646863 -31.58453363 121.05799929 -19.3125 145.25 C-18.6525 145.25 -17.9925 145.25 -17.3125 145.25 C-17.065 146.03375 -16.8175 146.8175 -16.5625 147.625 C-15.15860901 150.57317108 -14.30574263 151.1524777 -11.3125 152.25 C-11.3125 152.91 -11.3125 153.57 -11.3125 154.25 C-4.30384195 157.42373195 2.64351964 158.98211408 10.14453125 156.40625 C20.85690664 151.0044389 25.9165238 141.55093304 29.58984375 130.546875 C37.64521815 101.85210848 38.83003751 59.3914591 24.08984375 32.46484375 C19.64721067 25.44820598 14.92443429 20.38649682 6.6875 18.25 C-3.41776889 16.90366249 -11.20581667 20.37470872 -17.84375 28.01171875 Z " fill="#070707" transform="translate(509.3125,66.75)"/>
<path d="M0 0 C0.99 0.66 1.98 1.32 3 2 C3 2.66 3 3.32 3 4 C3.56976562 4.21914062 4.13953125 4.43828125 4.7265625 4.6640625 C15.31870817 10.88831305 21.10089829 27.25044364 25.23828125 38.0390625 C28.39684492 50.31696639 27 64.99885198 27 77 C-12.6 77.33 -52.2 77.66 -93 78 C-91.21942602 112.00767715 -91.21942602 112.00767715 -74.828125 141.1796875 C-71.13066465 143.55954457 -68.00062794 143.87997294 -63.6875 144.25 C-62.94693359 144.32734375 -62.20636719 144.4046875 -61.44335938 144.484375 C-59.63041732 144.67151741 -57.81535046 144.83787704 -56 145 C-55.67 144.34 -55.34 143.68 -55 143 C-53.68 143 -52.36 143 -51 143 C-41.25385976 137.32282487 -38.60274389 127.41445634 -35.87524414 117.18383789 C-31.55708545 101.01709018 -31.55708545 101.01709018 -25 95 C-24.13375 94.195625 -23.2675 93.39125 -22.375 92.5625 C-16.17541522 88.4838258 -10.24399879 88.24578221 -3 89 C0.80048002 90.05824504 4.39233212 91.40921731 8 93 C8 93.66 8 94.32 8 95 C8.5775 95.20625 9.155 95.4125 9.75 95.625 C13.63227201 97.99749956 15.37084235 101.64731105 17.25 105.6875 C19.61861349 116.14887623 17.20388354 122.84572312 12 132 C11.34644531 133.51400391 11.34644531 133.51400391 10.6796875 135.05859375 C8.61762081 138.6696082 6.32318519 140.36397642 2.9375 142.75 C-1.21641924 145.65697597 -1.21641924 145.65697597 -5 149 C-10.42027347 152.31456158 -15.94143922 153.9518306 -22.125 155.1875 C-22.89714844 155.35185547 -23.66929688 155.51621094 -24.46484375 155.68554688 C-26.63984396 156.14314913 -28.81831365 156.57560627 -31 157 C-31.92554688 157.18820313 -32.85109375 157.37640625 -33.8046875 157.5703125 C-56.2833805 160.59311963 -79.24719303 159.36003571 -101 153 C-102.49853516 152.61134766 -102.49853516 152.61134766 -104.02734375 152.21484375 C-108.92605578 150.89844977 -112.16888087 149.47195171 -116 146 C-116.66 146 -117.32 146 -118 146 C-119.35432675 144.68799596 -120.68733482 143.35368596 -122 142 C-122.66 141.67 -123.32 141.34 -124 141 C-124 140.34 -124 139.68 -124 139 C-124.85851563 138.64421875 -124.85851563 138.64421875 -125.734375 138.28125 C-128.4879292 136.72406762 -130.16795634 134.87507203 -132.25 132.5 C-132.95640625 131.7059375 -133.6628125 130.911875 -134.390625 130.09375 C-136 128 -136 128 -136 126 C-136.99 125.67 -137.98 125.34 -139 125 C-140.88579937 121.78715662 -142 119.75366417 -142 116 C-142.66 115.67 -143.32 115.34 -144 115 C-155.20062769 90.73953111 -154.70757298 55.75502542 -145.625 31 C-143.34220281 25.53932709 -140.77321666 20.22780843 -138 15 C-137.34 15 -136.68 15 -136 15 C-135.814375 14.319375 -135.62875 13.63875 -135.4375 12.9375 C-131.46818289 4.82628678 -122.47180586 -1.25631944 -115 -6 C-113.34200511 -6.37408798 -111.67638577 -6.71960807 -110 -7 C-109.67 -7.66 -109.34 -8.32 -109 -9 C-75.19756289 -23.75812456 -30.33761154 -21.17085122 0 0 Z M-79 7 C-79 7.66 -79 8.32 -79 9 C-79.60714844 9.24621094 -80.21429687 9.49242187 -80.83984375 9.74609375 C-86.24735318 12.88499163 -88.62189974 20.82672288 -90.37890625 26.57421875 C-92.26932332 33.95754579 -93.15840799 41.48272786 -93.8125 49.0625 C-93.92207031 50.31160156 -94.03164062 51.56070313 -94.14453125 52.84765625 C-94.27997429 55.90210314 -94.27997429 55.90210314 -92.86222839 57.67573547 C-90.21476035 59.55839822 -88.29068852 59.36056096 -85.05981445 59.34057617 C-83.22825554 59.34023628 -83.22825554 59.34023628 -81.35969543 59.33988953 C-80.04087875 59.32440567 -78.72206207 59.30892181 -77.36328125 59.29296875 C-75.99993862 59.28737243 -74.63658996 59.2831025 -73.27323914 59.28010559 C-69.68756408 59.26865949 -66.10225446 59.23919486 -62.51672363 59.20599365 C-58.8569025 59.17528739 -55.19702223 59.1615991 -51.53710938 59.14648438 C-44.35790644 59.11432449 -37.17900446 59.06313153 -30 59 C-29.9796271 56.29813842 -29.96481131 53.59643306 -29.953125 50.89453125 C-29.94684082 50.13660278 -29.94055664 49.37867432 -29.93408203 48.59777832 C-29.89342069 36.03681157 -32.08826762 22.13690712 -40 12 C-40.53625 11.154375 -41.0725 10.30875 -41.625 9.4375 C-47.39650572 3.51411256 -53.50307091 1.6701713 -61.6875 1.5 C-68.90101696 1.74748696 -73.02953041 3.01968694 -79 7 Z " fill="#080808" transform="translate(1153,84)"/>
<path d="M0 0 C0 57.75 0 115.5 0 175 C-28.215 175.495 -28.215 175.495 -57 176 C-58 175 -58 175 -58.12304783 172.14391232 C-58.12212604 170.85432393 -58.12120424 169.56473555 -58.12025452 168.23606873 C-58.12110894 167.52059264 -58.12196337 166.80511655 -58.12284368 166.06795937 C-58.12450058 163.65262186 -58.11897371 161.23735267 -58.11352539 158.82202148 C-58.11324354 157.09775799 -58.11340121 155.37349438 -58.1139679 153.64923096 C-58.11425595 148.95314853 -58.10835802 144.25709141 -58.10139394 139.56101489 C-58.09516164 134.65892841 -58.0945567 129.75684142 -58.09336853 124.85475159 C-58.09025485 115.56517104 -58.08204096 106.2756022 -58.07201904 96.98602682 C-58.06085905 86.4130504 -58.05534774 75.84007343 -58.05032361 65.26709259 C-58.03985838 43.51138851 -58.02225823 21.75569499 -58 0 C-50.22222859 -0.16810505 -42.44432 -0.32801798 -34.66625977 -0.48217773 C-32.01908535 -0.53561827 -29.37194841 -0.59094918 -26.72485352 -0.64819336 C-22.92472413 -0.73004668 -19.1245128 -0.8051488 -15.32421875 -0.87890625 C-13.54285774 -0.91945885 -13.54285774 -0.91945885 -11.72550964 -0.96083069 C-10.0741375 -0.99097511 -10.0741375 -0.99097511 -8.3894043 -1.02172852 C-7.41899704 -1.04171402 -6.44858978 -1.06169952 -5.44877625 -1.08229065 C-3 -1 -3 -1 0 0 Z " fill="#080808" transform="translate(973,67)"/>
<path d="M0 0 C0.99 0.99 0.99 0.99 2 2 C1.25702676 12.18754826 -2.88586692 23.18252917 -8 32 C-8.99 32.495 -8.99 32.495 -10 33 C-10.28875 33.72574219 -10.5775 34.45148438 -10.875 35.19921875 C-12.18545408 38.46170339 -13.93217518 40.97304203 -16 43.8125 C-16.70125 44.78832031 -17.4025 45.76414062 -18.125 46.76953125 C-19.053125 47.87361328 -19.053125 47.87361328 -20 49 C-20.66 49 -21.32 49 -22 49 C-22.3403125 49.86625 -22.3403125 49.86625 -22.6875 50.75 C-24.33783478 53.57914534 -26.43258577 54.98274596 -29 57 C-29.556875 57.78375 -30.11375 58.5675 -30.6875 59.375 C-33.49026226 62.55651392 -36.50853238 64.29516677 -40.171875 66.375 C-41.73015534 67.2703655 -43.27992156 68.18399339 -44.78173828 69.17114258 C-49.77255831 72.44469788 -54.7617116 74.68731038 -60.375 76.6875 C-61.16132813 76.98205078 -61.94765625 77.27660156 -62.7578125 77.58007812 C-73.24494909 81.39280344 -83.10760848 82.32557685 -94.19433594 82.26074219 C-96.36421878 82.25005311 -98.53326771 82.26067363 -100.703125 82.2734375 C-111.21812219 82.28543014 -121.66555451 81.96036151 -131.375 77.5 C-135.20503452 75.76962628 -138.99306734 74.27654492 -143 73 C-143 72.34 -143 71.68 -143 71 C-144.65 70.67 -146.3 70.34 -148 70 C-148 69.34 -148 68.68 -148 68 C-148.72832031 67.7421875 -149.45664063 67.484375 -150.20703125 67.21875 C-159.21588573 63.2876135 -166.28029768 54.94163744 -173 48 C-173.48992432 47.53352051 -173.97984863 47.06704102 -174.48461914 46.58642578 C-176.04402634 44.95390959 -177.18224348 43.3319327 -178.375 41.41796875 C-178.80296875 40.73283203 -179.2309375 40.04769531 -179.671875 39.34179688 C-180.11015625 38.63087891 -180.5484375 37.91996094 -181 37.1875 C-181.65742188 36.13852539 -181.65742188 36.13852539 -182.328125 35.06835938 C-189.09112755 24.18033269 -189.09112755 24.18033269 -190 18 C-190.66 18 -191.32 18 -192 18 C-193.08318169 12.6787385 -194.152874 7.36513131 -195 2 C-190.86065311 0.84393775 -186.85556997 0.85614123 -182.5859375 0.8671875 C-181.77508698 0.86623077 -180.96423645 0.86527405 -180.1288147 0.86428833 C-178.41920901 0.86360917 -176.70960071 0.86544502 -175 0.86962891 C-172.3775457 0.87499479 -169.75526158 0.86966788 -167.1328125 0.86328125 C-165.47135379 0.86394181 -163.80989518 0.8652225 -162.1484375 0.8671875 C-161.36197845 0.86516327 -160.57551941 0.86313904 -159.76522827 0.86105347 C-154.2299393 0.88503035 -154.2299393 0.88503035 -152 2 C-150.73998979 4.27558426 -149.56911726 6.53710208 -148.4375 8.875 C-148.12103516 9.51308594 -147.80457031 10.15117187 -147.47851562 10.80859375 C-146.14946847 13.51183616 -144.95368036 16.13895891 -144 19 C-143.34 19 -142.68 19 -142 19 C-140.66104368 20.66215268 -139.32869858 22.32963607 -138 24 C-136.63875 25.0828125 -136.63875 25.0828125 -135.25 26.1875 C-134.5075 26.785625 -133.765 27.38375 -133 28 C-133 28.66 -133 29.32 -133 30 C-132.29617187 30.268125 -131.59234375 30.53625 -130.8671875 30.8125 C-126.82760802 32.48556834 -123.00646134 34.53970687 -119.1328125 36.5625 C-106.33224497 42.43607712 -90.02165181 42.52246178 -76.84375 37.890625 C-67.15333863 34.5292818 -67.15333863 34.5292818 -60 28 C-59.34 28 -58.68 28 -58 28 C-58 27.34 -58 26.68 -58 26 C-56.28515625 24.34375 -56.28515625 24.34375 -54.0625 22.5 C-51.07954821 20.11073001 -51.07954821 20.11073001 -49 17 C-48.34 17 -47.68 17 -47 17 C-46.9175 16.484375 -46.835 15.96875 -46.75 15.4375 C-46.04008576 13.13027871 -45.17035283 11.49370684 -43.9375 9.4375 C-41.75449347 6.22207782 -41.75449347 6.22207782 -42 3 C-37.64779289 0.84067052 -33.68062576 0.75259321 -28.92578125 0.83984375 C-28.16073776 0.84504532 -27.39569427 0.85024689 -26.60746765 0.85560608 C-24.17561414 0.87334732 -21.74419086 0.90452547 -19.3125 0.9375 C-16.87014073 0.96512035 -14.42784026 0.98981102 -11.98539734 1.00868225 C-10.46842585 1.02093925 -8.9514863 1.03854289 -7.43464661 1.06199646 C-3.59123727 1.17412908 -3.59123727 1.17412908 0 0 Z " fill="#090909" transform="translate(197,258)"/>
<path d="M0 0 C2.5625 2.875 2.5625 2.875 4 5 C0.25 6.125 0.25 6.125 -2 5 C-2.33 5.66 -2.66 6.32 -3 7 C-3.66 7.66 -4.32 8.32 -5 9 C-5.50010524 11.95769177 -5.50010524 11.95769177 -5 15 C-3.53958234 17.11670357 -3.53958234 17.11670357 -1 18 C2.68815293 17.77131906 2.68815293 17.77131906 6 17 C6.99 14.525 6.99 14.525 8 12 C11.74458678 15.74458678 12.12581531 21.38181653 12.25 26.5 C11.93517554 37.31514627 7.28807602 46.30034813 0.0078125 54.2109375 C-6.79816203 60.27540508 -15.81968469 63.00853635 -24.828125 62.99609375 C-30.44384956 62.63552127 -34.97120408 61.65672237 -40 59 C-40.96873047 58.49146484 -40.96873047 58.49146484 -41.95703125 57.97265625 C-50.41765545 53.16805704 -55.9242036 46.21085265 -59 37 C-61.08682085 28.29100098 -60.77836767 19.19086698 -57 11 C-53.88083398 6.20823771 -50.21857191 1.86341493 -46 -2 C-45.34 -2 -44.68 -2 -44 -2 C-44 -2.66 -44 -3.32 -44 -4 C-28.97945089 -11.32294344 -13.20625638 -10.95954886 0 0 Z " fill="#DC4A0E" transform="translate(124,133)"/>
<path d="M0 0 C0.78117188 0.00515625 1.56234375 0.0103125 2.3671875 0.015625 C6.67440299 0.07363464 10.76090581 0.4076159 15 1.25 C15 1.91 15 2.57 15 3.25 C15.721875 3.476875 16.44375 3.70375 17.1875 3.9375 C20.56218281 5.51235198 22.48030013 7.53137646 25 10.25 C25.51046875 10.72824219 26.0209375 11.20648438 26.546875 11.69921875 C31.97036635 17.48719205 31.96330067 26.80003567 32 34.25 C31.64624205 42.28535905 27.55433339 47.65655159 22 53.25 C13.0810751 60.37182809 3.69202429 61.08522709 -7.3984375 60.01953125 C-8.93839903 59.80267952 -10.47108066 59.53445011 -12 59.25 C-12 58.59 -12 57.93 -12 57.25 C-12.70125 57.023125 -13.4025 56.79625 -14.125 56.5625 C-21.36238018 53.25847861 -24.48038152 48.66976928 -27.796875 41.57421875 C-30.59963973 33.83021619 -31.08605439 25.92693862 -27.9375 18.23828125 C-27.628125 17.58214844 -27.31875 16.92601563 -27 16.25 C-26.731875 15.62480469 -26.46375 14.99960938 -26.1875 14.35546875 C-21.26574217 4.27025962 -10.67550019 -0.28186139 0 0 Z " fill="#090909" transform="translate(943,-0.25)"/>
<path d="M0 0 C1.99609375 1.2890625 1.99609375 1.2890625 3.99609375 3.2890625 C3.97265625 5.671875 3.97265625 5.671875 3.62109375 8.4140625 C3.51023438 9.32414063 3.399375 10.23421875 3.28515625 11.171875 C3.14207031 12.21988281 3.14207031 12.21988281 2.99609375 13.2890625 C3.65609375 13.2890625 4.31609375 13.2890625 4.99609375 13.2890625 C5.32609375 12.6290625 5.65609375 11.9690625 5.99609375 11.2890625 C8.453125 12.34765625 8.453125 12.34765625 10.99609375 14.2890625 C12.48566768 21.15441719 11.95772751 28.61557461 8.62109375 34.8515625 C4.96966475 39.91453929 0.9627638 43.32312121 -5.00390625 45.2890625 C-11.97730361 46.24061174 -19.42240682 46.83679176 -25.69140625 43.1015625 C-27.46875 41.69921875 -27.46875 41.69921875 -29.00390625 40.2890625 C-29.91140625 39.5465625 -30.81890625 38.8040625 -31.75390625 38.0390625 C-36.55584632 32.17002463 -38.67769131 26.3066912 -38.32421875 18.70703125 C-37.25097875 10.60537806 -33.48933956 5.50638556 -27.56640625 0.0390625 C-18.73417948 -5.99270212 -9.00500409 -4.92753824 0 0 Z " fill="#B33601" transform="translate(113.00390625,138.7109375)"/>
<path d="M0 0 C2.5625 2.875 2.5625 2.875 4 5 C0.25 6.125 0.25 6.125 -2 5 C-2.33 5.66 -2.66 6.32 -3 7 C-3.66 7.66 -4.32 8.32 -5 9 C-5.34490322 13.05261287 -5.30163882 14.54754176 -3 18 C-4.65 18.33 -6.3 18.66 -8 19 C-7.86078125 18.00419922 -7.86078125 18.00419922 -7.71875 16.98828125 C-7.48654648 14.14793465 -7.43085653 11.79864531 -8 9 C-11.47706745 5.38514666 -16.45950242 3.17395127 -21.453125 2.83203125 C-27.05482436 2.79291324 -31.712403 3.11996551 -37 5 C-37.99 3.68 -38.98 2.36 -40 1 C-39.67 0.67 -39.34 0.34 -39 0 C-39.66 -0.66 -40.32 -1.32 -41 -2 C-41.99 -2 -42.98 -2 -44 -2 C-44 -2.66 -44 -3.32 -44 -4 C-28.97945089 -11.32294344 -13.20625638 -10.95954886 0 0 Z " fill="#DC490D" transform="translate(124,133)"/>
<path d="M0 0 C3.74458678 3.74458678 4.12581531 9.38181653 4.25 14.5 C3.93191226 25.4272495 -0.79322101 33.96958913 -8 42 C-11 38.375 -11 38.375 -11 35 C-10.01 35 -9.02 35 -8 35 C-8 34.01 -8 33.02 -8 32 C-8.66 32 -9.32 32 -10 32 C-10.33 32.66 -10.66 33.32 -11 34 C-11 33.34 -11 32.68 -11 32 C-11.66 32 -12.32 32 -13 32 C-11.94124926 28.59687262 -10.99097846 25.98646769 -9 23 C-8.70008931 20.41114829 -8.49134775 17.90850918 -8.375 15.3125 C-8.33632812 14.61060547 -8.29765625 13.90871094 -8.2578125 13.18554688 C-8.1637666 11.45745345 -8.0808032 9.72876325 -8 8 C-8.99 7.67 -9.98 7.34 -11 7 C-8.75812654 6.41877355 -6.68936432 5.97041565 -4.375 5.75 C-3.59125 5.5025 -2.8075 5.255 -2 5 C-0.62533375 2.52363988 -0.62533375 2.52363988 0 0 Z " fill="#DD531B" transform="translate(132,145)"/>
<path d="M0 0 C2.9375 2.4375 2.9375 2.4375 5 5 C5.33 5.33 5.66 5.66 6 6 C6.40038554 10.16400962 6.44184328 12.32250696 4.125 15.875 C1.29882359 18.70117641 -0.41072106 19.22109882 -4.3125 19.4375 C-8.2532569 19.38665152 -8.8479291 19.127243 -12.0625 16.4375 C-14.30625709 12.45664064 -14.73540053 10.49411434 -14 6 C-10.33964029 0.38744845 -6.68187222 -1.1904485 0 0 Z " fill="#050201" transform="translate(104,151)"/>
<path d="M0 0 C2.13093906 1.06546953 3.36587557 2.29159719 5 4 C4.07743626 8.05928044 3.35416746 9.71365184 0.0625 12.375 C-3 14 -3 14 -6 14 C-6 13.34 -6 12.68 -6 12 C-6.66 12 -7.32 12 -8 12 C-6.98733788 9.97467576 -5.97450448 7.95050869 -4.9375 5.9375 C-3.88388051 3.86589825 -3.88388051 3.86589825 -3 1 C-2.01 0.67 -1.02 0.34 0 0 Z " fill="#DA4305" transform="translate(83,130)"/>
<path d="M0 0 C1.53166168 4.08443115 0.63081652 7.79455657 0 12 C-1.32 11.67 -2.64 11.34 -4 11 C-3.91621094 11.56847656 -3.83242187 12.13695312 -3.74609375 12.72265625 C-3.08089803 17.76635545 -3.0431163 22.00294069 -4 27 C-3.34 27.33 -2.68 27.66 -2 28 C-2.66 29.32 -3.32 30.64 -4 32 C-7.31383597 22.67983632 -6.94434903 13.10608973 -3 4 C-2.04188401 2.63625826 -1.05154206 1.29307273 0 0 Z " fill="#E88D66" transform="translate(70,140)"/>
<path d="M0 0 C3.53600465 1.91135386 5.78972846 3.62642766 8 7 C4.25 8.125 4.25 8.125 2 7 C1.67 7.66 1.34 8.32 1 9 C0.34 9.66 -0.32 10.32 -1 11 C-1.34490322 15.05261287 -1.30163882 16.54754176 1 20 C-0.65 20.33 -2.3 20.66 -4 21 C-3.67 16.71 -3.34 12.42 -3 8 C-2.34 8 -1.68 8 -1 8 C-1.33 6.35 -1.66 4.7 -2 3 C-1.34 3 -0.68 3 0 3 C0 2.01 0 1.02 0 0 Z " fill="#E1825D" transform="translate(120,131)"/>
<path d="M0 0 C0.99 0.33 1.98 0.66 3 1 C3 6.28 3 11.56 3 17 C2.01 15.68 1.02 14.36 0 13 C-0.66 13 -1.32 13 -2 13 C-2 9.04 -2 5.08 -2 1 C-1.34 0.67 -0.68 0.34 0 0 Z " fill="#DA4403" transform="translate(131,151)"/>
<path d="M0 0 C2.5625 0.125 2.5625 0.125 4.5625 1.125 C4.2325 3.765 3.9025 6.405 3.5625 9.125 C2.9025 9.125 2.2425 9.125 1.5625 9.125 C1.2325 10.115 0.9025 11.105 0.5625 12.125 C-1.4175 10.805 -3.3975 9.485 -5.4375 8.125 C-4.1175 7.795 -2.7975 7.465 -1.4375 7.125 C-1.4375 5.805 -1.4375 4.485 -1.4375 3.125 C-2.0975 2.465 -2.7575 1.805 -3.4375 1.125 C-2.4375 0.125 -2.4375 0.125 0 0 Z " fill="#D94405" transform="translate(115.4375,129.875)"/>
<path d="M0 0 C0.66 0.33 1.32 0.66 2 1 C-4.93 7.93 -11.86 14.86 -19 22 C-19 17.56186101 -16.14612818 15.49864014 -13.25 12.4375 C-12.44175781 11.55288086 -12.44175781 11.55288086 -11.6171875 10.65039062 C-8.89003245 7.72701344 -6.6868228 5.66205152 -3 4 C-3 3.34 -3 2.68 -3 2 C-2.01 1.34 -1.02 0.68 0 0 Z " fill="#5F5F5F" transform="translate(39,80)"/>
<path d="M0 0 C0 0.33 0 0.66 0 1 C-0.763125 1.144375 -1.52625 1.28875 -2.3125 1.4375 C-5.08172908 1.9632594 -5.08172908 1.9632594 -8 3 C-9.56118428 3.06740865 -11.1250252 3.08514456 -12.6875 3.0625 C-13.89986328 3.04896484 -13.89986328 3.04896484 -15.13671875 3.03515625 C-16.05904297 3.01775391 -16.05904297 3.01775391 -17 3 C-16.67 3.99 -16.34 4.98 -16 6 C-18.31 6.66 -20.62 7.32 -23 8 C-23.33 7.01 -23.66 6.02 -24 5 C-15.88170647 1.04210179 -8.99270187 -0.1577667 0 0 Z " fill="#EB9876" transform="translate(104,124)"/>
<path d="M0 0 C2.1385485 2.1385485 2.42655063 3.13275314 3 6 C-1.625 8.125 -1.625 8.125 -5 7 C-5.33 7.66 -5.66 8.32 -6 9 C-8.475 8.01 -8.475 8.01 -11 7 C-8.75812654 6.41877355 -6.68936432 5.97041565 -4.375 5.75 C-3.59125 5.5025 -2.8075 5.255 -2 5 C-0.62533375 2.52363988 -0.62533375 2.52363988 0 0 Z " fill="#EB9A78" transform="translate(132,145)"/>
<path d="M0 0 C0.66 0.33 1.32 0.66 2 1 C-2.29 5.29 -6.58 9.58 -11 14 C-11.66 13.67 -12.32 13.34 -13 13 C-8.96476648 8.18876004 -4.95532767 3.86757281 0 0 Z " fill="#575757" transform="translate(1031,83)"/>
<path d="M0 0 C0.66 0.33 1.32 0.66 2 1 C-2.95 5.95 -7.9 10.9 -13 16 C-13 11.08924079 -9.30469813 8.39044878 -6 5 C-4.05397986 3.23549584 -2.07285289 1.6178364 0 0 Z " fill="#636363" transform="translate(249,83)"/>
<path d="M0 0 C-1.55500981 3.81684226 -4.03595495 6.19195732 -7 9 C-7.66 7.02 -8.32 5.04 -9 3 C-8.01 3.495 -8.01 3.495 -7 4 C-6.17649019 3.17649019 -5.39437963 2.31179503 -4.625 1.4375 C-3 0 -3 0 0 0 Z " fill="#E47143" transform="translate(130,178)"/>
<path d="M0 0 C0.66 0.33 1.32 0.66 2 1 C1.67 3.31 1.34 5.62 1 8 C0.05125 7.979375 -0.8975 7.95875 -1.875 7.9375 C-4.90666283 7.77448174 -4.90666283 7.77448174 -7 9 C-5.44499019 5.18315774 -2.96404505 2.80804268 0 0 Z " fill="#E47344" transform="translate(78,131)"/>
<path d="M0 0 C0.66 0.33 1.32 0.66 2 1 C-1.80411834 4.91939465 -5.81576108 8.49102731 -10 12 C-8.62968895 6.34746692 -4.32310587 3.4886459 0 0 Z " fill="#5D5D5D" transform="translate(1133,175)"/>
<path d="M0 0 C2.475 0.495 2.475 0.495 5 1 C4.67 2.32 4.34 3.64 4 5 C4.99 4.67 5.98 4.34 7 4 C6.34 5.32 5.68 6.64 5 8 C0 2.25 0 2.25 0 0 Z " fill="#E67E54" transform="translate(69,177)"/>
<path d="M0 0 C4.875 1.75 4.875 1.75 6 4 C2.94736336 4.98120464 1.05263664 4.98120464 -2 4 C-1.34 2.68 -0.68 1.36 0 0 Z " fill="#E47849" transform="translate(122,134)"/>
<path d="M0 0 C1.4540625 0.0309375 1.4540625 0.0309375 2.9375 0.0625 C0.58472731 2.78676311 -1.68746331 3.8766763 -5.0625 5.0625 C-3.9375 0.08035714 -3.9375 0.08035714 0 0 Z " fill="#E68154" transform="translate(120.0625,186.9375)"/>
<path d="M0 0 C0.66 0.33 1.32 0.66 2 1 C-0.31 3.31 -2.62 5.62 -5 8 C-5.66 7.67 -6.32 7.34 -7 7 C-4.66666667 4.66666667 -2.33333333 2.33333333 0 0 Z " fill="#707070" transform="translate(926,4)"/>
<path d="M0 0 C0 0.33 0 0.66 0 1 C-1.1446875 1.2165625 -1.1446875 1.2165625 -2.3125 1.4375 C-5.08172908 1.9632594 -5.08172908 1.9632594 -8 3 C-10.1875 2.0625 -10.1875 2.0625 -12 1 C-8.0186217 -0.3271261 -4.14954773 -0.06915913 0 0 Z " fill="#F1AE95" transform="translate(104,124)"/>
<path d="" fill="#FFFFFF" transform="translate(0,0)"/>
<path d="" fill="#FFFFFF" transform="translate(0,0)"/>
<path d="" fill="#FFFFFF" transform="translate(0,0)"/>
<path d="" fill="#FFFFFF" transform="translate(0,0)"/>
<path d="" fill="#FFFFFF" transform="translate(0,0)"/>
<path d="" fill="#FFFFFF" transform="translate(0,0)"/>
<path d="" fill="#FFFFFF" transform="translate(0,0)"/>
<path d="" fill="#FFFFFF" transform="translate(0,0)"/>
<path d="" fill="#FFFFFF" transform="translate(0,0)"/>
<path d="" fill="#FFFFFF" transform="translate(0,0)"/>
<path d="" fill="#FFFFFF" transform="translate(0,0)"/>
<path d="" fill="#FFFFFF" transform="translate(0,0)"/>
<path d="" fill="#FFFFFF" transform="translate(0,0)"/>
<path d="" fill="#FFFFFF" transform="translate(0,0)"/>
<path d="" fill="#FFFFFF" transform="translate(0,0)"/>
<path d="" fill="#FFFFFF" transform="translate(0,0)"/>
<path d="" fill="#FFFFFF" transform="translate(0,0)"/>
<path d="" fill="#FFFFFF" transform="translate(0,0)"/>
<path d="" fill="#FFFFFF" transform="translate(0,0)"/>
<path d="" fill="#FFFFFF" transform="translate(0,0)"/>
<path d="" fill="#FFFFFF" transform="translate(0,0)"/>
<path d="" fill="#FFFFFF" transform="translate(0,0)"/>
<path d="" fill="#FFFFFF" transform="translate(0,0)"/>
<path d="" fill="#FFFFFF" transform="translate(0,0)"/>
<path d="" fill="#FFFFFF" transform="translate(0,0)"/>
<path d="" fill="#FFFFFF" transform="translate(0,0)"/>
<path d="" fill="#FFFFFF" transform="translate(0,0)"/>
<path d="" fill="#FFFFFF" transform="translate(0,0)"/>
<path d="" fill="#FFFFFF" transform="translate(0,0)"/>
<path d="" fill="#FFFFFF" transform="translate(0,0)"/>
<path d="" fill="#FFFFFF" transform="translate(0,0)"/>
<path d="" fill="#FFFFFF" transform="translate(0,0)"/>
<path d="" fill="#FFFFFF" transform="translate(0,0)"/>
<path d="" fill="#FFFFFF" transform="translate(0,0)"/>
<path d="" fill="#FFFFFF" transform="translate(0,0)"/>
<path d="" fill="#FFFFFF" transform="translate(0,0)"/>
<path d="" fill="#FFFFFF" transform="translate(0,0)"/>
<path d="" fill="#FFFFFF" transform="translate(0,0)"/>
<path d="" fill="#FFFFFF" transform="translate(0,0)"/>
<path d="" fill="#FFFFFF" transform="translate(0,0)"/>
<path d="" fill="#FFFFFF" transform="translate(0,0)"/>
<path d="" fill="#FFFFFF" transform="translate(0,0)"/>
<path d="" fill="#FFFFFF" transform="translate(0,0)"/>
<path d="" fill="#FFFFFF" transform="translate(0,0)"/>
<path d="" fill="#FFFFFF" transform="translate(0,0)"/>
<path d="" fill="#FFFFFF" transform="translate(0,0)"/>
<path d="" fill="#FFFFFF" transform="translate(0,0)"/>
<path d="" fill="#FFFFFF" transform="translate(0,0)"/>
<path d="" fill="#FFFFFF" transform="translate(0,0)"/>
<path d="" fill="#FFFFFF" transform="translate(0,0)"/>
<path d="" fill="#FFFFFF" transform="translate(0,0)"/>
</svg>
