<svg xmlns="http://www.w3.org/2000/svg" xmlns:xlink="http://www.w3.org/1999/xlink" width="500" zoomAndPan="magnify" viewBox="0 0 375 374.999991" height="500" preserveAspectRatio="xMidYMid meet" version="1.0"><defs><clipPath id="cde48ca8c6"><path d="M 187.5 0 C 83.945312 0 0 83.945312 0 187.5 C 0 291.054688 83.945312 375 187.5 375 C 291.054688 375 375 291.054688 375 187.5 C 375 83.945312 291.054688 0 187.5 0 Z M 187.5 0 " clip-rule="nonzero"/></clipPath><clipPath id="b58cb080b8"><path d="M 78.375 119.035156 L 296.503906 119.035156 L 296.503906 337.164062 L 78.375 337.164062 Z M 78.375 119.035156 " clip-rule="nonzero"/></clipPath><clipPath id="f8fddf4186"><path d="M 187.5 119.035156 C 127.230469 119.035156 78.375 167.894531 78.375 228.164062 C 78.375 288.429688 127.230469 337.289062 187.5 337.289062 C 247.769531 337.289062 296.625 288.429688 296.625 228.164062 C 296.625 167.894531 247.769531 119.035156 187.5 119.035156 Z M 187.5 119.035156 " clip-rule="nonzero"/></clipPath><clipPath id="e5f7e022e9"><path d="M 67.585938 119.035156 L 307.414062 119.035156 L 307.414062 256.164062 L 67.585938 256.164062 Z M 67.585938 119.035156 " clip-rule="nonzero"/></clipPath><clipPath id="30e81d2604"><path d="M 76.960938 37.910156 L 295.089844 37.910156 L 295.089844 256.039062 L 76.960938 256.039062 Z M 76.960938 37.910156 " clip-rule="nonzero"/></clipPath><clipPath id="2079fe4038"><path d="M 186.085938 37.910156 C 125.816406 37.910156 76.960938 86.769531 76.960938 147.035156 C 76.960938 207.304688 125.816406 256.160156 186.085938 256.160156 C 246.355469 256.160156 295.210938 207.304688 295.210938 147.035156 C 295.210938 86.769531 246.355469 37.910156 186.085938 37.910156 Z M 186.085938 37.910156 " clip-rule="nonzero"/></clipPath><clipPath id="b932c5f402"><path d="M 186.121094 37.5 L 295.246094 37.5 L 295.246094 73.585938 L 186.121094 73.585938 Z M 186.121094 37.5 " clip-rule="nonzero"/></clipPath><clipPath id="6486fb64ad"><path d="M 259.457031 37.910156 L 295.210938 37.910156 L 295.210938 146.625 L 259.457031 146.625 Z M 259.457031 37.910156 " clip-rule="nonzero"/></clipPath><clipPath id="68d845b8c1"><path d="M 153.386719 113.277344 L 218.855469 113.277344 L 218.855469 178.742188 L 153.386719 178.742188 Z M 153.386719 113.277344 " clip-rule="nonzero"/></clipPath><clipPath id="615d675e71"><path d="M 186.121094 113.277344 C 168.042969 113.277344 153.386719 127.929688 153.386719 146.007812 C 153.386719 164.089844 168.042969 178.742188 186.121094 178.742188 C 204.199219 178.742188 218.855469 164.089844 218.855469 146.007812 C 218.855469 127.929688 204.199219 113.277344 186.121094 113.277344 Z M 186.121094 113.277344 " clip-rule="nonzero"/></clipPath></defs><g clip-path="url(#cde48ca8c6)"><rect x="-37.5" width="450" fill="#ffffff" y="-37.499999" height="449.999989" fill-opacity="1"/></g><g clip-path="url(#b58cb080b8)"><g clip-path="url(#f8fddf4186)"><path stroke-linecap="butt" transform="matrix(0.651131, 0, 0, 0.651131, 78.373967, 119.036858)" fill="none" stroke-linejoin="miter" d="M 167.594646 -0.0026132 C 75.033316 -0.0026132 0.00158593 75.035116 0.00158593 167.596446 C 0.00158593 260.151777 75.033316 335.189506 167.594646 335.189506 C 260.155976 335.189506 335.187706 260.151777 335.187706 167.596446 C 335.187706 75.035116 260.155976 -0.0026132 167.594646 -0.0026132 Z M 167.594646 -0.0026132 " stroke="#000000" stroke-width="138.221069" stroke-opacity="1" stroke-miterlimit="4"/></g></g><g clip-path="url(#e5f7e022e9)"><path fill="#ffffff" d="M 67.585938 119.035156 L 307.554688 119.035156 L 307.554688 256.164062 L 67.585938 256.164062 Z M 67.585938 119.035156 " fill-opacity="1" fill-rule="nonzero"/></g><g clip-path="url(#30e81d2604)"><g clip-path="url(#2079fe4038)"><path stroke-linecap="butt" transform="matrix(0.651131, 0, 0, 0.651131, 76.960809, 37.910842)" fill="none" stroke-linejoin="miter" d="M 167.593257 -0.00105352 C 75.031927 -0.00105352 0.000197278 75.036675 0.000197278 167.592006 C 0.000197278 260.153337 75.031927 335.185066 167.593257 335.185066 C 260.154587 335.185066 335.186317 260.153337 335.186317 167.592006 C 335.186317 75.036675 260.154587 -0.00105352 167.593257 -0.00105352 Z M 167.593257 -0.00105352 " stroke="#000000" stroke-width="138.221069" stroke-opacity="1" stroke-miterlimit="4"/></g></g><g clip-path="url(#b932c5f402)"><path fill="#000000" d="M 186.121094 37.5 L 295.222656 37.5 L 295.222656 73.585938 L 186.121094 73.585938 Z M 186.121094 37.5 " fill-opacity="1" fill-rule="nonzero"/></g><g clip-path="url(#6486fb64ad)"><path fill="#000000" d="M 259.457031 37.910156 L 295.210938 37.910156 L 295.210938 146.574219 L 259.457031 146.574219 Z M 259.457031 37.910156 " fill-opacity="1" fill-rule="nonzero"/></g><g clip-path="url(#68d845b8c1)"><g clip-path="url(#615d675e71)"><path fill="#db4404" d="M 153.386719 113.277344 L 218.855469 113.277344 L 218.855469 178.742188 L 153.386719 178.742188 Z M 153.386719 113.277344 " fill-opacity="1" fill-rule="nonzero"/></g></g></svg>