<?xml version="1.0" encoding="UTF-8"?>
<svg version="1.1" xmlns="http://www.w3.org/2000/svg" width="1000" height="999">
<path d="M0 0 C1.6431057 -0.00087453 3.28621113 -0.00263005 4.92931509 -0.00517833 C9.39682377 -0.00960725 13.86423482 -0.00171031 18.33173108 0.00837779 C23.16721396 0.017075 28.00269204 0.01408773 32.83818054 0.01257324 C41.20022367 0.01152833 49.5622354 0.01776359 57.92427063 0.02904892 C70.01412692 0.0453546 82.10396815 0.0505171 94.19383425 0.0530249 C113.81237758 0.05739408 133.43090421 0.07068202 153.04943848 0.08963013 C172.09859128 0.1080091 191.14773953 0.12215572 210.19689941 0.13064575 C211.96038893 0.13143392 211.96038893 0.13143392 213.7595045 0.13223802 C219.65788246 0.13484823 225.55626046 0.13737561 231.45463848 0.13986182 C280.32983726 0.16057009 329.20501791 0.19577437 378.0802002 0.24050903 C379.46311656 3.00634176 379.20428379 5.23056811 379.20324802 8.3275013 C379.20523907 9.63427334 379.20723012 10.94104538 379.2092815 12.28741658 C379.20642808 13.75144603 379.20348247 15.2154753 379.20045471 16.67950439 C379.2008904 18.22390602 379.20176526 19.76830758 379.20304388 21.31270874 C379.20528933 25.57238801 379.20126686 29.83204234 379.19626582 34.09171844 C379.19196223 38.67931987 379.19340768 43.26691982 379.19416809 47.85452271 C379.19469338 55.80809998 379.19154602 63.76166908 379.18593025 71.71524429 C379.17781598 83.21489238 379.17520011 94.71453649 379.17394226 106.21418713 C379.17175163 124.869936 379.16509123 143.5256805 379.15563965 162.181427 C379.14646583 180.30772886 379.13938485 198.43402954 379.13513184 216.56033325 C379.13486911 217.67694415 379.13460639 218.79355505 379.1343357 219.94400264 C379.1330307 225.54550402 379.13176699 231.1470054 379.1305238 236.74850678 C379.12015083 283.24584389 379.10253221 329.74317624 379.0802002 376.24050903 C378.4202002 376.24050903 377.7602002 376.24050903 377.0802002 376.24050903 C377.2452002 377.02425903 377.4102002 377.80800903 377.5802002 378.61550903 C378.62912693 386.22022788 378.09410673 393.66469054 377.0802002 401.24050903 C376.93453613 402.3761731 376.78887207 403.51183716 376.63879395 404.68191528 C375.67922593 412.04867759 374.62039191 419.39300239 373.4473877 426.72879028 C373.0319828 429.14726716 373.0319828 429.14726716 373.0802002 431.24050903 C372.4202002 431.24050903 371.7602002 431.24050903 371.0802002 431.24050903 C371.2864502 431.92113403 371.4927002 432.60175903 371.7052002 433.30300903 C372.18852088 437.08902107 371.26423243 439.62609486 370.0802002 443.24050903 C368.64234316 448.00341047 367.54293272 452.72853245 366.6427002 457.61550903 C365.40489119 463.39195104 363.53703095 468.96443824 361.6427002 474.55300903 C360.1656563 478.92687421 358.73888514 483.30534358 357.4552002 487.74050903 C355.60901476 493.99072342 352.9117285 499.70955715 349.84973145 505.44363403 C348.88336114 507.37434621 348.88336114 507.37434621 349.0802002 510.24050903 C348.4202002 510.24050903 347.7602002 510.24050903 347.0802002 510.24050903 C346.94484863 510.8192981 346.80949707 511.39808716 346.67004395 511.99441528 C346.11084022 514.12383343 345.42816915 516.12276644 344.6427002 518.17800903 C344.37973145 518.86765747 344.1167627 519.55730591 343.8458252 520.26785278 C342.94102678 522.59909359 342.02139703 524.92371682 341.0802002 527.24050903 C340.4202002 527.24050903 339.7602002 527.24050903 339.0802002 527.24050903 C338.7502002 529.22050903 338.4202002 531.20050903 338.0802002 533.24050903 C337.4202002 533.24050903 336.7602002 533.24050903 336.0802002 533.24050903 C335.8945752 534.35425903 335.8945752 534.35425903 335.7052002 535.49050903 C335.12533318 538.04192388 334.3431128 539.96726634 333.0802002 542.24050903 C332.4202002 542.24050903 331.7602002 542.24050903 331.0802002 542.24050903 C330.4202002 544.55050903 329.7602002 546.86050903 329.0802002 549.24050903 C328.4202002 549.24050903 327.7602002 549.24050903 327.0802002 549.24050903 C326.9873877 550.29238403 326.9873877 550.29238403 326.8927002 551.36550903 C326.08641597 554.21851475 325.40518615 555.25793337 323.5177002 557.42800903 C320.86189002 559.87211061 320.86189002 559.87211061 321.0802002 562.24050903 C319.0802002 564.24050903 319.0802002 564.24050903 317.0802002 565.24050903 C317.0802002 566.23050903 317.0802002 567.22050903 317.0802002 568.24050903 C315.0802002 570.24050903 315.0802002 570.24050903 313.0802002 571.24050903 C311.77384745 573.5458374 310.92162945 575.71622126 310.0802002 578.24050903 C309.4202002 578.90050903 308.7602002 579.56050903 308.0802002 580.24050903 C307.06933535 581.35575666 306.07032899 582.48181156 305.0802002 583.61550903 C304.5645752 584.20074341 304.0489502 584.78597778 303.5177002 585.38894653 C302.06712731 587.25734748 301.06314102 589.09505166 300.0802002 591.24050903 C299.4202002 591.24050903 298.7602002 591.24050903 298.0802002 591.24050903 C298.0802002 591.90050903 298.0802002 592.56050903 298.0802002 593.24050903 C297.4202002 593.24050903 296.7602002 593.24050903 296.0802002 593.24050903 C295.8120752 594.16863403 295.5439502 595.09675903 295.2677002 596.05300903 C294.17042775 598.99831928 293.5466285 600.3906878 291.0802002 602.24050903 C290.4202002 602.24050903 289.7602002 602.24050903 289.0802002 602.24050903 C289.0802002 602.90050903 289.0802002 603.56050903 289.0802002 604.24050903 C287.0802002 606.24050903 287.0802002 606.24050903 285.0802002 607.24050903 C285.0802002 607.90050903 285.0802002 608.56050903 285.0802002 609.24050903 C284.4202002 609.24050903 283.7602002 609.24050903 283.0802002 609.24050903 C283.0802002 609.90050903 283.0802002 610.56050903 283.0802002 611.24050903 C282.4202002 611.24050903 281.7602002 611.24050903 281.0802002 611.24050903 C280.7502002 612.23050903 280.4202002 613.22050903 280.0802002 614.24050903 C279.4202002 614.90050903 278.7602002 615.56050903 278.0802002 616.24050903 C277.3170752 617.20988403 276.5539502 618.17925903 275.7677002 619.17800903 C273.51825291 621.92956509 271.17331627 623.47301413 268.0802002 625.24050903 C268.0802002 625.90050903 268.0802002 626.56050903 268.0802002 627.24050903 C266.60868968 628.51581815 265.13157772 629.78626643 263.60754395 630.99832153 C261.9823391 632.26940902 261.9823391 632.26940902 260.3302002 634.05300903 C259.0802002 635.24050903 259.0802002 635.24050903 257.0802002 635.24050903 C257.0802002 635.90050903 257.0802002 636.56050903 257.0802002 637.24050903 C255.4708252 638.60769653 255.4708252 638.60769653 253.3302002 640.11550903 C250.90585529 641.86309335 248.82687432 643.4938349 246.7052002 645.61550903 C246.1689502 646.15175903 245.6327002 646.68800903 245.0802002 647.24050903 C244.4202002 647.24050903 243.7602002 647.24050903 243.0802002 647.24050903 C242.7502002 647.90050903 242.4202002 648.56050903 242.0802002 649.24050903 C241.0902002 649.57050903 240.1002002 649.90050903 239.0802002 650.24050903 C238.7502002 650.90050903 238.4202002 651.56050903 238.0802002 652.24050903 C237.00870702 653.27544207 235.89910109 654.27142904 234.7677002 655.24050903 C233.87631348 656.01394653 233.87631348 656.01394653 232.96691895 656.80300903 C231.0802002 658.24050903 231.0802002 658.24050903 229.00598145 659.27175903 C226.80784966 660.25125917 226.80784966 660.25125917 224.5802002 662.74050903 C222.38108315 664.93962607 220.95381845 666.18684901 218.0802002 667.24050903 C217.0902002 667.24050903 216.1002002 667.24050903 215.0802002 667.24050903 C215.0802002 667.90050903 215.0802002 668.56050903 215.0802002 669.24050903 C214.1211377 669.42613403 214.1211377 669.42613403 213.1427002 669.61550903 C212.4620752 669.82175903 211.7814502 670.02800903 211.0802002 670.24050903 C210.7502002 670.90050903 210.4202002 671.56050903 210.0802002 672.24050903 C207.67392225 673.86637251 205.67822395 675.10761487 202.8302002 675.74050903 C202.2527002 675.90550903 201.6752002 676.07050903 201.0802002 676.24050903 C200.7502002 677.23050903 200.4202002 678.22050903 200.0802002 679.24050903 C199.0902002 679.24050903 198.1002002 679.24050903 197.0802002 679.24050903 C197.0802002 679.90050903 197.0802002 680.56050903 197.0802002 681.24050903 C196.0902002 681.24050903 195.1002002 681.24050903 194.0802002 681.24050903 C193.06000446 682.21989694 192.05870214 683.21946352 191.0802002 684.24050903 C190.4202002 684.24050903 189.7602002 684.24050903 189.0802002 684.24050903 C188.3995752 684.98300903 188.3995752 684.98300903 187.7052002 685.74050903 C186.0802002 687.24050903 186.0802002 687.24050903 182.0802002 687.24050903 C182.0802002 687.90050903 182.0802002 688.56050903 182.0802002 689.24050903 C178.99210324 691.00513586 177.84707884 691.24050903 174.0802002 691.24050903 C173.7502002 691.90050903 173.4202002 692.56050903 173.0802002 693.24050903 C172.0902002 693.24050903 171.1002002 693.24050903 170.0802002 693.24050903 C169.7502002 693.90050903 169.4202002 694.56050903 169.0802002 695.24050903 C166.92785645 696.38894653 166.92785645 696.38894653 164.1427002 697.61550903 C163.14754395 698.05379028 162.1523877 698.49207153 161.1270752 698.94363403 C154.82381059 701.62656204 148.46249237 704.14483854 142.0333252 706.51004028 C140.64092473 707.03079806 139.25616136 707.57217006 137.8770752 708.12722778 C135.96583266 708.88691231 134.02453817 709.57004766 132.0802002 710.24050903 C131.4202002 709.91050903 130.7602002 709.58050903 130.0802002 709.24050903 C129.7502002 709.90050903 129.4202002 710.56050903 129.0802002 711.24050903 C124.98825219 712.65695257 121.41311932 713.50311019 117.0802002 713.24050903 C116.7502002 713.90050903 116.4202002 714.56050903 116.0802002 715.24050903 C113.7677002 715.80300903 113.7677002 715.80300903 111.0802002 716.24050903 C109.74488627 716.56581753 108.41206757 716.90136574 107.0802002 717.24050903 C97.1874955 719.65920996 87.30327501 721.84296391 77.2755127 723.62722778 C74.07704603 724.16837101 74.07704603 724.16837101 71.0802002 725.24050903 C69.12504409 725.44103786 67.16583911 725.60360657 65.2052002 725.74050903 C62.32977904 725.94229297 59.55374022 726.14320452 56.72926331 726.72358704 C47.09908775 728.60276068 37.1349174 728.40009684 27.36535645 728.40847778 C25.97875436 728.41170346 24.59215258 728.41506843 23.20555115 728.41856384 C20.31878878 728.4245024 17.43205612 728.4264091 14.54528809 728.42581177 C10.88339667 728.42571014 7.2216991 728.43938681 3.55985355 728.45658398 C0.70189065 728.46780853 -2.1560268 728.46972784 -5.01400948 728.46920204 C-7.00833202 728.47092273 -9.00264039 728.48168796 -10.99693298 728.49275208 C-18.16040998 728.4750015 -24.97277096 727.96676285 -32.03041077 726.71873474 C-34.93271194 726.23837193 -37.79959282 725.95757434 -40.7322998 725.74050903 C-43.96402243 725.4782243 -46.97280193 725.06987034 -50.1072998 724.24050903 C-52.85648271 723.51941188 -55.19961042 723.0390351 -57.9822998 722.74050903 C-61.81351576 722.25400542 -65.21447734 721.29917259 -68.9197998 720.24050903 C-70.31280097 720.05162752 -71.70902256 719.88524753 -73.1072998 719.74050903 C-76.47246028 719.29917651 -78.04635705 718.77301184 -80.9197998 717.24050903 C-82.91090381 716.85760442 -84.91080493 716.51446288 -86.9197998 716.24050903 C-86.9197998 715.58050903 -86.9197998 714.92050903 -86.9197998 714.24050903 C-87.4766748 714.44675903 -88.0335498 714.65300903 -88.6072998 714.86550903 C-91.64424858 715.35798721 -93.13412474 714.50069537 -95.9197998 713.24050903 C-96.9922998 712.91050903 -98.0647998 712.58050903 -99.1697998 712.24050903 C-101.9197998 711.24050903 -101.9197998 711.24050903 -102.9197998 709.24050903 C-105.39841586 708.58501247 -105.39841586 708.58501247 -108.2947998 708.17800903 C-111.31460466 707.69595575 -114.01332068 707.20933541 -116.9197998 706.24050903 C-116.9197998 705.58050903 -116.9197998 704.92050903 -116.9197998 704.24050903 C-117.9097998 704.57050903 -118.8997998 704.90050903 -119.9197998 705.24050903 C-122.28502539 704.31847194 -124.62381787 703.32351938 -126.9197998 702.24050903 C-126.9197998 701.58050903 -126.9197998 700.92050903 -126.9197998 700.24050903 C-128.7141748 700.11675903 -128.7141748 700.11675903 -130.5447998 699.99050903 C-134.86006903 699.46629499 -137.38085118 697.77932 -140.9197998 695.24050903 C-141.8066748 694.95175903 -142.6935498 694.66300903 -143.6072998 694.36550903 C-150.97426691 691.86352021 -157.7160798 687.52549711 -164.16589355 683.22097778 C-165.90856109 682.14428252 -165.90856109 682.14428252 -168.01745605 681.72879028 C-169.9197998 681.24050903 -169.9197998 681.24050903 -171.9197998 679.24050903 C-173.17355888 678.40190197 -174.44675831 677.59203164 -175.7322998 676.80300903 C-176.44515137 676.36472778 -177.15800293 675.92644653 -177.89245605 675.47488403 C-178.56147949 675.06754028 -179.23050293 674.66019653 -179.9197998 674.24050903 C-180.8272998 673.68363403 -181.7347998 673.12675903 -182.6697998 672.55300903 C-184.71851723 671.35792387 -186.78342136 670.26913569 -188.9197998 669.24050903 C-188.9197998 668.58050903 -188.9197998 667.92050903 -188.9197998 667.24050903 C-189.9097998 667.24050903 -190.8997998 667.24050903 -191.9197998 667.24050903 C-193.0493236 666.07675725 -194.17521365 664.90927081 -195.28308105 663.72488403 C-197.26396647 661.92837697 -199.35380278 660.70124685 -201.6697998 659.36550903 C-206.72630906 656.43485953 -211.64181333 653.24982969 -215.9197998 649.24050903 C-215.9197998 648.58050903 -215.9197998 647.92050903 -215.9197998 647.24050903 C-216.9097998 647.24050903 -217.8997998 647.24050903 -218.9197998 647.24050903 C-218.9197998 646.58050903 -218.9197998 645.92050903 -218.9197998 645.24050903 C-219.5797998 645.24050903 -220.2397998 645.24050903 -220.9197998 645.24050903 C-220.9197998 644.58050903 -220.9197998 643.92050903 -220.9197998 643.24050903 C-221.9097998 642.91050903 -222.8997998 642.58050903 -223.9197998 642.24050903 C-224.5797998 641.91050903 -225.2397998 641.58050903 -225.9197998 641.24050903 C-225.9197998 640.58050903 -225.9197998 639.92050903 -225.9197998 639.24050903 C-226.5797998 639.24050903 -227.2397998 639.24050903 -227.9197998 639.24050903 C-229.5447998 637.86550903 -229.5447998 637.86550903 -230.9197998 636.24050903 C-230.9197998 635.58050903 -230.9197998 634.92050903 -230.9197998 634.24050903 C-231.9097998 633.91050903 -232.8997998 633.58050903 -233.9197998 633.24050903 C-235.29117591 632.16220928 -236.62163105 631.03091053 -237.9197998 629.86550903 C-238.9407373 628.95671997 -238.9407373 628.95671997 -239.9822998 628.02957153 C-240.6216748 627.43918091 -241.2610498 626.84879028 -241.9197998 626.24050903 C-242.4972998 625.71199341 -243.0747998 625.18347778 -243.6697998 624.63894653 C-244.9197998 623.24050903 -244.9197998 623.24050903 -244.9197998 621.24050903 C-245.5797998 621.24050903 -246.2397998 621.24050903 -246.9197998 621.24050903 C-246.9197998 620.58050903 -246.9197998 619.92050903 -246.9197998 619.24050903 C-247.9097998 618.91050903 -248.8997998 618.58050903 -249.9197998 618.24050903 C-251.29848261 616.61115662 -252.63254073 614.94301297 -253.9197998 613.24050903 C-255.44077583 611.71953301 -256.98719004 610.22394691 -258.5447998 608.74050903 C-260.9197998 606.24050903 -260.9197998 606.24050903 -260.9197998 604.24050903 C-262.2397998 603.58050903 -263.5597998 602.92050903 -264.9197998 602.24050903 C-264.9197998 601.58050903 -264.9197998 600.92050903 -264.9197998 600.24050903 C-265.5797998 599.91050903 -266.2397998 599.58050903 -266.9197998 599.24050903 C-266.9197998 598.58050903 -266.9197998 597.92050903 -266.9197998 597.24050903 C-267.5797998 597.24050903 -268.2397998 597.24050903 -268.9197998 597.24050903 C-268.9197998 596.25050903 -268.9197998 595.26050903 -268.9197998 594.24050903 C-269.5797998 594.24050903 -270.2397998 594.24050903 -270.9197998 594.24050903 C-272.25183105 592.70144653 -272.25183105 592.70144653 -273.7322998 590.61550903 C-275.6142939 588.0128489 -277.51077436 585.48624917 -279.6072998 583.05300903 C-284.9197998 576.59186038 -284.9197998 576.59186038 -284.9197998 573.24050903 C-285.5797998 573.24050903 -286.2397998 573.24050903 -286.9197998 573.24050903 C-287.5797998 571.26050903 -288.2397998 569.28050903 -288.9197998 567.24050903 C-289.5797998 567.24050903 -290.2397998 567.24050903 -290.9197998 567.24050903 C-291.5797998 565.26050903 -292.2397998 563.28050903 -292.9197998 561.24050903 C-293.5797998 561.24050903 -294.2397998 561.24050903 -294.9197998 561.24050903 C-294.9197998 560.25050903 -294.9197998 559.26050903 -294.9197998 558.24050903 C-295.5797998 557.91050903 -296.2397998 557.58050903 -296.9197998 557.24050903 C-300.9197998 551.82874433 -300.9197998 551.82874433 -300.9197998 548.24050903 C-301.5797998 548.24050903 -302.2397998 548.24050903 -302.9197998 548.24050903 C-302.9197998 546.92050903 -302.9197998 545.60050903 -302.9197998 544.24050903 C-303.9097998 543.91050903 -304.8997998 543.58050903 -305.9197998 543.24050903 C-306.97027625 540.92946085 -307.96987418 538.59467253 -308.9197998 536.24050903 C-309.5797998 535.58050903 -310.2397998 534.92050903 -310.9197998 534.24050903 C-311.68045022 532.59705997 -312.38323078 530.92628491 -313.0447998 529.24050903 C-313.39800293 528.35363403 -313.75120605 527.46675903 -314.1151123 526.55300903 C-314.9197998 524.24050903 -314.9197998 524.24050903 -314.9197998 522.24050903 C-315.5797998 521.91050903 -316.2397998 521.58050903 -316.9197998 521.24050903 C-317.9901123 519.06082153 -317.9901123 519.06082153 -319.0447998 516.36550903 C-319.57460449 515.03906372 -319.57460449 515.03906372 -320.1151123 513.68582153 C-320.9197998 511.24050903 -320.9197998 511.24050903 -320.9197998 508.24050903 C-321.5797998 507.91050903 -322.2397998 507.58050903 -322.9197998 507.24050903 C-324.44283152 504.59675587 -325.43417728 501.89026114 -326.3572998 498.99050903 C-327.51828117 495.42629623 -328.76814352 491.91592031 -330.0994873 488.41238403 C-331.07865296 485.8199264 -332.03243457 483.21884338 -332.9822998 480.61550903 C-333.30327637 479.73636841 -333.62425293 478.85722778 -333.95495605 477.95144653 C-335.76157693 472.87535387 -337.30536166 467.87783982 -338.4822998 462.61550903 C-339.26242558 459.14738512 -340.04855935 455.68674906 -340.9197998 452.24050903 C-344.80713136 436.34097277 -347.97711334 420.50609298 -349.9197998 404.24050903 C-350.09164795 403.00171997 -350.26349609 401.76293091 -350.44055176 400.48660278 C-351.20028145 393.58103071 -351.04320128 386.64231467 -351.01745605 379.70535278 C-351.01558749 378.21605985 -351.01416566 376.7267663 -351.01316833 375.23747253 C-351.00937769 371.34625507 -350.9995775 367.45507582 -350.98846436 363.56387329 C-350.9781754 359.5817415 -350.97365478 355.59960345 -350.96862793 351.61746216 C-350.95795162 343.82512716 -350.94091745 336.03282348 -350.9197998 328.24050903 C-350.2597998 328.24050903 -349.5997998 328.24050903 -348.9197998 328.24050903 C-349.08995605 327.66816528 -349.2601123 327.09582153 -349.4354248 326.50613403 C-351.2100863 318.20529802 -347.93758157 308.48408585 -346.31384277 300.26785278 C-345.9482576 298.38692386 -345.60682512 296.50134433 -345.26745605 294.61550903 C-343.36272906 284.33674558 -340.51442544 274.39703065 -337.53649902 264.38430786 C-336.60034088 261.12999089 -335.82662958 257.84786308 -335.0447998 254.55300903 C-333.02505414 246.51857959 -330.04241797 238.89976115 -326.9197998 231.24050903 C-326.2526619 229.55319528 -325.58599216 227.86569634 -324.9197998 226.17800903 C-323.31019943 222.14767109 -321.58454263 218.18161122 -319.8026123 214.22488403 C-318.77764076 211.92096569 -317.83005024 209.59198932 -316.9197998 207.24050903 C-316.2597998 207.24050903 -315.5997998 207.24050903 -314.9197998 207.24050903 C-314.7754248 206.29175903 -314.6310498 205.34300903 -314.4822998 204.36550903 C-313.9197998 201.24050903 -313.9197998 201.24050903 -312.9197998 199.24050903 C-312.2597998 199.24050903 -311.5997998 199.24050903 -310.9197998 199.24050903 C-310.9197998 197.92050903 -310.9197998 196.60050903 -310.9197998 195.24050903 C-310.2597998 195.24050903 -309.5997998 195.24050903 -308.9197998 195.24050903 C-308.9197998 193.92050903 -308.9197998 192.60050903 -308.9197998 191.24050903 C-308.2597998 191.24050903 -307.5997998 191.24050903 -306.9197998 191.24050903 C-306.6310498 190.35363403 -306.3422998 189.46675903 -306.0447998 188.55300903 C-305.08831233 185.73668479 -304.05181034 182.98967748 -302.9197998 180.24050903 C-302.2597998 180.24050903 -301.5997998 180.24050903 -300.9197998 180.24050903 C-300.8269873 179.25050903 -300.8269873 179.25050903 -300.7322998 178.24050903 C-299.61601486 174.11884154 -297.58218415 170.58300402 -294.9197998 167.24050903 C-294.2597998 167.24050903 -293.5997998 167.24050903 -292.9197998 167.24050903 C-292.7754248 166.62175903 -292.6310498 166.00300903 -292.4822998 165.36550903 C-291.9197998 163.24050903 -291.9197998 163.24050903 -290.9197998 161.24050903 C-290.2597998 161.24050903 -289.5997998 161.24050903 -288.9197998 161.24050903 C-288.9197998 160.25050903 -288.9197998 159.26050903 -288.9197998 158.24050903 C-288.2597998 158.24050903 -287.5997998 158.24050903 -286.9197998 158.24050903 C-286.6722998 157.29175903 -286.4247998 156.34300903 -286.1697998 155.36550903 C-284.9197998 152.24050903 -284.9197998 152.24050903 -282.7947998 150.86550903 C-282.1760498 150.65925903 -281.5572998 150.45300903 -280.9197998 150.24050903 C-280.9197998 149.25050903 -280.9197998 148.26050903 -280.9197998 147.24050903 C-280.2597998 147.24050903 -279.5997998 147.24050903 -278.9197998 147.24050903 C-278.5897998 145.92050903 -278.2597998 144.60050903 -277.9197998 143.24050903 C-277.2597998 143.24050903 -276.5997998 143.24050903 -275.9197998 143.24050903 C-275.8166748 142.64238403 -275.7135498 142.04425903 -275.6072998 141.42800903 C-274.80724845 138.88239108 -273.82496352 138.06837493 -271.9197998 136.24050903 C-267.45458645 131.20189396 -263.04228991 126.04767337 -258.9822998 120.67800903 C-257.02203699 118.3613348 -254.93095323 116.58651368 -252.5682373 114.69754028 C-249.96360139 112.3953384 -247.77533789 109.75716782 -245.53308105 107.10769653 C-244.05138349 105.39280201 -242.61569245 103.74485457 -240.9197998 102.24050903 C-240.2597998 102.24050903 -239.5997998 102.24050903 -238.9197998 102.24050903 C-238.9197998 101.58050903 -238.9197998 100.92050903 -238.9197998 100.24050903 C-238.2597998 100.24050903 -237.5997998 100.24050903 -236.9197998 100.24050903 C-236.4247998 98.75550903 -236.4247998 98.75550903 -235.9197998 97.24050903 C-233.15253569 94.24887215 -230.33659239 91.47909728 -226.9197998 89.24050903 C-226.2597998 89.24050903 -225.5997998 89.24050903 -224.9197998 89.24050903 C-224.4247998 87.75550903 -224.4247998 87.75550903 -223.9197998 86.24050903 C-221.91858806 83.87544061 -220.9518032 83.25117683 -217.9197998 82.24050903 C-216.9297998 80.75550903 -216.9297998 80.75550903 -215.9197998 79.24050903 C-214.9297998 79.24050903 -213.9397998 79.24050903 -212.9197998 79.24050903 C-212.9197998 78.58050903 -212.9197998 77.92050903 -212.9197998 77.24050903 C-212.2804248 77.13738403 -211.6410498 77.03425903 -210.9822998 76.92800903 C-210.3016748 76.70113403 -209.6210498 76.47425903 -208.9197998 76.24050903 C-208.5897998 75.25050903 -208.2597998 74.26050903 -207.9197998 73.24050903 C-206.28796874 72.18461834 -204.61186982 71.19689643 -202.9197998 70.24050903 C-201.08498132 68.92654225 -199.27453719 67.58475731 -197.47058105 66.22879028 C-195.9197998 65.24050903 -195.9197998 65.24050903 -193.9197998 65.24050903 C-193.5897998 64.25050903 -193.2597998 63.26050903 -192.9197998 62.24050903 C-191.19889183 61.20147026 -189.47210241 60.16862494 -187.69714355 59.22488403 C-185.77150232 58.21823025 -185.77150232 58.21823025 -183.6697998 56.49050903 C-181.9197998 55.24050903 -181.9197998 55.24050903 -178.9197998 55.24050903 C-178.9197998 54.58050903 -178.9197998 53.92050903 -178.9197998 53.24050903 C-177.9504248 52.95175903 -176.9810498 52.66300903 -175.9822998 52.36550903 C-172.81315777 51.59836222 -172.81315777 51.59836222 -171.9197998 49.24050903 C-164.49248478 44.01387994 -156.07263782 40.1747807 -147.9197998 36.24050903 C-146.88726074 35.73906372 -145.85472168 35.23761841 -144.79089355 34.72097778 C-140.18510239 32.54654304 -136.06975098 30.65807264 -130.9197998 30.24050903 C-130.9197998 29.58050903 -130.9197998 28.92050903 -130.9197998 28.24050903 C-129.48425955 27.73490995 -128.04627961 27.23623413 -126.6072998 26.74050903 C-125.80679199 26.46207153 -125.00628418 26.18363403 -124.18151855 25.89675903 C-121.9197998 25.24050903 -121.9197998 25.24050903 -118.9197998 25.24050903 C-118.5897998 24.58050903 -118.2597998 23.92050903 -117.9197998 23.24050903 C-115.78345175 22.35134219 -113.60865818 21.55367521 -111.4197998 20.80300903 C-110.46847168 20.47369385 -110.46847168 20.47369385 -109.4979248 20.13772583 C-107.64127003 19.49737805 -105.78059419 18.86872594 -103.9197998 18.24050903 C-102.57401855 17.78418091 -102.57401855 17.78418091 -101.2010498 17.31863403 C-99.73408705 16.82629722 -98.26545143 16.33890239 -96.7947998 15.85769653 C-95.16221928 15.32030544 -93.53994221 14.75180947 -91.9197998 14.17800903 C-88.66326401 13.1603416 -85.40361543 12.41338919 -82.0682373 11.70535278 C-80.00572784 11.25910074 -77.96652669 10.7537881 -75.9197998 10.24050903 C-73.10928349 9.5654462 -70.29566045 8.90360685 -67.4822998 8.24050903 C-66.7314209 8.06261841 -65.98054199 7.88472778 -65.20690918 7.70144653 C-60.27408183 6.53873965 -55.38010993 5.44546484 -50.3572998 4.74050903 C-47.14826257 4.33711359 -47.14826257 4.33711359 -44.97058105 3.73660278 C-42.85080005 3.22381766 -40.84203287 2.98909194 -38.6697998 2.80300903 C-34.29536431 2.41066089 -29.96715315 1.82839386 -25.61791229 1.2203846 C-17.05848666 0.10614022 -8.62001201 -0.03470226 0 0 Z M-8.9197998 121.24050903 C-8.9197998 121.57050903 -8.9197998 121.90050903 -8.9197998 122.24050903 C-10.2191748 122.19925903 -11.5185498 122.15800903 -12.8572998 122.11550903 C-17.0152556 122.10900206 -20.66148732 122.74070852 -24.68151855 123.74050903 C-26.8804946 124.23172881 -28.9894152 124.48402982 -31.2322998 124.67800903 C-36.94306243 125.23808383 -42.39284757 126.74652895 -47.9197998 128.24050903 C-49.1572998 128.57050903 -50.3947998 128.90050903 -51.6697998 129.24050903 C-54.24522244 130.03294677 -56.71936372 130.90349057 -59.2322998 131.86550903 C-62.9197998 133.24050903 -62.9197998 133.24050903 -64.9197998 133.24050903 C-64.9197998 133.90050903 -64.9197998 134.56050903 -64.9197998 135.24050903 C-65.9922998 135.38488403 -67.0647998 135.52925903 -68.1697998 135.67800903 C-70.8364293 136.07800346 -73.3337971 136.51642827 -75.9197998 137.24050903 C-75.9197998 137.90050903 -75.9197998 138.56050903 -75.9197998 139.24050903 C-76.6622998 139.19925903 -77.4047998 139.15800903 -78.1697998 139.11550903 C-81.12607814 139.24988532 -82.34541796 139.877601 -84.9197998 141.24050903 C-86.49941734 141.9570905 -88.08282469 142.66537295 -89.6697998 143.36550903 C-90.46901855 143.71871216 -91.2682373 144.07191528 -92.0916748 144.43582153 C-92.69495605 144.70136841 -93.2982373 144.96691528 -93.9197998 145.24050903 C-93.9197998 145.90050903 -93.9197998 146.56050903 -93.9197998 147.24050903 C-94.61589355 147.3449231 -95.3119873 147.44933716 -96.0291748 147.55691528 C-99.37215717 148.34748544 -102.10367402 149.63361809 -105.1697998 151.17800903 C-106.22683105 151.70265747 -107.2838623 152.22730591 -108.3729248 152.76785278 C-111.02314395 153.98849309 -111.02314395 153.98849309 -111.9197998 156.24050903 C-113.57677359 156.93091478 -115.24537591 157.59357253 -116.9197998 158.24050903 C-119.62326135 159.7494178 -121.72869369 161.04940292 -123.9197998 163.24050903 C-125.01164735 164.04908127 -126.11728231 164.83919974 -127.2322998 165.61550903 C-129.35084117 167.1094083 -131.39358413 168.61953649 -133.4197998 170.24050903 C-135.48055756 171.88911524 -137.55865757 173.37575824 -139.7322998 174.86550903 C-140.7841748 175.64925903 -141.8360498 176.43300903 -142.9197998 177.24050903 C-142.9197998 177.90050903 -142.9197998 178.56050903 -142.9197998 179.24050903 C-143.6416748 179.44675903 -144.3635498 179.65300903 -145.1072998 179.86550903 C-148.14609396 181.35114173 -149.55429848 183.06444679 -151.5838623 185.72097778 C-152.9197998 187.24050903 -152.9197998 187.24050903 -156.2322998 189.42800903 C-157.1191748 190.02613403 -158.0060498 190.62425903 -158.9197998 191.24050903 C-158.9197998 192.23050903 -158.9197998 193.22050903 -158.9197998 194.24050903 C-159.5797998 194.24050903 -160.2397998 194.24050903 -160.9197998 194.24050903 C-161.7860498 195.32332153 -161.7860498 195.32332153 -162.6697998 196.42800903 C-164.9197998 199.24050903 -164.9197998 199.24050903 -167.9197998 201.67800903 C-170.99067121 204.30104503 -172.7792236 206.8451123 -174.9197998 210.24050903 C-175.91442358 211.24585651 -176.9147494 212.24558508 -177.9197998 213.24050903 C-178.82234305 214.36477533 -179.69774764 215.51136356 -180.5447998 216.67800903 C-180.97019043 217.25421997 -181.39558105 217.83043091 -181.8338623 218.42410278 C-182.988361 220.35518873 -183.48525186 222.04362774 -183.9197998 224.24050903 C-184.5797998 224.24050903 -185.2397998 224.24050903 -185.9197998 224.24050903 C-185.9197998 224.90050903 -185.9197998 225.56050903 -185.9197998 226.24050903 C-186.5797998 226.24050903 -187.2397998 226.24050903 -187.9197998 226.24050903 C-188.39159668 227.11062622 -188.39159668 227.11062622 -188.8729248 227.99832153 C-190.83672757 231.58285309 -192.79214357 235.05449566 -195.1072998 238.42800903 C-196.96358575 241.30845274 -197.86521412 244.00142442 -198.9197998 247.24050903 C-199.9097998 247.73550903 -199.9097998 247.73550903 -200.9197998 248.24050903 C-202.28779811 250.70112937 -203.56225447 253.15060824 -204.7947998 255.67800903 C-205.15412598 256.40721558 -205.51345215 257.13642212 -205.88366699 257.88772583 C-208.49721643 263.24597694 -210.86757864 268.64100966 -212.9197998 274.24050903 C-213.42446777 275.57662231 -213.42446777 275.57662231 -213.93933105 276.93972778 C-215.90073175 282.20686 -217.63190189 287.49576268 -219.19714355 292.89285278 C-219.88853762 295.13894917 -220.68589488 297.30382839 -221.5447998 299.49050903 C-222.78766955 302.88015379 -223.35348751 305.69795694 -223.9197998 309.24050903 C-224.21350164 310.69638222 -224.51492261 312.15070983 -224.82214355 313.60379028 C-224.99036621 314.41009888 -225.15858887 315.21640747 -225.33190918 316.04714966 C-225.67337697 317.67578598 -226.01947626 319.30346054 -226.37097168 320.92996216 C-229.34012722 335.30157812 -230.27320806 349.54243615 -230.1697998 364.17800903 C-230.166698 364.96521332 -230.16359619 365.7524176 -230.16040039 366.56347656 C-230.08027732 383.92663069 -228.27918092 400.09976016 -224.4185791 417.03713989 C-224.08046441 418.53076942 -223.75147753 420.02648919 -223.43078613 421.5239563 C-222.37302074 426.44600716 -221.12264249 431.25231168 -219.6072998 436.05300903 C-219.3914624 436.74096558 -219.175625 437.42892212 -218.95324707 438.13772583 C-217.27725464 443.36602094 -215.29072067 448.40788034 -213.0994873 453.44363403 C-211.93703647 456.19964329 -210.94949161 458.9733735 -209.9822998 461.80300903 C-208.26323092 466.62192501 -206.03227662 470.94554971 -203.50183105 475.38504028 C-201.24204457 479.46381539 -199.28540748 483.68006064 -197.31433105 487.90457153 C-196.07979365 490.54966244 -196.07979365 490.54966244 -192.9197998 491.24050903 C-192.7960498 492.00363403 -192.6722998 492.76675903 -192.5447998 493.55300903 C-192.03877188 496.44318039 -192.03877188 496.44318039 -189.9197998 499.24050903 C-189.2597998 499.24050903 -188.5997998 499.24050903 -187.9197998 499.24050903 C-187.4866748 500.35425903 -187.4866748 500.35425903 -187.0447998 501.49050903 C-186.09677336 503.807907 -185.07134069 506.01968018 -183.9197998 508.24050903 C-183.2597998 508.24050903 -182.5997998 508.24050903 -181.9197998 508.24050903 C-181.5794873 509.01394653 -181.5794873 509.01394653 -181.2322998 509.80300903 C-179.43762363 513.13597908 -177.42014965 516.38754575 -174.9197998 519.24050903 C-174.2597998 519.24050903 -173.5997998 519.24050903 -172.9197998 519.24050903 C-172.5897998 520.56050903 -172.2597998 521.88050903 -171.9197998 523.24050903 C-171.2597998 523.24050903 -170.5997998 523.24050903 -169.9197998 523.24050903 C-169.6929248 523.77675903 -169.4660498 524.31300903 -169.2322998 524.86550903 C-167.46409891 528.06511065 -165.38309778 530.53088126 -162.9197998 533.24050903 C-162.2597998 533.24050903 -161.5997998 533.24050903 -160.9197998 533.24050903 C-160.6516748 533.83863403 -160.3835498 534.43675903 -160.1072998 535.05300903 C-158.92062574 537.23898757 -157.82380868 538.65383497 -155.9197998 540.24050903 C-155.2597998 540.24050903 -154.5997998 540.24050903 -153.9197998 540.24050903 C-153.9197998 540.90050903 -153.9197998 541.56050903 -153.9197998 542.24050903 C-152.22705696 543.8048369 -150.46410128 545.29379475 -148.6697998 546.74050903 C-147.69526855 547.53457153 -146.7207373 548.32863403 -145.7166748 549.14675903 C-143.47085219 550.82798937 -141.47321951 552.12186802 -138.9197998 553.24050903 C-138.9197998 553.90050903 -138.9197998 554.56050903 -138.9197998 555.24050903 C-136.75195263 557.08472459 -136.75195263 557.08472459 -133.9822998 558.99050903 C-132.97683105 559.7033606 -131.9713623 560.41621216 -130.9354248 561.15066528 C-126.96418441 563.90275545 -122.97269281 566.6102037 -118.9197998 569.24050903 C-118.18374512 569.72906372 -117.44769043 570.21761841 -116.68933105 570.72097778 C-115.62778809 571.41127075 -115.62778809 571.41127075 -114.5447998 572.11550903 C-113.60507324 572.73039185 -113.60507324 572.73039185 -112.6463623 573.35769653 C-110.79781357 574.46813555 -110.79781357 574.46813555 -107.9197998 574.24050903 C-107.5897998 574.90050903 -107.2597998 575.56050903 -106.9197998 576.24050903 C-100.97831839 580.24329278 -94.89239631 583.66601287 -87.95495605 585.53738403 C-85.9197998 586.24050903 -85.9197998 586.24050903 -83.58776855 587.66238403 C-80.53568247 589.46771753 -77.51893381 590.57947591 -74.1697998 591.74050903 C-72.30968262 592.38632935 -72.30968262 592.38632935 -70.4119873 593.04519653 C-69.25956543 593.43964966 -68.10714355 593.83410278 -66.9197998 594.24050903 C-65.68616699 594.67750122 -65.68616699 594.67750122 -64.4276123 595.12332153 C-59.2537519 596.92374915 -54.00775133 598.26645169 -48.6854248 599.55691528 C-46.62501876 600.06619644 -44.57976616 600.63755604 -42.5447998 601.24050903 C-3.90167851 611.90068042 39.77295244 610.62164786 78.0802002 599.24050903 C79.29256348 598.88859497 79.29256348 598.88859497 80.52941895 598.52957153 C93.41969726 594.70523067 106.13501858 590.49750893 118.0802002 584.24050903 C124.0802002 581.24050903 124.0802002 581.24050903 126.29504395 580.18582153 C132.01279139 577.42179196 137.32828775 574.28003165 142.6348877 570.79129028 C144.74077917 569.45576486 146.82789824 568.30380507 149.0802002 567.24050903 C149.0802002 566.58050903 149.0802002 565.92050903 149.0802002 565.24050903 C149.6370752 565.15800903 150.1939502 565.07550903 150.7677002 564.99050903 C153.80253037 564.00623979 155.6595642 562.29804963 158.0802002 560.24050903 C160.06468192 558.70962313 161.84049702 557.36036062 164.0802002 556.24050903 C164.0802002 555.58050903 164.0802002 554.92050903 164.0802002 554.24050903 C165.7302002 553.58050903 167.3802002 552.92050903 169.0802002 552.24050903 C169.0802002 551.58050903 169.0802002 550.92050903 169.0802002 550.24050903 C169.7195752 549.95175903 170.3589502 549.66300903 171.0177002 549.36550903 C173.23226099 548.41227452 173.23226099 548.41227452 174.0802002 546.24050903 C174.6783252 545.95175903 175.2764502 545.66300903 175.8927002 545.36550903 C178.49884416 544.02520642 180.15683234 542.43864372 182.0802002 540.24050903 C182.0802002 539.58050903 182.0802002 538.92050903 182.0802002 538.24050903 C183.0702002 537.91050903 184.0602002 537.58050903 185.0802002 537.24050903 C185.0802002 536.58050903 185.0802002 535.92050903 185.0802002 535.24050903 C185.7402002 535.24050903 186.4002002 535.24050903 187.0802002 535.24050903 C187.0802002 534.58050903 187.0802002 533.92050903 187.0802002 533.24050903 C188.4002002 532.58050903 189.7202002 531.92050903 191.0802002 531.24050903 C191.0802002 530.58050903 191.0802002 529.92050903 191.0802002 529.24050903 C191.7402002 529.24050903 192.4002002 529.24050903 193.0802002 529.24050903 C193.0802002 528.58050903 193.0802002 527.92050903 193.0802002 527.24050903 C193.7402002 527.24050903 194.4002002 527.24050903 195.0802002 527.24050903 C195.3689502 526.60113403 195.6577002 525.96175903 195.9552002 525.30300903 C197.0802002 523.24050903 197.0802002 523.24050903 199.0802002 522.24050903 C199.0802002 521.58050903 199.0802002 520.92050903 199.0802002 520.24050903 C200.0702002 519.91050903 201.0602002 519.58050903 202.0802002 519.24050903 C203.47679966 517.757059 203.47679966 517.757059 204.7677002 515.86550903 C205.28074707 515.15007935 205.79379395 514.43464966 206.3223877 513.69754028 C206.90246582 512.88671997 207.48254395 512.07589966 208.0802002 511.24050903 C208.78402832 510.31625122 209.48785645 509.39199341 210.2130127 508.43972778 C210.93230957 507.4871106 211.65160645 506.53449341 212.3927002 505.55300903 C213.40783691 504.21689575 213.40783691 504.21689575 214.44348145 502.85379028 C216.1016174 500.20631307 216.54408286 498.27142982 217.0802002 495.24050903 C217.7402002 494.91050903 218.4002002 494.58050903 219.0802002 494.24050903 C220.45555358 492.26916918 221.78231064 490.26368981 223.0802002 488.24050903 C223.70152832 487.35363403 224.32285645 486.46675903 224.9630127 485.55300903 C227.36123383 481.80081066 229.22864048 477.96920422 231.0802002 473.92800903 C231.43050293 473.17253784 231.78080566 472.41706665 232.14172363 471.63870239 C233.12701371 469.50857503 234.10508415 467.37530904 235.0802002 465.24050903 C235.70668457 463.87539185 235.70668457 463.87539185 236.3458252 462.48269653 C240.21620113 453.91257839 243.54716099 445.30099542 246.0802002 436.24050903 C246.31480957 435.41164185 246.54941895 434.58277466 246.7911377 433.72879028 C247.57626333 430.90487066 248.33163967 428.07434532 249.0802002 425.24050903 C249.41277832 423.99914185 249.74535645 422.75777466 250.0880127 421.47879028 C252.37566739 412.77933309 254.02874382 404.18727625 255.0802002 395.24050903 C255.26743948 393.82250583 255.45495291 392.40453881 255.6427002 390.98660278 C258.06340566 371.73061494 257.77140834 352.44668365 255.0802002 333.24050903 C254.96772949 332.43210571 254.85525879 331.62370239 254.73937988 330.790802 C253.02354717 318.73034149 250.99508542 306.80721537 247.0802002 295.24050903 C246.43024515 293.09592053 245.78449395 290.95005402 245.1427002 288.80300903 C243.70858931 284.11149387 242.08649094 279.7090657 240.0802002 275.24050903 C239.39183506 273.24787312 238.7173862 271.25009567 238.0802002 269.24050903 C237.4202002 269.24050903 236.7602002 269.24050903 236.0802002 269.24050903 C235.9977002 268.22988403 235.9152002 267.21925903 235.8302002 266.17800903 C235.32988048 262.66872424 234.05760404 260.07878898 232.1817627 257.04910278 C231.05334072 255.19640996 230.0924719 253.31524363 229.1427002 251.36550903 C225.92946982 244.87604376 222.65152097 238.87847132 218.0802002 233.24050903 C217.5645752 232.16800903 217.0489502 231.09550903 216.5177002 229.99050903 C215.32667874 226.9369722 215.32667874 226.9369722 212.0802002 226.24050903 C211.9564502 225.45675903 211.8327002 224.67300903 211.7052002 223.86550903 C211.28902026 221.09993082 211.28902026 221.09993082 209.0802002 219.24050903 C207.79018469 217.41298706 206.54326741 215.56033505 205.2989502 213.70144653 C204.8967627 213.21933716 204.4945752 212.73722778 204.0802002 212.24050903 C203.4202002 212.24050903 202.7602002 212.24050903 202.0802002 212.24050903 C201.4202002 210.59050903 200.7602002 208.94050903 200.0802002 207.24050903 C199.4202002 207.24050903 198.7602002 207.24050903 198.0802002 207.24050903 C197.8533252 206.70425903 197.6264502 206.16800903 197.3927002 205.61550903 C194.35818603 200.12448339 189.1014731 193.2476 183.0802002 191.24050903 C181.8927002 189.17800903 181.8927002 189.17800903 181.0802002 187.24050903 C180.4202002 187.24050903 179.7602002 187.24050903 179.0802002 187.24050903 C179.0802002 186.58050903 179.0802002 185.92050903 179.0802002 185.24050903 C178.4202002 185.24050903 177.7602002 185.24050903 177.0802002 185.24050903 C177.0802002 184.58050903 177.0802002 183.92050903 177.0802002 183.24050903 C176.0902002 183.24050903 175.1002002 183.24050903 174.0802002 183.24050903 C173.7502002 182.25050903 173.4202002 181.26050903 173.0802002 180.24050903 C169.60084547 176.60037836 169.60084547 176.60037836 165.0802002 175.24050903 C165.0802002 174.58050903 165.0802002 173.92050903 165.0802002 173.24050903 C161.85905863 170.92458881 161.85905863 170.92458881 158.0802002 170.24050903 C157.4202002 168.92050903 156.7602002 167.60050903 156.0802002 166.24050903 C155.0902002 166.24050903 154.1002002 166.24050903 153.0802002 166.24050903 C153.0802002 165.58050903 153.0802002 164.92050903 153.0802002 164.24050903 C150.26510026 161.96315894 150.26510026 161.96315894 147.0802002 162.24050903 C146.7502002 161.58050903 146.4202002 160.92050903 146.0802002 160.24050903 C144.10401652 158.84272058 142.12532991 157.53031006 140.0802002 156.24050903 C139.43180176 155.82285278 138.78340332 155.40519653 138.11535645 154.97488403 C128.74373182 148.70934038 128.74373182 148.70934038 118.0802002 146.24050903 C118.0802002 145.58050903 118.0802002 144.92050903 118.0802002 144.24050903 C114.14496833 142.52953866 110.19589562 140.88058082 106.2052002 139.30300903 C102.1069209 137.67869102 98.08800553 135.92493549 94.0880127 134.07254028 C92.08417253 133.24215516 90.19001731 132.73738625 88.0802002 132.24050903 C85.87096384 131.5977715 83.66273565 130.95156435 81.4552002 130.30300903 C75.69631903 128.64905357 69.97222311 127.30507847 64.0802002 126.24050903 C61.65574391 125.76549801 59.23823044 125.275566 56.82629395 124.74050903 C51.13735321 123.50838651 45.5520725 122.86204168 39.7442627 122.48660278 C37.0802002 122.24050903 37.0802002 122.24050903 35.16320801 121.74710083 C31.56032629 120.87087257 27.89840727 120.80645084 24.2052002 120.61550903 C23.34056152 120.57047241 22.47592285 120.52543579 21.58508301 120.47903442 C11.39412279 120.04089965 1.25169001 120.59713167 -8.9197998 121.24050903 Z " fill="#030303" transform="translate(481.9197998046875,-0.240509033203125)"/>
<path d="M0 0 C42.24 0 84.48 0 128 0 C133 12 133 12 133 14 C133.99 14.495 133.99 14.495 135 15 C136.12332494 17.13105708 137.16867268 19.25737382 138.1875 21.4375 C140.83690986 26.93742541 143.80923806 31.86969595 147.421875 36.80859375 C153 44.55445545 153 44.55445545 153 48 C153.66 48 154.32 48 155 48 C156.95052457 50.68197129 158.67330748 53.32846537 160.125 56.3125 C160.88818611 58.1891646 160.88818611 58.1891646 163 59 C164.03493304 60.07149318 165.03092 61.1810991 166 62.3125 C166.515625 62.90675781 167.03125 63.50101563 167.5625 64.11328125 C168.99804295 65.99743138 170.01372277 67.85200199 171 70 C171.66 70 172.32 70 173 70 C174.515625 71.57421875 174.515625 71.57421875 176.25 73.6875 C178.50075728 76.35349133 180.70049545 78.71010091 183.4375 80.875 C184.283125 81.57625 185.12875 82.2775 186 83 C186 83.66 186 84.32 186 85 C187.32 85.33 188.64 85.66 190 86 C190 86.99 190 87.98 190 89 C190.66 89 191.32 89 192 89 C192 89.66 192 90.32 192 91 C192.598125 91.268125 193.19625 91.53625 193.8125 91.8125 C195.99813575 92.99898798 197.2583417 94.2583417 199 96 C201.09989652 97.17574711 201.09989652 97.17574711 203 98 C203 98.66 203 99.32 203 100 C205.12953208 101.10420182 207.15701249 102.0523375 209.4375 102.8125 C212.66166446 104.30662499 214.53268735 106.46942292 217 109 C218.96672915 110.1500831 218.96672915 110.1500831 221 111 C223.53654686 112.49591225 226.04827174 114.02943399 228.5625 115.5625 C230.67386195 116.80766217 232.79266748 117.93721027 235 119 C235 119.66 235 120.32 235 121 C235.66 121.0825 236.32 121.165 237 121.25 C240.9541557 122.23853893 244.53172247 123.85258517 248 126 C248.33 126.66 248.66 127.32 249 128 C251.3306218 128.35179197 253.66435067 128.68330179 256 129 C257.3501013 129.63201953 258.68320234 130.30123956 260 131 C270.14358337 135.42453446 280.97645913 139.47678704 291.875 141.54296875 C293.70222384 141.93595623 295.50570433 142.43656516 297.30078125 142.95703125 C333.45943575 153.15170998 380.85127468 153.43317344 416.328125 140.81640625 C419 140 419 140 421 141 C421.33 140.34 421.66 139.68 422 139 C424.109375 138.21875 424.109375 138.21875 426.75 137.5 C430.27051029 136.50485576 433.62038067 135.40817472 437 134 C438.010625 133.67 439.02125 133.34 440.0625 133 C442.9222851 132.11283659 442.9222851 132.11283659 445.125 130.875 C447 130 447 130 451 130 C451 129.34 451 128.68 451 128 C457.65217391 125.13043478 457.65217391 125.13043478 460.5 124.0625 C463.82772868 122.64821531 466.88336548 120.81907154 470 119 C479.35118592 113.64957919 479.35118592 113.64957919 484 112 C484 111.34 484 110.68 484 110 C485.45537568 109.16151196 486.91440373 108.32936066 488.375 107.5 C489.18710937 107.0359375 489.99921875 106.571875 490.8359375 106.09375 C493 105 493 105 495 105 C495.33 104.01 495.66 103.02 496 102 C497.485 101.505 497.485 101.505 499 101 C499.33 100.34 499.66 99.68 500 99 C501.485 98.505 501.485 98.505 503 98 C504.26053974 96.51320954 505.51848661 95.0235228 506.734375 93.5 C508.29832152 91.64643376 509.94130706 90.27780941 512 89 C512.66 89 513.32 89 514 89 C514.33 88.34 514.66 87.68 515 87 C517.4375 84.375 517.4375 84.375 520 82 C520.66 82 521.32 82 522 82 C522 81.34 522 80.68 522 80 C523.375 78.375 523.375 78.375 525 77 C525.66 77 526.32 77 527 77 C527 76.34 527 75.68 527 75 C527.66 75 528.32 75 529 75 C529 74.34 529 73.68 529 73 C530.58960328 71.19363264 531.83852297 70.08073852 534 69 C535.13350534 66.98330173 535.13350534 66.98330173 536 65 C536.66 65 537.32 65 538 65 C538.33 64.01 538.66 63.02 539 62 C540.41431904 59.3734075 541.72452203 57.26629537 543.875 55.1875 C546.41018117 52.57775468 548.04945511 49.75445415 549.8515625 46.609375 C550.23054687 46.07828125 550.60953125 45.5471875 551 45 C551.66 45 552.32 45 553 45 C553.33 43.68 553.66 42.36 554 41 C554.66 41 555.32 41 556 41 C556.66 39.02 557.32 37.04 558 35 C558.66 35 559.32 35 560 35 C560.09796875 34.46632813 560.1959375 33.93265625 560.296875 33.3828125 C561.21227802 30.28061337 562.68238609 27.70352074 564.25 24.875 C568.00368862 18.0137495 571.70746889 11.14888384 574.75 3.9375 C576 1 576 1 577 0 C578.6575762 -0.09611419 580.31926986 -0.12187755 581.97962952 -0.12025452 C583.0580159 -0.12162918 584.13640228 -0.12300385 585.24746704 -0.12442017 C586.4407663 -0.12082489 587.63406555 -0.11722961 588.86352539 -0.11352539 C590.11212845 -0.11367142 591.36073151 -0.11381744 592.64717102 -0.1139679 C596.08090994 -0.11338891 599.51458938 -0.10835955 602.94831777 -0.10139394 C606.53312459 -0.09515998 610.11793213 -0.09455657 613.70274353 -0.09336853 C620.49550045 -0.09025534 627.28824135 -0.08204212 634.08099121 -0.07201904 C641.81242494 -0.06085753 649.54385942 -0.05534736 657.27529919 -0.05032361 C673.18354208 -0.03985949 689.09176898 -0.02226029 705 0 C704.68806536 1.72926874 704.37542638 3.45841044 704.0625 5.1875 C703.88847656 6.15042969 703.71445312 7.11335937 703.53515625 8.10546875 C703.0476265 10.74239972 702.53328895 13.3719905 702 16 C701.34 16 700.68 16 700 16 C699.67 18.64 699.34 21.28 699 24 C698.34 24 697.68 24 697 24 C696.731875 25.27875 696.46375 26.5575 696.1875 27.875 C694.17827834 36.75714543 691.48720606 44.4499467 687.20703125 52.53125 C685.85358812 54.84145284 685.85358812 54.84145284 686 57 C685.34 57 684.68 57 684 57 C684.061875 57.72960937 684.12375 58.45921875 684.1875 59.2109375 C683.96136477 62.57469898 682.99082395 63.94291773 681 66.625 C678.44428235 69.93314315 678.44428235 69.93314315 678 74 C677.34 74.66 676.68 75.32 676 76 C675.31513275 77.32407669 674.65129797 78.65909241 674 80 C673.2265625 81.2684375 673.2265625 81.2684375 672.4375 82.5625 C670.88141236 85.00654778 670.88141236 85.00654778 670 88 C669.34 88 668.68 88 668 88 C668 89.32 668 90.64 668 92 C667.34 92.66 666.68 93.32 666 94 C665.67 94.99 665.34 95.98 665 97 C664.34 97.66 663.68 98.32 663 99 C662.31513275 100.32407669 661.65129797 101.65909241 661 103 C659.5 105.75 659.5 105.75 658 108 C657.34 108 656.68 108 656 108 C655.773125 108.845625 655.54625 109.69125 655.3125 110.5625 C653.65392593 114.90638448 651.31963095 119.84018453 647 122 C646.67 122.99 646.34 123.98 646 125 C645.34 125.66 644.68 126.32 644 127 C643.34 127.99 642.68 128.98 642 130 C641.34 130 640.68 130 640 130 C639.731875 130.556875 639.46375 131.11375 639.1875 131.6875 C636.90485382 136.13265309 634.58541817 139.51702235 631 143 C626.90353556 147.48383563 626.90353556 147.48383563 623.625 152.5625 C621.54059235 155.68911147 618.95624044 157.36231293 615.921875 159.52734375 C613.49048807 161.3904187 611.8222074 163.54944521 610 166 C607.375 168.8125 607.375 168.8125 605 171 C604.34 171 603.68 171 603 171 C603 171.66 603 172.32 603 173 C601.625 174.625 601.625 174.625 600 176 C599.34 176 598.68 176 598 176 C597.773125 176.598125 597.54625 177.19625 597.3125 177.8125 C596 180 596 180 593.6875 181.375 C591.17325208 182.89524293 590.12310692 183.93238926 588.375 186.1875 C587.59125 187.115625 586.8075 188.04375 586 189 C585.01 189 584.02 189 583 189 C582.67 189.66 582.34 190.32 582 191 C580.63875 191.8971875 580.63875 191.8971875 579.25 192.8125 C575.93619237 194.89200883 575.93619237 194.89200883 573.3125 197.6875 C571 200 571 200 568 201 C567.67 201.66 567.34 202.32 567 203 C565.02111039 203.72693904 563.02045442 204.39816251 561 205 C561 205.66 561 206.32 561 207 C559.35 207.66 557.7 208.32 556 209 C556 209.66 556 210.32 556 211 C555.113125 211.433125 554.22625 211.86625 553.3125 212.3125 C550.0489415 213.92003881 550.0489415 213.92003881 547.25 215.6875 C545 217 545 217 543 217 C543 217.66 543 218.32 543 219 C542.01 219 541.02 219 540 219 C540 219.66 540 220.32 540 221 C539.01 221 538.02 221 537 221 C536.67 221.66 536.34 222.32 536 223 C535.01 223 534.02 223 533 223 C532.67 223.66 532.34 224.32 532 225 C528.71675094 227.28003407 525.95371299 228.43518386 522 229 C522 229.66 522 230.32 522 231 C517.41664092 232.92205381 512.72065967 234.45730076 508 236 C508 236.66 508 237.32 508 238 C507.37351562 238.19335938 506.74703125 238.38671875 506.1015625 238.5859375 C505.28429687 238.84632813 504.46703125 239.10671875 503.625 239.375 C502.81289063 239.63023437 502.00078125 239.88546875 501.1640625 240.1484375 C498.83540815 240.89854283 498.83540815 240.89854283 497 243 C496.34 242.67 495.68 242.34 495 242 C494.67 242.66 494.34 243.32 494 244 C491.66666667 244.33333333 489.33333333 244.66666667 487 245 C486.67 245.66 486.34 246.32 486 247 C482.82954062 248.24061454 480.41761705 249 477 249 C476.67 249.66 476.34 250.32 476 251 C473.17343565 252.11574909 470.3053893 252.92025443 467.3671875 253.6875 C462.21120762 255.03620318 457.75948731 256.56491347 453 259 C447.52631579 260.26315789 447.52631579 260.26315789 445 259 C445 259.66 445 260.32 445 261 C442.36 261 439.72 261 437 261 C437 261.66 437 262.32 437 263 C435.700625 263.12375 434.40125 263.2475 433.0625 263.375 C424.78611235 264.26658226 424.78611235 264.26658226 417 267 C415.1123223 267.2799817 413.2173548 267.51151254 411.3203125 267.71875 C409.58394531 267.91017578 409.58394531 267.91017578 407.8125 268.10546875 C405.9871875 268.30076172 405.9871875 268.30076172 404.125 268.5 C402.94679688 268.63019531 401.76859375 268.76039063 400.5546875 268.89453125 C389.18281907 270.13441558 377.93426262 271.15649274 366.48828125 271.1328125 C365.43577682 271.13376923 364.3832724 271.13472595 363.2988739 271.13571167 C361.08800191 271.136387 358.87712786 271.13457826 356.66625977 271.13037109 C353.33800643 271.12504085 350.0098897 271.13032442 346.68164062 271.13671875 C330.55931538 271.14303448 314.67707992 270.72291476 298.6875 268.5 C297.20733398 268.30470703 297.20733398 268.30470703 295.69726562 268.10546875 C288.56346747 267.14524303 288.56346747 267.14524303 285.88598633 266.45507812 C283.83730175 265.88271869 283.83730175 265.88271869 281 266 C281 265.34 281 264.68 281 264 C278.03 264 275.06 264 272 264 C272 263.34 272 262.68 272 262 C270.2365625 262.061875 270.2365625 262.061875 268.4375 262.125 C264.25233053 262.125 260.92876763 261.44322076 257 260 C256.67 259.34 256.34 258.68 256 258 C255.21625 258.185625 254.4325 258.37125 253.625 258.5625 C251 259 251 259 249 258 C249 257.34 249 256.68 249 256 C246.69 256 244.38 256 242 256 C242 255.34 242 254.68 242 254 C241.154375 254.061875 240.30875 254.12375 239.4375 254.1875 C235.39294171 253.96688773 232.65529328 252.69226541 229 251 C227.67723944 250.62691369 226.34767923 250.26953585 225 250 C225 249.34 225 248.68 225 248 C224.29875 248.04125 223.5975 248.0825 222.875 248.125 C218.24896852 247.9238682 214.83038594 246.55359063 211 244 C209.59566974 243.40737263 208.17680435 242.8487649 206.75 242.3125 C199.67683963 239.55249825 192.85550988 236.25408202 186 233 C186 232.34 186 231.68 186 231 C184.6078125 230.814375 184.6078125 230.814375 183.1875 230.625 C180 230 180 230 177 228 C177 227.34 177 226.68 177 226 C175.68 226 174.36 226 173 226 C173 225.34 173 224.68 173 224 C171.88625 223.690625 170.7725 223.38125 169.625 223.0625 C166 222 166 222 164 221 C164 220.34 164 219.68 164 219 C162.68 218.67 161.36 218.34 160 218 C160 217.34 160 216.68 160 216 C159.278125 215.71125 158.55625 215.4225 157.8125 215.125 C155.20833333 214.08333333 152.60416667 213.04166667 150 212 C150 211.34 150 210.68 150 210 C149.38125 209.87625 148.7625 209.7525 148.125 209.625 C146 209 146 209 144 207 C143.319375 206.67 142.63875 206.34 141.9375 206 C140 205 140 205 139 203 C137.33434428 201.99831701 135.66750924 200.99859436 134 200 C131.63042955 197.97681194 129.36530569 195.86596742 127.0859375 193.7421875 C125.02520409 191.80538616 125.02520409 191.80538616 122 191 C120.31237149 189.3545622 118.6459651 187.68711423 117 186 C115.515 185.01 115.515 185.01 114 184 C114 183.34 114 182.68 114 182 C112.68 181.67 111.36 181.34 110 181 C110 180.34 110 179.68 110 179 C109.01 179 108.02 179 107 179 C107 178.34 107 177.68 107 177 C106.34 177 105.68 177 105 177 C104.34 175.68 103.68 174.36 103 173 C102.34 173 101.68 173 101 173 C98.875 171.125 98.875 171.125 97 169 C97 168.34 97 167.68 97 167 C96.01 166.67 95.02 166.34 94 166 C94 165.34 94 164.68 94 164 C93.34 164 92.68 164 92 164 C92 163.34 92 162.68 92 162 C91.01 161.67 90.02 161.34 89 161 C89 160.34 89 159.68 89 159 C88.34 159 87.68 159 87 159 C85.375 157.625 85.375 157.625 84 156 C84 155.34 84 154.68 84 154 C83.34 154 82.68 154 82 154 C82 153.01 82 152.02 82 151 C81.01 150.67 80.02 150.34 79 150 C77.31640625 148.328125 77.31640625 148.328125 75.5625 146.25 C74.95148438 145.528125 74.34046875 144.80625 73.7109375 144.0625 C73.14632812 143.381875 72.58171875 142.70125 72 142 C71.236875 141.0925 70.47375 140.185 69.6875 139.25 C68.1601856 137.2135808 67.13172069 135.26344138 66 133 C64.27678623 131.11267064 62.40137908 129.46124117 60.5 127.75 C57.7093134 124.68024474 56.55479087 121.81630486 55 118 C53.41754725 116.24850835 53.41754725 116.24850835 52 115 C52 114.34 52 113.68 52 113 C51.34 113 50.68 113 50 113 C48.21694476 110.36107824 47.00940379 108.02821137 46 105 C45.01 104.505 45.01 104.505 44 104 C43.66666667 102.33333333 43.33333333 100.66666667 43 99 C42.01 98.505 42.01 98.505 41 98 C38 94.53846154 38 94.53846154 38 91 C37.34 91 36.68 91 36 91 C35.71125 90.05125 35.4225 89.1025 35.125 88.125 C34.23174891 84.94788422 34.23174891 84.94788422 32 83 C32 82.01 32 81.02 32 80 C31.34 79.67 30.68 79.34 30 79 C28.9463919 77.02771453 27.95497739 75.02188481 27 73 C26.49339844 71.99839844 25.98679688 70.99679687 25.46484375 69.96484375 C24.96082031 68.96582031 24.45679688 67.96679688 23.9375 66.9375 C23.43089844 65.93589844 22.92429688 64.93429687 22.40234375 63.90234375 C20.67737481 60.33228269 19.25320817 56.7596245 18 53 C17.525625 52.29875 17.05125 51.5975 16.5625 50.875 C14.76342387 47.56469991 14.16794426 44.57560317 13.52734375 40.890625 C13.35332031 40.26671875 13.17929688 39.6428125 13 39 C12.34 38.67 11.68 38.34 11 38 C10.11328125 36.22265625 10.11328125 36.22265625 9.3125 34.0625 C9.04050781 33.35222656 8.76851562 32.64195312 8.48828125 31.91015625 C8 30 8 30 9 28 C8.34 27.67 7.68 27.34 7 27 C4.62902273 22.44293818 3.61375362 18.14995171 4 13 C3.34 13 2.68 13 2 13 C1.34 8.71 0.68 4.42 0 0 Z " fill="#030303" transform="translate(143,728)"/>
<path d="M0 0 C1.05574219 0.33 2.11148438 0.66 3.19921875 1 C19.9622447 6.61273216 34.41585485 16.22067799 47.9765625 27.37109375 C50.10787024 29.13667574 50.10787024 29.13667574 53 31 C52.67 31.99 52.34 32.98 52 34 C50.29549086 34.7539175 48.58639444 35.50065779 46.84765625 36.171875 C44.21910711 37.34999851 42.20587813 39.17227241 40 41 C39.34 41 38.68 41 38 41 C37.72414063 41.55429687 37.44828125 42.10859375 37.1640625 42.6796875 C36.36289911 44.27663733 35.54410288 45.86482302 34.7109375 47.4453125 C30.22648354 56.44044529 29.80927519 62.72878328 32.75 72.3125 C35.45635415 79.68660781 39.26444396 84.06494167 46 88 C53.43726235 91.12365019 62.04679603 90.7013749 69.875 89.3125 C74.1095828 87.53397522 78.8742301 85.2515398 81 81 C81.66 81 82.32 81 83 81 C83.433125 79.7934375 83.433125 79.7934375 83.875 78.5625 C85 76 85 76 87 75 C98.52990929 96.58791527 104.6512429 119.51004391 104.96923828 144.04589844 C104.99578136 145.7320158 105.06961386 147.41726678 105.15234375 149.1015625 C106.06838987 175.11727236 97.53177307 201.90175987 84.94042969 224.32519531 C84.12886262 225.77050945 83.3325013 227.22434254 82.5390625 228.6796875 C75.52151823 241.05165862 61.87584885 262.37471705 48 267 C48 267.66 48 268.32 48 269 C46.67168139 269.94380533 45.33128954 270.87278464 43.953125 271.7421875 C41.70289204 273.19133753 39.54769341 274.74956249 37.375 276.3125 C9.79637467 295.51539468 -24.31343289 305.97687379 -58 304 C-59.1451709 303.93619141 -59.1451709 303.93619141 -60.31347656 303.87109375 C-83.71306431 302.41270954 -105.98028967 295.25006099 -127 285 C-127 284.34 -127 283.68 -127 283 C-127.99 283 -128.98 283 -130 283 C-130 282.34 -130 281.68 -130 281 C-130.53625 280.9175 -131.0725 280.835 -131.625 280.75 C-137.02301259 279.04536444 -141.58610676 274.8731789 -146.0625 271.5 C-147.56490234 270.37078125 -147.56490234 270.37078125 -149.09765625 269.21875 C-150.53431641 268.12046875 -150.53431641 268.12046875 -152 267 C-152.94746094 266.2884375 -153.89492188 265.576875 -154.87109375 264.84375 C-155.57363281 264.2353125 -156.27617187 263.626875 -157 263 C-157 262.34 -157 261.68 -157 261 C-157.54269531 260.78988281 -158.08539063 260.57976562 -158.64453125 260.36328125 C-161.87819437 258.49172498 -164.19633364 255.92292179 -166.6875 253.1875 C-167.21569336 252.6092749 -167.74388672 252.0310498 -168.28808594 251.43530273 C-186.66545969 230.91501381 -197.74265268 205.71540246 -204.25 179.25 C-204.41330811 178.6017627 -204.57661621 177.95352539 -204.74487305 177.28564453 C-213.44818759 140.10760722 -204.17900484 99.33956476 -185 67 C-178.08335849 56.02743273 -170.18134578 45.78501614 -161 36.625 C-159.89676392 35.52418091 -159.89676392 35.52418091 -158.77124023 34.40112305 C-152.03292132 27.81031106 -144.866703 22.17370491 -137 17 C-136.12085938 16.42121094 -135.24171875 15.84242188 -134.3359375 15.24609375 C-131.92859623 13.74444602 -129.49352455 12.35351868 -127 11 C-125.99195313 10.44957031 -124.98390625 9.89914063 -123.9453125 9.33203125 C-85.58996597 -10.73144678 -40.94318009 -13.39323078 0 0 Z " fill="#DC4507" transform="translate(546,215)"/>
<path d="M0 0 C1.13550293 0.00161133 2.27100586 0.00322266 3.44091797 0.00488281 C15.51412567 0.17879429 26.91797045 1.73931272 37.67285156 7.42651367 C40.5388999 8.91430065 43.53030327 10.11012917 46.5 11.375 C56.89695893 16.28467505 65.7195288 22.97880806 73.5 31.375 C74.345625 32.15875 75.19125 32.9425 76.0625 33.75 C81.05664414 39.12830907 85.78257383 45.12364507 87.5 52.375 C88.16 52.375 88.82 52.375 89.5 52.375 C92.46234523 59.03082246 95.05845019 65.74339702 97.25 72.6875 C97.46035889 73.34427734 97.67071777 74.00105469 97.88745117 74.67773438 C105.34666109 98.86448949 100.89886517 126.56033781 89.88574219 148.8359375 C86.53939647 154.96736729 82.26490959 160.44745685 77.80224609 165.80078125 C76.58474854 167.27255182 75.42462232 168.79125922 74.26953125 170.3125 C73.68558594 170.993125 73.10164062 171.67375 72.5 172.375 C71.84 172.375 71.18 172.375 70.5 172.375 C70.5 173.035 70.5 173.695 70.5 174.375 C68.70546618 176.00052807 66.92137543 177.47363457 65 178.9375 C64.42628662 179.37715088 63.85257324 179.81680176 63.26147461 180.26977539 C56.4313398 185.36295593 49.03268886 189.42562022 41.5 193.375 C40.49839844 193.90996094 39.49679687 194.44492187 38.46484375 194.99609375 C35.19278092 196.51788318 31.97517692 197.53213274 28.5 198.5 C26.7365625 198.99886719 26.7365625 198.99886719 24.9375 199.5078125 C3.58727544 204.89389188 -24.02140609 203.20149836 -43.6875 193 C-45.64190882 191.81921134 -47.58062903 190.61192796 -49.5 189.375 C-50.44875 188.818125 -51.3975 188.26125 -52.375 187.6875 C-59.12826152 183.63554309 -64.82922943 178.8197616 -70.5 173.375 C-71.44875 172.4675 -72.3975 171.56 -73.375 170.625 C-77.63434428 166.11510606 -81.12066045 161.13953851 -84.5625 156 C-85.2131543 155.04867187 -85.2131543 155.04867187 -85.87695312 154.078125 C-89.56627332 148.57502943 -92.07180186 143.02360778 -94.0625 136.6875 C-94.74443819 134.51839717 -95.39881984 132.56056362 -96.48828125 130.5625 C-105.56759286 110.93155597 -101.12610208 84.39693654 -94.75 64.75 C-94.3375 63.63625 -93.925 62.5225 -93.5 61.375 C-92.84 61.375 -92.18 61.375 -91.5 61.375 C-91.33371094 60.56095703 -91.33371094 60.56095703 -91.1640625 59.73046875 C-87.82227044 47.87693575 -79.72323042 38.74604078 -71.6875 29.8125 C-71.20708252 29.27496094 -70.72666504 28.73742187 -70.23168945 28.18359375 C-69.03010839 26.87394074 -67.76934607 25.61908545 -66.5 24.375 C-65.84 24.375 -65.18 24.375 -64.5 24.375 C-64.5 23.715 -64.5 23.055 -64.5 22.375 C-62.3046875 20.7890625 -62.3046875 20.7890625 -59.375 19 C-56.35582406 17.14086367 -53.39412529 15.30000542 -50.5 13.25 C-41.82963323 7.83102077 -32.38240382 4.79539623 -22.5 2.375 C-21.7673291 2.19549805 -21.0346582 2.01599609 -20.27978516 1.83105469 C-13.5040331 0.31021735 -6.9310709 -0.01029112 0 0 Z " fill="#AF3501" transform="translate(494.5,261.625)"/>
<path d="M0 0 C1.22493164 -0.01836914 1.22493164 -0.01836914 2.47460938 -0.03710938 C10.17394049 -0.05551415 16.57187061 1.22891176 23.375 5.0625 C24.26574219 5.55492187 25.15648437 6.04734375 26.07421875 6.5546875 C36.01378364 12.76505839 43.34443262 23.05270351 46.265625 34.44140625 C48.53735761 49.22870279 46.11708558 62.1874843 37.66015625 74.6484375 C31.66913482 82.3596532 24.76147464 86.769857 15.6875 90.1875 C14.77742188 90.55359375 13.86734375 90.9196875 12.9296875 91.296875 C1.01119319 94.57087103 -12.02639572 92.78635591 -22.69140625 86.8671875 C-32.8163004 80.59694848 -38.60505387 73.05660331 -43.3125 62.1875 C-43.68761719 61.45917969 -44.06273437 60.73085938 -44.44921875 59.98046875 C-47.74266585 49.32519873 -46.60028734 34.98144662 -41.9140625 24.94140625 C-35.58641332 14.06093631 -26.39675629 5.29614714 -14.3125 1.1875 C-9.56750847 -0.05795064 -4.87146041 0.00379102 0 0 Z " fill="#010000" transform="translate(494.3125,316.8125)"/>
<path d="M0 0 C2.95409701 1.37154504 5.44008376 2.98863724 8 5 C7.67 5.99 7.34 6.98 7 8 C5.30200793 8.78368865 3.59795598 9.55925015 1.85546875 10.23828125 C-0.59124461 11.24272147 -2.77275813 12.58266426 -5 14 C-5.8125 12.3125 -5.8125 12.3125 -6 10 C-4.35511706 8.31183067 -2.68662458 6.64646685 -1 5 C-0.12761142 2.32209104 -0.12761142 2.32209104 0 0 Z " fill="#DC4A0E" transform="translate(591,241)"/>
<path d="M0 0 C0 3.58116726 -0.97828883 4.33571816 -3.40411377 6.79530334 C-3.89466248 7.2766423 -4.38521118 7.75798126 -4.890625 8.25390625 C-5.39164734 8.75542709 -5.89266968 9.25694794 -6.40887451 9.77366638 C-7.47130668 10.83375699 -8.53743611 11.89015306 -9.60693359 12.94311523 C-11.23840645 14.55107354 -12.85623655 16.1718472 -14.47265625 17.79492188 C-15.50702398 18.82371007 -16.54215602 19.8517305 -17.578125 20.87890625 C-18.30180267 21.60395103 -18.30180267 21.60395103 -19.0401001 22.34364319 C-21.52237685 24.77450236 -23.76847545 26.67727868 -27 28 C-25.68226796 24.99171418 -24.39598781 23.26003628 -21.8125 21.25 C-18.34055001 18.40140638 -15.47100134 15.25887308 -12.578125 11.83203125 C-11.10950481 10.12712316 -9.68367479 8.49403011 -8 7 C-7.34 7 -6.68 7 -6 7 C-6 6.34 -6 5.68 -6 5 C-5.34 5 -4.68 5 -4 5 C-3.67 4.01 -3.34 3.02 -3 2 C-2.01 1.34 -1.02 0.68 0 0 Z " fill="#757575" transform="translate(249,95)"/>
<path d="M0 0 C5.75 1.875 5.75 1.875 8 3 C8 3.66 8 4.32 8 5 C9.65 5 11.3 5 13 5 C13 5.66 13 6.32 13 7 C14.95216435 8.95216435 16.53199953 9.84826645 19 11 C19 11.66 19 12.32 19 13 C19.99 13.66 20.98 14.32 22 15 C21.67 15.99 21.34 16.98 21 18 C18.93702698 16.41727985 16.87461051 14.83384324 14.8125 13.25 C14.23435547 12.8065625 13.65621094 12.363125 13.06054688 11.90625 C11.91560664 11.02652191 10.77251058 10.14438805 9.63134766 9.25976562 C8.12132662 8.09369132 6.59829858 6.94451322 5.07421875 5.796875 C4.38972656 5.20390625 3.70523437 4.6109375 3 4 C3 3.34 3 2.68 3 2 C2.01 1.67 1.02 1.34 0 1 C0 0.67 0 0.34 0 0 Z " fill="#E46839" transform="translate(386,474)"/>
<path d="M0 0 C0.99 1.485 0.99 1.485 2 3 C2.99 3.33 3.98 3.66 5 4 C5.33 2.68 5.66 1.36 6 0 C5.54034292 7.30696249 4.11670277 13.99757448 2 21 C1.67 21 1.34 21 1 21 C0.25194283 13.97360585 -0.13794954 7.06608191 0 0 Z " fill="#E05821" transform="translate(642,389)"/>
<path d="M0 0 C4.95 0 9.9 0 15 0 C15 0.66 15 1.32 15 2 C16.18078125 1.97679687 17.3615625 1.95359375 18.578125 1.9296875 C20.13541033 1.91092503 21.69270252 1.89272534 23.25 1.875 C24.02730469 1.85824219 24.80460937 1.84148438 25.60546875 1.82421875 C32.72431144 1.76337394 32.72431144 1.76337394 36 4 C28.81479565 4.29663688 21.7671805 3.78138106 14.625 3.0625 C13.75713867 2.97564941 12.88927734 2.88879883 11.99511719 2.79931641 C7.94827504 2.37486088 3.97343282 1.90751243 0 1 C0 0.67 0 0.34 0 0 Z " fill="#F0B198" transform="translate(463,515)"/>
<path d="M0 0 C-1.33333333 0.66666667 -2.66666667 1.33333333 -4 2 C-4.8971875 2.556875 -4.8971875 2.556875 -5.8125 3.125 C-10.05908644 4.82363457 -14.69569914 4.37737627 -19 3 C-19.33 3.66 -19.66 4.32 -20 5 C-22.97 4.505 -22.97 4.505 -26 4 C-26 3.67 -26 3.34 -26 3 C-17.27428579 1.37477656 -8.89820998 -0.15610895 0 0 Z " fill="#E87F59" transform="translate(482,208)"/>
<path d="M0 0 C1.94750374 2.92125561 3.43162772 5.86325544 5 9 C5.98387706 10.67623498 6.97862543 12.34634594 8 14 C6.02 14.33 4.04 14.66 2 15 C0.57055055 12.64561267 -0.08661261 11.51967567 0.375 8.75 C0.58125 8.1725 0.7875 7.595 1 7 C0.34 7 -0.32 7 -1 7 C-0.67 4.69 -0.34 2.38 0 0 Z " fill="#E5794D" transform="translate(577,285)"/>
<path d="M0 0 C0.96328543 3.25205159 1.16468233 6.23885752 1.1875 9.625 C1.20167969 10.58664062 1.21585937 11.54828125 1.23046875 12.5390625 C1 15 1 15 -1 17 C-1 16.01 -1 15.02 -1 14 C-2.32 14.99 -3.64 15.98 -5 17 C-3.83348574 11.07136283 -2.24480642 5.61201606 0 0 Z " fill="#E87F55" transform="translate(349,307)"/>
<path d="M0 0 C5.44567686 1.02862785 10.11817117 2.24614784 15 5 C12.23776722 7.76223278 9.79293383 7.57856291 6 8 C5.896875 7.360625 5.79375 6.72125 5.6875 6.0625 C5.3471875 5.0415625 5.3471875 5.0415625 5 4 C4.01 3.67 3.02 3.34 2 3 C2 2.34 2 1.68 2 1 C1.34 0.67 0.68 0.34 0 0 Z " fill="#E47D4F" transform="translate(543,215)"/>
<path d="M0 0 C-0.66 0.66 -1.32 1.32 -2 2 C-2.99 1.67 -3.98 1.34 -5 1 C-5 1.66 -5 2.32 -5 3 C-7.62748534 4.75589819 -8.79041672 5.02746832 -11.98046875 4.609375 C-13.03878906 4.32578125 -14.09710937 4.0421875 -15.1875 3.75 C-16.78658203 3.34007812 -16.78658203 3.34007812 -18.41796875 2.921875 C-21 2 -21 2 -22 0 C-20.97519531 0.01160156 -19.95039062 0.02320313 -18.89453125 0.03515625 C-17.533856 0.04454022 -16.17317876 0.05363977 -14.8125 0.0625 C-14.13896484 0.07087891 -13.46542969 0.07925781 -12.77148438 0.08789062 C-8.72881432 0.10761097 -3.53796359 -1.7689818 0 0 Z " fill="#EB9878" transform="translate(619,305)"/>
<path d="M0 0 C0.66 0 1.32 0 2 0 C2 0.99 2 1.98 2 3 C2.66 3.33 3.32 3.66 4 4 C2.87895467 5.31587941 1.75303035 6.62760353 0.625 7.9375 C-0.31472656 9.03384766 -0.31472656 9.03384766 -1.2734375 10.15234375 C-3 12 -3 12 -5 13 C-4.44271087 9.65626525 -3.64826111 6.96687001 -2 4 C-1.01 4 -0.02 4 1 4 C0.67 2.68 0.34 1.36 0 0 Z " fill="#E57141" transform="translate(612,457)"/>
<path d="M0 0 C2.91227269 3.28804981 4.49701212 5.59885603 5 10 C3.35 8.68 1.7 7.36 0 6 C-0.99 7.485 -0.99 7.485 -2 9 C-2 8.34 -2 7.68 -2 7 C-2.99 7.33 -3.98 7.66 -5 8 C-5 7.34 -5 6.68 -5 6 C-4.34 6 -3.68 6 -3 6 C-2.690625 5.195625 -2.38125 4.39125 -2.0625 3.5625 C-1 1 -1 1 0 0 Z " fill="#EA916C" transform="translate(632,290)"/>
<path d="M0 0 C1.32 0.66 2.64 1.32 4 2 C2.21475351 3.19713017 0.4215972 4.38247279 -1.375 5.5625 C-2.87160156 6.55443359 -2.87160156 6.55443359 -4.3984375 7.56640625 C-5.25695312 8.03949219 -6.11546875 8.51257813 -7 9 C-7.66 8.67 -8.32 8.34 -9 8 C-9 7.01 -9 6.02 -9 5 C-5.535 4.505 -5.535 4.505 -2 4 C-2 3.34 -2 2.68 -2 2 C-1.34 1.34 -0.68 0.68 0 0 Z " fill="#E78055" transform="translate(580,489)"/>
<path d="M0 0 C1.41377341 2.63904371 2.37240135 5.07120629 3 8 C2.34 7.67 1.68 7.34 1 7 C0.319375 7.99 0.319375 7.99 -0.375 9 C-0.91125 9.66 -1.4475 10.32 -2 11 C-2.66 11 -3.32 11 -4 11 C-3.39301257 6.87248551 -1.96189209 3.6678852 0 0 Z " fill="#E6774A" transform="translate(356,291)"/>
<path d="M0 0 C1.98 0 3.96 0 6 0 C4.54744301 3.82946843 2.57104439 5.12050295 -1 7 C-1.66 5.68 -2.32 4.36 -3 3 C-2.01 2.34 -1.02 1.68 0 1 C0 0.67 0 0.34 0 0 Z " fill="#E26D3D" transform="translate(601,470)"/>
<path d="M0 0 C-0.33 1.32 -0.66 2.64 -1 4 C-1.66 4 -2.32 4 -3 4 C-3 5.32 -3 6.64 -3 8 C-3.66 7.67 -4.32 7.34 -5 7 C-4.67 6.01 -4.34 5.02 -4 4 C-4.78375 4.515625 -5.5675 5.03125 -6.375 5.5625 C-7.24125 6.036875 -8.1075 6.51125 -9 7 C-9.66 6.67 -10.32 6.34 -11 6 C-3.8 0 -3.8 0 0 0 Z " fill="#E7845B" transform="translate(418,228)"/>
<path d="M0 0 C0.33 0 0.66 0 1 0 C0.52013969 5.56890517 -0.29915181 10.67067568 -2 16 C-2.33 16 -2.66 16 -3 16 C-3.24954005 14.56589632 -3.47392642 13.12739928 -3.6875 11.6875 C-3.81511719 10.88699219 -3.94273437 10.08648437 -4.07421875 9.26171875 C-4 7 -4 7 -2.5625 5.34375 C-1.7890625 4.67859375 -1.7890625 4.67859375 -1 4 C-0.28552357 1.89667109 -0.28552357 1.89667109 0 0 Z " fill="#EDA384" transform="translate(646,394)"/>
<path d="M0 0 C6.30367803 0.58367389 11.98660063 2.04071619 18 4 C14.28125 6.046875 14.28125 6.046875 11.75 5.625 C11.1725 5.41875 10.595 5.2125 10 5 C10 4.34 10 3.68 10 3 C6.7 2.34 3.4 1.68 0 1 C0 0.67 0 0.34 0 0 Z " fill="#F0B79D" transform="translate(525,210)"/>
<path d="M0 0 C0.66 0.33 1.32 0.66 2 1 C0.90653119 2.34212062 -0.2001575 3.67347975 -1.3125 5 C-2.23482422 6.11375 -2.23482422 6.11375 -3.17578125 7.25 C-5 9 -5 9 -8 9 C-6.4169423 4.7257442 -3.49431596 2.73468206 0 0 Z " fill="#999999" transform="translate(655,817)"/>
<path d="M0 0 C1.21386936 3.64160808 0.6674695 4.33165469 -0.9375 7.6875 C-1.31777344 8.49574219 -1.69804688 9.30398438 -2.08984375 10.13671875 C-2.39019531 10.75160156 -2.69054687 11.36648438 -3 12 C-3.66 11.34 -4.32 10.68 -5 10 C-5 9.01 -5 8.02 -5 7 C-4.01 7 -3.02 7 -2 7 C-2.226875 6.401875 -2.45375 5.80375 -2.6875 5.1875 C-2.790625 4.465625 -2.89375 3.74375 -3 3 C-1.5625 1.25 -1.5625 1.25 0 0 Z " fill="#E8906A" transform="translate(639,418)"/>
<path d="M0 0 C1.72357119 2.58535679 2.44735018 4.03811614 3.1875 6.9375 C3.36667969 7.60652344 3.54585937 8.27554687 3.73046875 8.96484375 C4.03268678 11.24680888 3.68756692 12.82026659 3 15 C3 14.34 3 13.68 3 13 C2.34 13 1.68 13 1 13 C0.67 8.71 0.34 4.42 0 0 Z " fill="#EFAC8F" transform="translate(643,315)"/>
<path d="M0 0 C0.99 0.33 1.98 0.66 3 1 C2.67 1.33 2.34 1.66 2 2 C2.99 2.33 3.98 2.66 5 3 C5 2.34 5 1.68 5 1 C6.65 1.33 8.3 1.66 10 2 C6.73454239 3.88391785 3.71888239 4.49287967 0 5 C-0.5625 3.0625 -0.5625 3.0625 -1 1 C-0.67 0.67 -0.34 0.34 0 0 Z " fill="#E5774A" transform="translate(537,507)"/>
<path d="M0 0 C2.4375 0.75 2.4375 0.75 5 2 C5.8125 4.125 5.8125 4.125 6 6 C3.69 6 1.38 6 -1 6 C-0.67 4.02 -0.34 2.04 0 0 Z " fill="#E15D28" transform="translate(593,304)"/>
<path d="M0 0 C2.95409701 1.37154504 5.44008376 2.98863724 8 5 C7.67 5.99 7.34 6.98 7 8 C6.01 8 5.02 8 4 8 C3.34 6.02 2.68 4.04 2 2 C1.34 2 0.68 2 0 2 C0 1.34 0 0.68 0 0 Z " fill="#EB906D" transform="translate(591,241)"/>
<path d="M0 0 C5.16427376 1.2394257 8.75436828 2.78988821 13 6 C13 6.33 13 6.66 13 7 C10.75 7.25 10.75 7.25 8 7 C6.62689293 5.70766393 5.28965176 4.37562854 4 3 C3.01 3 2.02 3 1 3 C0.67 2.01 0.34 1.02 0 0 Z " fill="#EFB194" transform="translate(563,223)"/>
<path d="M0 0 C3 1 3 1 4 3 C4.99 3.33 5.98 3.66 7 4 C6.67 4.66 6.34 5.32 6 6 C2.04 4.68 -1.92 3.36 -6 2 C-4.68 1.67 -3.36 1.34 -2 1 C-1.34 0.67 -0.68 0.34 0 0 Z " fill="#EB9776" transform="translate(449,508)"/>
<path d="M0 0 C0.99 0.33 1.98 0.66 3 1 C3.80078125 2.77734375 3.80078125 2.77734375 4.3125 4.9375 C4.49425781 5.64777344 4.67601562 6.35804688 4.86328125 7.08984375 C4.93095703 8.03537109 4.93095703 8.03537109 5 9 C4.34 9.66 3.68 10.32 3 11 C2.49384702 9.73160474 1.99530901 8.46016898 1.5 7.1875 C1.2215625 6.47980469 0.943125 5.77210938 0.65625 5.04296875 C0 3 0 3 0 0 Z " fill="#EB8F6C" transform="translate(346,408)"/>
<path d="M0 0 C0.33 0.66 0.66 1.32 1 2 C1.99 2 2.98 2 4 2 C4 2.66 4 3.32 4 4 C3.34 4 2.68 4 2 4 C2 4.66 2 5.32 2 6 C0.37373596 7.38232443 -1.2925002 8.71937515 -3 10 C-2.01 6.7 -1.02 3.4 0 0 Z " fill="#9D3003" transform="translate(539,375)"/>
<path d="M0 0 C3.36591866 1.44253657 5.51047079 3.33264727 8 6 C5.69 5.67 3.38 5.34 1 5 C0.67 3.35 0.34 1.7 0 0 Z " fill="#E7855C" transform="translate(579,232)"/>
<path d="M0 0 C6.52307692 -0.36923077 6.52307692 -0.36923077 8.9375 1.5 C9.288125 1.995 9.63875 2.49 10 3 C8.375 3.6875 8.375 3.6875 6 4 C2.75 2.5625 2.75 2.5625 0 1 C0 0.67 0 0.34 0 0 Z " fill="#E57C50" transform="translate(422,500)"/>
<path d="M0 0 C1 2 1 2 0.0625 5.125 C-0.288125 6.07375 -0.63875 7.0225 -1 8 C-2.32 8 -3.64 8 -5 8 C-3.62845496 5.04590299 -2.01136276 2.55991624 0 0 Z " fill="#E77E51" transform="translate(371,268)"/>
<path d="M0 0 C0.99 1.32 1.98 2.64 3 4 C1.02 5.32 -0.96 6.64 -3 8 C-3.75 6.25 -3.75 6.25 -4 4 C-2.0625 1.75 -2.0625 1.75 0 0 Z " fill="#E4784C" transform="translate(589,247)"/>
<path d="M0 0 C5.75 1.875 5.75 1.875 8 3 C8.625 5.5625 8.625 5.5625 9 8 C6.96166576 6.7260411 4.96147874 5.38938077 3 4 C3 3.34 3 2.68 3 2 C2.01 1.67 1.02 1.34 0 1 C0 0.67 0 0.34 0 0 Z " fill="#E98961" transform="translate(386,474)"/>
<path d="M0 0 C0.66 0.33 1.32 0.66 2 1 C1.67 1.66 1.34 2.32 1 3 C1.66 3.33 2.32 3.66 3 4 C2.01 4.99 1.02 5.98 0 7 C-0.99 6.67 -1.98 6.34 -3 6 C-3 5.34 -3 4.68 -3 4 C-2.34 4 -1.68 4 -1 4 C-0.67 2.68 -0.34 1.36 0 0 Z " fill="#E36F41" transform="translate(596,475)"/>
<path d="M0 0 C3.53647504 1.67517239 4.7911563 2.49280817 6.3125 6.1875 C6.539375 7.115625 6.76625 8.04375 7 9 C4.03595495 6.19195732 1.55500981 3.81684226 0 0 Z " fill="#E99068" transform="translate(370,455)"/>
<path d="M0 0 C-5.47574739 2.9334361 -8.80040487 3.07300685 -15 2 C-15 1.67 -15 1.34 -15 1 C-9.91913204 0.15318867 -5.15171623 -0.09038099 0 0 Z " fill="#EA8F67" transform="translate(482,208)"/>
<path d="M0 0 C-0.99 0.33 -1.98 0.66 -3 1 C-3 1.66 -3 2.32 -3 3 C-5.64 3.33 -8.28 3.66 -11 4 C-9.71264403 1.42528807 -8.71510189 1.29583343 -6.0625 0.3125 C-5.35222656 0.04050781 -4.64195312 -0.23148438 -3.91015625 -0.51171875 C-2 -1 -2 -1 0 0 Z " fill="#E79874" transform="translate(438,219)"/>
<path d="M0 0 C1.33855056 0.78281305 2.67073644 1.57651877 4 2.375 C5.11375 3.03628906 5.11375 3.03628906 6.25 3.7109375 C6.8275 4.13632812 7.405 4.56171875 8 5 C8 5.66 8 6.32 8 7 C7.01 7 6.02 7 5 7 C5 6.34 5 5.68 5 5 C3.68 4.67 2.36 4.34 1 4 C0.67 2.68 0.34 1.36 0 0 Z " fill="#A03003" transform="translate(463,397)"/>
<path d="M0 0 C0.66 0.33 1.32 0.66 2 1 C1.01 1.33 0.02 1.66 -1 2 C-2.09166275 3.93330603 -2.09166275 3.93330603 -3 6 C-3.66 6.66 -4.32 7.32 -5 8 C-5.33 6.68 -5.66 5.36 -6 4 C-4.02 2.68 -2.04 1.36 0 0 Z " fill="#929292" transform="translate(294,59)"/>
<path d="M0 0 C3.16115776 1.36983503 3.9927092 1.9890638 6 5 C5.34 5.66 4.68 6.32 4 7 C0 2.25 0 2.25 0 0 Z " fill="#E67E50" transform="translate(365,448)"/>
<path d="M0 0 C0.33 0.66 0.66 1.32 1 2 C-1.97 4.475 -1.97 4.475 -5 7 C-5.66 6.34 -6.32 5.68 -7 5 C-4.69 3.35 -2.38 1.7 0 0 Z " fill="#EA9975" transform="translate(626,298)"/>
<path d="M0 0 C-2.39763185 2.39763185 -3.33273498 2.34280586 -6.625 2.625 C-7.44226563 2.69976562 -8.25953125 2.77453125 -9.1015625 2.8515625 C-9.72804688 2.90054688 -10.35453125 2.94953125 -11 3 C-4.33333333 -1.44444444 -4.33333333 -1.44444444 0 0 Z " fill="#EFAF90" transform="translate(449,215)"/>
<path d="M0 0 C2 1 2 1 2 1 Z " fill="#FFFFFF" transform="translate(428,994)"/>
<path d="" fill="#FFFFFF" transform="translate(0,0)"/>
<path d="" fill="#FFFFFF" transform="translate(0,0)"/>
<path d="" fill="#FFFFFF" transform="translate(0,0)"/>
<path d="" fill="#FFFFFF" transform="translate(0,0)"/>
<path d="" fill="#FFFFFF" transform="translate(0,0)"/>
<path d="" fill="#FFFFFF" transform="translate(0,0)"/>
<path d="" fill="#FFFFFF" transform="translate(0,0)"/>
<path d="" fill="#FFFFFF" transform="translate(0,0)"/>
<path d="" fill="#FFFFFF" transform="translate(0,0)"/>
<path d="" fill="#FFFFFF" transform="translate(0,0)"/>
<path d="" fill="#FFFFFF" transform="translate(0,0)"/>
<path d="" fill="#FFFFFF" transform="translate(0,0)"/>
<path d="" fill="#FFFFFF" transform="translate(0,0)"/>
<path d="" fill="#FFFFFF" transform="translate(0,0)"/>
<path d="" fill="#FFFFFF" transform="translate(0,0)"/>
<path d="" fill="#FFFFFF" transform="translate(0,0)"/>
<path d="" fill="#FFFFFF" transform="translate(0,0)"/>
<path d="" fill="#FFFFFF" transform="translate(0,0)"/>
<path d="" fill="#FFFFFF" transform="translate(0,0)"/>
<path d="" fill="#FFFFFF" transform="translate(0,0)"/>
<path d="" fill="#FFFFFF" transform="translate(0,0)"/>
<path d="" fill="#FFFFFF" transform="translate(0,0)"/>
<path d="" fill="#FFFFFF" transform="translate(0,0)"/>
<path d="" fill="#FFFFFF" transform="translate(0,0)"/>
<path d="" fill="#FFFFFF" transform="translate(0,0)"/>
<path d="" fill="#FFFFFF" transform="translate(0,0)"/>
<path d="" fill="#FFFFFF" transform="translate(0,0)"/>
<path d="" fill="#FFFFFF" transform="translate(0,0)"/>
<path d="" fill="#FFFFFF" transform="translate(0,0)"/>
<path d="" fill="#FFFFFF" transform="translate(0,0)"/>
<path d="" fill="#FFFFFF" transform="translate(0,0)"/>
<path d="" fill="#FFFFFF" transform="translate(0,0)"/>
<path d="" fill="#FFFFFF" transform="translate(0,0)"/>
<path d="" fill="#FFFFFF" transform="translate(0,0)"/>
<path d="" fill="#FFFFFF" transform="translate(0,0)"/>
<path d="" fill="#FFFFFF" transform="translate(0,0)"/>
<path d="" fill="#FFFFFF" transform="translate(0,0)"/>
<path d="" fill="#FFFFFF" transform="translate(0,0)"/>
<path d="" fill="#FFFFFF" transform="translate(0,0)"/>
<path d="" fill="#FFFFFF" transform="translate(0,0)"/>
<path d="" fill="#FFFFFF" transform="translate(0,0)"/>
<path d="" fill="#FFFFFF" transform="translate(0,0)"/>
<path d="" fill="#FFFFFF" transform="translate(0,0)"/>
<path d="" fill="#FFFFFF" transform="translate(0,0)"/>
<path d="" fill="#FFFFFF" transform="translate(0,0)"/>
<path d="" fill="#FFFFFF" transform="translate(0,0)"/>
<path d="" fill="#FFFFFF" transform="translate(0,0)"/>
<path d="" fill="#FFFFFF" transform="translate(0,0)"/>
<path d="" fill="#FFFFFF" transform="translate(0,0)"/>
<path d="" fill="#FFFFFF" transform="translate(0,0)"/>
<path d="" fill="#FFFFFF" transform="translate(0,0)"/>
<path d="" fill="#FFFFFF" transform="translate(0,0)"/>
<path d="" fill="#FFFFFF" transform="translate(0,0)"/>
<path d="" fill="#FFFFFF" transform="translate(0,0)"/>
<path d="" fill="#FFFFFF" transform="translate(0,0)"/>
<path d="" fill="#FFFFFF" transform="translate(0,0)"/>
</svg>
