<?xml version="1.0" encoding="UTF-8"?>
<svg version="1.1" xmlns="http://www.w3.org/2000/svg" width="1180" height="340">
<path d="M0 0 C-0.33 1.98 -0.66 3.96 -1 6 C-0.0925 5.505 0.815 5.01 1.75 4.5 C5 3 5 3 9 3 C9.33 2.34 9.66 1.68 10 1 C18.15574065 -1.27798273 26.60502753 -1.30981446 35 -1 C36.0621875 -0.97035156 37.124375 -0.94070312 38.21875 -0.91015625 C49.71569569 -0.33809949 60.2403976 2.26073972 69.9140625 8.6328125 C71.95249472 10.04192858 71.95249472 10.04192858 74.1484375 10.9921875 C76 12 76 12 78 15 C81.42055356 14.37473752 82.18130041 13.83412941 84.9375 11.3125 C98.8335865 -1.11611185 118.34751573 -1.60482958 135.93359375 -0.87890625 C149.92853167 -0.00533688 161.67399358 4.87905849 173 13 C174.11955078 13.77150391 174.11955078 13.77150391 175.26171875 14.55859375 C175.83535156 15.03425781 176.40898438 15.50992188 177 16 C177 16.66 177 17.32 177 18 C177.99 18.33 178.98 18.66 180 19 C181.38671875 20.77734375 181.38671875 20.77734375 182.6875 22.9375 C183.12449219 23.64777344 183.56148437 24.35804687 184.01171875 25.08984375 C185 27 185 27 185 29 C185.66 29 186.32 29 187 29 C192.44723618 42.36683417 192.44723618 42.36683417 193 49 C193.15839859 49.75723862 193.31679718 50.51447723 193.47999573 51.29466248 C196.11505539 65.00363788 195.0486436 79.56167751 194.87890625 93.43359375 C194.85455437 95.76627594 194.83071352 98.09896351 194.80735779 100.43165588 C194.74502045 106.52249362 194.67581568 112.613234 194.60510254 118.70397949 C194.53395952 124.93867623 194.46941924 131.1734411 194.40429688 137.40820312 C194.2759352 149.60554365 194.14030682 161.80279143 194 174 C186.203915 174.16795432 178.40769559 174.32789478 170.61132812 174.48217773 C167.9573186 174.53565453 165.30334584 174.59098812 162.64941406 174.64819336 C158.84187752 174.72994592 155.03426014 174.80509096 151.2265625 174.87890625 C149.43745956 174.91945885 149.43745956 174.91945885 147.61221313 174.96083069 C146.51122284 174.98092697 145.41023254 175.00102325 144.27587891 175.02172852 C143.30325104 175.04171402 142.33062317 175.06169952 141.32852173 175.08229065 C139 175 139 175 137 174 C136.99503478 173.04668494 136.99503478 173.04668494 136.98996925 172.07411098 C136.90843564 156.54669535 136.81624646 141.01938401 136.71247292 125.49210262 C136.6625389 117.98295526 136.61609535 110.47381778 136.578125 102.96459961 C136.54498688 96.41283584 136.50503878 89.86115335 136.45720994 83.30947977 C136.43215956 79.84653649 136.41031755 76.38364562 136.39665604 72.92063713 C137.68042875 46.80559712 137.68042875 46.80559712 129 23 C126.93837966 21.72793369 126.93837966 21.72793369 125 21 C125 20.34 125 19.68 125 19 C114.04820782 18.39696547 114.04820782 18.39696547 104 22 C102.906875 22.61875 101.81375 23.2375 100.6875 23.875 C97.83056759 26.13396981 96.96117232 27.53977966 96 31 C95.34 31 94.68 31 94 31 C93.80564766 36.53904156 94.37694868 40.65347799 96 46 C97.07232388 52.6594955 97.13567438 59.18830172 97.11352539 65.92382812 C97.11367142 67.0954248 97.11381744 68.26702148 97.1139679 69.47412109 C97.11327413 73.32651657 97.10550689 77.17886302 97.09765625 81.03125 C97.09579016 83.7102466 97.09431793 86.38924053 97.09336853 89.0682373 C97.09026921 95.38618782 97.08207479 101.70412088 97.07201904 108.02206373 C97.05971371 115.92616413 97.05426426 123.8302674 97.04882812 131.734375 C97.03910848 145.82293023 97.01907295 159.91144743 97 174 C77.86 174 58.72 174 39 174 C38.97494385 169.9773999 38.9498877 165.9547998 38.92407227 161.81030273 C38.84061387 148.52296955 38.75197415 135.23567517 38.66066074 121.94839382 C38.6054216 113.89196124 38.55195512 105.83552422 38.50268555 97.77905273 C38.45972944 90.75568697 38.41342306 83.73235259 38.36312145 76.70903546 C38.33661231 72.99148853 38.31176202 69.27394747 38.29092598 65.55636406 C38.26758287 61.40268212 38.23675899 57.24908756 38.20532227 53.09545898 C38.1995668 51.86762695 38.19381134 50.63979492 38.18788147 49.37475586 C38.166905 38.5115629 38.166905 38.5115629 35.125 28.1875 C34.79757812 27.43855469 34.47015625 26.68960938 34.1328125 25.91796875 C33.00330041 23.68851939 33.00330041 23.68851939 30 22 C30 21.34 30 20.68 30 20 C23.05264902 18.81747217 16.41495757 17.69453306 10 21 C9.01 21 8.02 21 7 21 C6.505 22.485 6.505 22.485 6 24 C5.175 24.7425 4.35 25.485 3.5 26.25 C-1.85397976 32.13937774 -0.13491387 41.93569879 -0.11352539 49.46264648 C-0.11324298 50.8232676 -0.1134023 52.18388886 -0.1139679 53.54450989 C-0.11425378 57.22167753 -0.10839079 60.89881229 -0.10139394 64.57597232 C-0.09512566 68.42500054 -0.09455386 72.27402959 -0.09336853 76.12306213 C-0.09026544 83.40435913 -0.08206587 90.68564104 -0.07201904 97.9669314 C-0.06082612 106.25955781 -0.05533945 114.55218496 -0.05032361 122.84481704 C-0.03988237 139.89655341 -0.02230278 156.94827511 0 174 C-19.46900671 176.78128667 -39.33696891 174.37813521 -59 174 C-59 116.25 -59 58.5 -59 -1 C-4 -2 -4 -2 0 0 Z " fill="#F8F8F8" transform="translate(688,67)"/>
<path d="M0 0 C0.83975341 0.00829614 1.67950682 0.01659227 2.5447073 0.02513981 C3.98558964 0.03569904 3.98558964 0.03569904 5.45558071 0.0464716 C6.51796963 0.05941761 7.58035854 0.07236362 8.67494106 0.08570194 C10.34302067 0.10011326 10.34302067 0.10011326 12.04479885 0.11481571 C15.74050369 0.14794001 19.43609521 0.1882209 23.13172817 0.22852421 C25.686203 0.25281221 28.24068209 0.27665641 30.79516506 0.30007267 C36.84422177 0.35659981 42.89321717 0.41762121 48.9422068 0.48079401 C55.82718864 0.55244866 62.71222135 0.6184017 69.59726441 0.68386447 C83.76376624 0.81868747 97.93018871 0.96070752 112.09657192 1.10743046 C112.11999227 15.27693812 112.13752921 29.44644276 112.14838409 43.61596584 C112.1535948 50.19597261 112.1606595 56.77596635 112.17201138 63.35596561 C112.18290471 69.7101908 112.18886241 76.06440347 112.19144917 82.41863728 C112.19329181 84.83861965 112.19688999 87.25860136 112.20230198 89.67857838 C112.20959798 93.07724055 112.21055926 96.47585151 112.21009731 99.8745203 C112.21369259 100.86714878 112.21728786 101.85977726 112.22099209 102.88248539 C112.20039902 116.95365857 110.17672938 128.39604386 104.09657192 141.10743046 C103.4041694 142.68862603 102.71631397 144.27182443 102.03407192 145.85743046 C97.30466441 156.50338422 97.30466441 156.50338422 94.09657192 158.10743046 C93.76657192 159.09743046 93.43657192 160.08743046 93.09657192 161.10743046 C92.43657192 161.10743046 91.77657192 161.10743046 91.09657192 161.10743046 C91.09657192 162.09743046 91.09657192 163.08743046 91.09657192 164.10743046 C89.45689982 165.47382387 87.78547065 166.80237235 86.09657192 168.10743046 C85.49844692 168.87055546 84.90032192 169.63368046 84.28407192 170.41993046 C81.29960912 174.08655619 77.87942666 177.26619541 74.09657192 180.10743046 C73.43657192 180.10743046 72.77657192 180.10743046 72.09657192 180.10743046 C71.76657192 181.09743046 71.43657192 182.08743046 71.09657192 183.10743046 C70.43657192 183.10743046 69.77657192 183.10743046 69.09657192 183.10743046 C68.76657192 183.76743046 68.43657192 184.42743046 68.09657192 185.10743046 C65.53407192 185.73243046 65.53407192 185.73243046 63.09657192 186.10743046 C63.09657192 186.76743046 63.09657192 187.42743046 63.09657192 188.10743046 C40.37830815 200.09762523 11.47886613 205.79622626 -13.65342808 198.29493046 C-15.74302265 197.58390562 -17.82675382 196.85535146 -19.90342808 196.10743046 C-20.86120152 195.78516483 -21.81897495 195.46289921 -22.80577183 195.13086796 C-29.11401303 192.95439203 -35.0086064 190.22746623 -40.90342808 187.10743046 C-40.90342808 186.44743046 -40.90342808 185.78743046 -40.90342808 185.10743046 C-41.98624058 184.70524296 -41.98624058 184.70524296 -43.09092808 184.29493046 C-48.43796349 182.03729328 -51.31735216 179.64979328 -54.90342808 175.10743046 C-55.89342808 174.77743046 -56.88342808 174.44743046 -57.90342808 174.10743046 C-57.90342808 173.44743046 -57.90342808 172.78743046 -57.90342808 172.10743046 C-58.56342808 172.10743046 -59.22342808 172.10743046 -59.90342808 172.10743046 C-61.24674462 170.11412204 -62.57936819 168.1135818 -63.90342808 166.10743046 C-65.38842808 165.11743046 -65.38842808 165.11743046 -66.90342808 164.10743046 C-67.95320832 162.47166177 -68.94809018 160.80009324 -69.90342808 159.10743046 C-71.02554536 157.37639171 -72.15066489 155.64729624 -73.27842808 153.91993046 C-78.55536256 145.61488168 -82.34763935 137.60724894 -84.90342808 128.10743046 C-85.27467808 126.91118046 -85.64592808 125.71493046 -86.02842808 124.48243046 C-90.78292263 106.14366574 -89.64283357 84.72911525 -82.90342808 67.10743046 C-82.4939896 65.99223026 -82.4939896 65.99223026 -82.07627964 64.85450077 C-74.04829595 43.17986439 -74.04829595 43.17986439 -67.90342808 40.10743046 C-67.57342808 39.11743046 -67.24342808 38.12743046 -66.90342808 37.10743046 C-63.22601685 33.08526193 -59.08314436 29.56540685 -54.98936558 25.97461796 C-52.92626839 24.17974359 -52.92626839 24.17974359 -51.25499058 22.36524296 C-49.90342808 21.10743046 -49.90342808 21.10743046 -47.90342808 21.10743046 C-47.40842808 19.62243046 -47.40842808 19.62243046 -46.90342808 18.10743046 C-41.68120586 15.10743046 -41.68120586 15.10743046 -38.90342808 15.10743046 C-38.90342808 14.44743046 -38.90342808 13.78743046 -38.90342808 13.10743046 C-38.09905308 12.98368046 -37.29467808 12.85993046 -36.46592808 12.73243046 C-35.62030308 12.52618046 -34.77467808 12.31993046 -33.90342808 12.10743046 C-33.57342808 11.44743046 -33.24342808 10.78743046 -32.90342808 10.10743046 C-31.04027852 9.20338277 -29.1364216 8.38224211 -27.21592808 7.60743046 C-26.18081089 7.18461796 -25.1456937 6.76180546 -24.07920933 6.32618046 C-18.91491003 4.34430914 -14.071555 2.85712797 -8.59092808 2.04493046 C-5.52624715 1.58880943 -2.78472193 0.15717114 0 0 Z M-28.64561558 56.62696171 C-30.11925251 58.03768522 -30.11925251 58.03768522 -29.90342808 60.10743046 C-30.56342808 60.10743046 -31.22342808 60.10743046 -31.90342808 60.10743046 C-39.12100374 67.47382211 -45.2655606 77.68892839 -45.90342808 88.10743046 C-46.06842808 88.91180546 -46.23342808 89.71618046 -46.40342808 90.54493046 C-49.21771579 104.96815499 -46.72743516 118.06382835 -39.90342808 131.10743046 C-39.24342808 131.10743046 -38.58342808 131.10743046 -37.90342808 131.10743046 C-37.90342808 132.09743046 -37.90342808 133.08743046 -37.90342808 134.10743046 C-37.24342808 134.10743046 -36.58342808 134.10743046 -35.90342808 134.10743046 C-35.57342808 135.42743046 -35.24342808 136.74743046 -34.90342808 138.10743046 C-34.24342808 138.10743046 -33.58342808 138.10743046 -32.90342808 138.10743046 C-32.65592808 138.68493046 -32.40842808 139.26243046 -32.15342808 139.85743046 C-30.72042819 142.43683025 -29.11918131 144.16864638 -26.90342808 146.10743046 C-26.24342808 146.10743046 -25.58342808 146.10743046 -24.90342808 146.10743046 C-24.57342808 147.09743046 -24.24342808 148.08743046 -23.90342808 149.10743046 C-21.08832814 151.38478056 -21.08832814 151.38478056 -17.90342808 151.10743046 C-17.90342808 151.76743046 -17.90342808 152.42743046 -17.90342808 153.10743046 C-1.56320474 160.69810158 15.73717204 162.87657233 33.09657192 157.10743046 C35.49980668 156.20008672 37.77595338 155.2149984 40.09657192 154.10743046 C40.09657192 153.44743046 40.09657192 152.78743046 40.09657192 152.10743046 C41.74657192 151.77743046 43.39657192 151.44743046 45.09657192 151.10743046 C45.59157192 149.62243046 45.59157192 149.62243046 46.09657192 148.10743046 C46.69469692 147.98368046 47.29282192 147.85993046 47.90907192 147.73243046 C51.09873105 146.82109928 52.10574892 144.70153316 54.09657192 142.10743046 C54.87903286 141.5183289 55.6614938 140.92922733 56.46766567 140.32227421 C64.92507558 133.19693778 69.2511407 121.67260874 70.78407192 110.98243046 C72.07983495 95.43327412 70.69487696 82.95256336 63.09657192 69.10743046 C62.43657192 69.10743046 61.77657192 69.10743046 61.09657192 69.10743046 C61.03469692 68.57118046 60.97282192 68.03493046 60.90907192 67.48243046 C57.91489297 58.73021506 47.51949551 51.84240511 39.85438442 47.45899296 C30.64010366 42.9432123 21.27831215 41.3750189 11.09657192 41.10743046 C10.10528286 41.08036015 9.1139938 41.05328983 8.09266567 41.02539921 C-5.44326921 41.39600499 -18.74388836 47.57454582 -28.64561558 56.62696171 Z " fill="#F9F9F9" transform="translate(87.90342807769775,58.89256954193115)"/>
<path d="M0 0 C2.25539929 0.01074116 4.5100053 0.00003724 6.76538086 -0.01269531 C13.73451228 -0.01873301 20.44646764 0.13535279 27.25927734 1.79541016 C29.43388708 2.36267689 29.43388708 2.36267689 32.69311523 2.63574219 C37.49768618 3.49370128 41.72082279 5.35534428 46.19311523 7.26074219 C47.85960691 7.92784616 49.52626411 8.59453684 51.19311523 9.26074219 C53.53248504 10.24716892 55.8618828 11.25511251 58.19311523 12.26074219 C58.19311523 12.92074219 58.19311523 13.58074219 58.19311523 14.26074219 C58.87374023 14.46699219 59.55436523 14.67324219 60.25561523 14.88574219 C64.18828664 16.7265671 67.02434033 19.3307106 70.19311523 22.26074219 C71.14186523 23.12699219 72.09061523 23.99324219 73.06811523 24.88574219 C75.18129538 27.24753176 75.55731328 28.2936664 76.19311523 31.26074219 C77.18311523 31.59074219 78.17311523 31.92074219 79.19311523 32.26074219 C79.52311523 33.91074219 79.85311523 35.56074219 80.19311523 37.26074219 C80.85311523 37.26074219 81.51311523 37.26074219 82.19311523 37.26074219 C94.68300491 62.97131295 96.89803205 96.05288235 88.31811523 123.40136719 C85.75973575 129.90391504 82.41870602 136.0699222 79.19311523 142.26074219 C78.86311523 142.92074219 78.53311523 143.58074219 78.19311523 144.26074219 C77.53311523 144.26074219 76.87311523 144.26074219 76.19311523 144.26074219 C76.19311523 145.25074219 76.19311523 146.24074219 76.19311523 147.26074219 C75.53311523 147.26074219 74.87311523 147.26074219 74.19311523 147.26074219 C73.86311523 148.25074219 73.53311523 149.24074219 73.19311523 150.26074219 C64.40251527 159.94314215 53.5445768 166.30289779 41.19311523 170.26074219 C40.53480713 170.50300537 39.87649902 170.74526855 39.19824219 170.99487305 C33.20294101 173.15307466 27.31888159 174.17993604 21.00561523 174.94824219 C19.99329834 175.07489258 18.98098145 175.20154297 17.93798828 175.33203125 C10.29359692 176.23790658 2.89259313 176.65660223 -4.80688477 176.26074219 C-5.76852539 176.22980469 -6.73016602 176.19886719 -7.72094727 176.16699219 C-25.87163347 175.18851854 -48.84078341 169.37032525 -61.89672852 156.14355469 C-63.05340067 154.80836864 -64.18352965 153.44917584 -65.27172852 152.05761719 C-66.77548206 150.14799082 -66.77548206 150.14799082 -68.99829102 148.71386719 C-69.59512695 148.23433594 -70.19196289 147.75480469 -70.80688477 147.26074219 C-70.80688477 146.27074219 -70.80688477 145.28074219 -70.80688477 144.26074219 C-71.46688477 144.26074219 -72.12688477 144.26074219 -72.80688477 144.26074219 C-76.715764 136.73213368 -80.41242925 129.42906206 -82.80688477 121.26074219 C-83.17813477 120.25011719 -83.54938477 119.23949219 -83.93188477 118.19824219 C-85.02237734 114.53730283 -85.38464842 111.06086934 -85.80688477 107.26074219 C-85.97744385 106.50623779 -86.14800293 105.7517334 -86.32373047 104.97436523 C-87.29776791 99.50371026 -86.99279036 93.87825998 -86.9921875 88.33374023 C-86.99436107 86.09762157 -87.01250502 83.86200728 -87.03149414 81.62597656 C-87.06184093 73.97751913 -86.8126514 66.69311369 -84.80688477 59.26074219 C-84.56067383 58.30941406 -84.31446289 57.35808594 -84.06079102 56.37792969 C-82.48308934 51.26154121 -80.7477028 46.25141713 -78.80688477 41.26074219 C-78.14688477 41.26074219 -77.48688477 41.26074219 -76.80688477 41.26074219 C-76.37375977 39.89949219 -76.37375977 39.89949219 -75.93188477 38.51074219 C-75.04156701 35.93871311 -74.09194064 33.64727453 -72.80688477 31.26074219 C-72.14688477 31.26074219 -71.48688477 31.26074219 -70.80688477 31.26074219 C-70.66766602 30.37322266 -70.66766602 30.37322266 -70.52563477 29.46777344 C-69.63430683 26.73081538 -68.50877696 25.77878351 -66.30688477 23.94824219 C-65.59274414 23.35269531 -64.87860352 22.75714844 -64.14282227 22.14355469 C-63.37196289 21.52222656 -62.60110352 20.90089844 -61.80688477 20.26074219 C-60.99477539 19.59816406 -60.18266602 18.93558594 -59.34594727 18.25292969 C-53.10066007 13.26074219 -53.10066007 13.26074219 -50.80688477 13.26074219 C-50.47688477 12.60074219 -50.14688477 11.94074219 -49.80688477 11.26074219 C-44.70839365 8.38704719 -39.73246807 6.49212749 -34.10766602 4.91308594 C-32.34006461 4.41191542 -30.59711634 3.82316637 -28.86938477 3.19824219 C-19.34620383 0.28298272 -9.87859064 -0.0559267 0 0 Z M-8.80688477 20.26074219 C-8.80688477 20.92074219 -8.80688477 21.58074219 -8.80688477 22.26074219 C-9.40500977 22.36386719 -10.00313477 22.46699219 -10.61938477 22.57324219 C-15.12402993 23.98898781 -17.74237109 28.3666911 -19.97485352 32.33886719 C-25.64817932 44.42457273 -27.92840653 58.03733289 -28.80688477 71.26074219 C-28.85731934 71.96489258 -28.90775391 72.66904297 -28.9597168 73.39453125 C-30.70906344 98.44935268 -31.69173738 129.86835613 -14.68188477 150.32324219 C-13.74135639 151.31952353 -12.785483 152.3018284 -11.80688477 153.26074219 C-11.18813477 153.87949219 -10.56938477 154.49824219 -9.93188477 155.13574219 C-4.53503596 157.99289744 3.18645767 157.75178073 9.19311523 157.26074219 C12.12392197 156.39420804 12.12392197 156.39420804 14.19311523 155.26074219 C14.19311523 154.60074219 14.19311523 153.94074219 14.19311523 153.26074219 C15.51311523 152.93074219 16.83311523 152.60074219 18.19311523 152.26074219 C18.19311523 151.60074219 18.19311523 150.94074219 18.19311523 150.26074219 C18.85311523 150.26074219 19.51311523 150.26074219 20.19311523 150.26074219 C20.19311523 149.60074219 20.19311523 148.94074219 20.19311523 148.26074219 C20.85311523 148.26074219 21.51311523 148.26074219 22.19311523 148.26074219 C23.51843585 145.74595387 24.82831754 143.22492232 26.13061523 140.69824219 C26.50379883 139.99376953 26.87698242 139.28929687 27.26147461 138.56347656 C29.56103191 134.06794562 30.63082605 130.33318254 31.19311523 125.26074219 C31.53213867 124.26300781 31.87116211 123.26527344 32.22045898 122.23730469 C33.29664348 118.94392082 33.57221491 116.09303334 33.75561523 112.63574219 C33.82651367 111.32734375 33.89741211 110.01894531 33.97045898 108.67089844 C34.00510254 107.96465332 34.03974609 107.2584082 34.07543945 106.53076172 C34.20120506 104.10468571 34.35402555 101.68117994 34.50952148 99.25683594 C35.01702167 90.96531663 35.36584567 82.92506036 34.44311523 74.64355469 C34.19311523 72.26074219 34.19311523 72.26074219 34.25561523 68.82324219 C34.02488586 55.67166782 30.57796404 40.33801539 23.19311523 29.26074219 C22.53311523 29.26074219 21.87311523 29.26074219 21.19311523 29.26074219 C21.03842773 28.30167969 21.03842773 28.30167969 20.88061523 27.32324219 C20.65374023 26.64261719 20.42686523 25.96199219 20.19311523 25.26074219 C19.20311523 24.93074219 18.21311523 24.60074219 17.19311523 24.26074219 C17.19311523 23.60074219 17.19311523 22.94074219 17.19311523 22.26074219 C8.77288981 17.60362986 0.2547865 16.34218164 -8.80688477 20.26074219 Z " fill="#F7F7F7" transform="translate(306.806884765625,65.7392578125)"/>
<path d="M0 0 C1.2578125 1.26171875 1.2578125 1.26171875 1.2578125 3.26171875 C2.2478125 3.59171875 3.2378125 3.92171875 4.2578125 4.26171875 C6.30078125 6.6953125 6.30078125 6.6953125 8.4453125 9.69921875 C9.16074219 10.68792969 9.87617187 11.67664063 10.61328125 12.6953125 C12.2578125 15.26171875 12.2578125 15.26171875 12.2578125 17.26171875 C12.9178125 17.26171875 13.5778125 17.26171875 14.2578125 17.26171875 C19.82005454 31.446336 24.40192424 45.03412586 24.42578125 60.46875 C24.42910965 61.23418625 24.43243805 61.9996225 24.43586731 62.78825378 C24.44090211 64.39927576 24.44327671 66.01030805 24.44311523 67.62133789 C24.44529706 70.05698246 24.46347668 72.49216995 24.48242188 74.92773438 C24.51180537 82.92454865 24.39569279 90.49290833 22.2578125 98.26171875 C21.83242188 99.94394531 21.83242188 99.94394531 21.3984375 101.66015625 C19.10837706 109.31377931 16.05500789 116.23690727 12.2578125 123.26171875 C11.5978125 123.26171875 10.9378125 123.26171875 10.2578125 123.26171875 C10.0103125 123.98359375 9.7628125 124.70546875 9.5078125 125.44921875 C8.13511658 128.53778457 6.53427954 130.77183293 4.2578125 133.26171875 C3.5978125 133.26171875 2.9378125 133.26171875 2.2578125 133.26171875 C1.9278125 134.25171875 1.5978125 135.24171875 1.2578125 136.26171875 C-3.08504464 140.26171875 -3.08504464 140.26171875 -6.7421875 140.26171875 C-6.7421875 140.92171875 -6.7421875 141.58171875 -6.7421875 142.26171875 C-34.36652071 158.65494679 -67.02167294 160.13096588 -97.8828125 153.41796875 C-106.19244677 151.25671858 -113.37905343 147.62693303 -120.7421875 143.26171875 C-121.65484375 142.72933594 -122.5675 142.19695312 -123.5078125 141.6484375 C-125.59303795 140.35428534 -127.0594009 139.02463805 -128.7421875 137.26171875 C-129.4021875 136.93171875 -130.0621875 136.60171875 -130.7421875 136.26171875 C-130.7421875 135.60171875 -130.7421875 134.94171875 -130.7421875 134.26171875 C-131.7321875 133.93171875 -132.7221875 133.60171875 -133.7421875 133.26171875 C-135.12890625 131.703125 -135.12890625 131.703125 -136.4296875 129.82421875 C-136.86667969 129.20675781 -137.30367188 128.58929688 -137.75390625 127.953125 C-138.7421875 126.26171875 -138.7421875 126.26171875 -138.7421875 124.26171875 C-139.4021875 124.26171875 -140.0621875 124.26171875 -140.7421875 124.26171875 C-155.44092635 96.18712754 -159.17931993 63.77071169 -150.34667969 33.17138672 C-148.92885423 28.69229513 -147.1363221 24.3089463 -144.7421875 20.26171875 C-143.7521875 19.76671875 -143.7521875 19.76671875 -142.7421875 19.26171875 C-142.04960521 17.27054467 -141.38471115 15.26960515 -140.7421875 13.26171875 C-140.0821875 12.27171875 -139.4221875 11.28171875 -138.7421875 10.26171875 C-138.0821875 10.26171875 -137.4221875 10.26171875 -136.7421875 10.26171875 C-136.4946875 9.68421875 -136.2471875 9.10671875 -135.9921875 8.51171875 C-133.38749442 3.82327121 -128.91453108 0.52703112 -124.7421875 -2.73828125 C-124.0821875 -2.73828125 -123.4221875 -2.73828125 -122.7421875 -2.73828125 C-122.7421875 -3.39828125 -122.7421875 -4.05828125 -122.7421875 -4.73828125 C-121.7521875 -4.73828125 -120.7621875 -4.73828125 -119.7421875 -4.73828125 C-119.7421875 -5.39828125 -119.7421875 -6.05828125 -119.7421875 -6.73828125 C-112.19647794 -10.39286472 -104.84799354 -13.58722593 -96.7421875 -15.73828125 C-95.66839844 -16.06957031 -94.59460938 -16.40085937 -93.48828125 -16.7421875 C-63.01381658 -24.84540803 -25.2509619 -19.28159225 0 0 Z M-80.7421875 4.26171875 C-80.7421875 4.92171875 -80.7421875 5.58171875 -80.7421875 6.26171875 C-81.4021875 6.26171875 -82.0621875 6.26171875 -82.7421875 6.26171875 C-83.4021875 8.24171875 -84.0621875 10.22171875 -84.7421875 12.26171875 C-85.4021875 12.26171875 -86.0621875 12.26171875 -86.7421875 12.26171875 C-89.69058619 18.27819283 -92.09415683 23.52219976 -92.7421875 30.26171875 C-93.0515625 31.27234375 -93.3609375 32.28296875 -93.6796875 33.32421875 C-96.85404982 44.07446952 -97.06590321 55.28017434 -97.00292969 66.39257812 C-96.9922298 68.62788204 -97.00288557 70.86237676 -97.015625 73.09765625 C-97.02794334 84.91062321 -96.75546379 97.04329687 -92.7421875 108.26171875 C-92.42750351 109.7152591 -92.13370707 111.17358073 -91.8671875 112.63671875 C-90.88146318 117.31890928 -89.0279396 121.07117323 -86.7421875 125.26171875 C-86.0821875 125.26171875 -85.4221875 125.26171875 -84.7421875 125.26171875 C-84.7421875 126.25171875 -84.7421875 127.24171875 -84.7421875 128.26171875 C-84.0821875 128.26171875 -83.4221875 128.26171875 -82.7421875 128.26171875 C-82.6596875 128.85984375 -82.5771875 129.45796875 -82.4921875 130.07421875 C-81.51924323 132.91197286 -80.29769437 133.75847942 -77.7421875 135.26171875 C-76.7521875 135.26171875 -75.7621875 135.26171875 -74.7421875 135.26171875 C-74.2471875 136.25171875 -74.2471875 136.25171875 -73.7421875 137.26171875 C-64.94898107 139.05625067 -58.28821033 139.22192772 -50.7421875 134.26171875 C-40.56978716 125.74529055 -36.56917649 112.95276724 -34.7421875 100.26171875 C-34.46375 98.69550781 -34.46375 98.69550781 -34.1796875 97.09765625 C-32.68466771 87.56690512 -32.55383718 78.07991666 -32.5546875 68.44921875 C-32.55378113 67.78208862 -32.55287476 67.1149585 -32.55194092 66.4276123 C-32.55522024 45.07398049 -33.55113713 21.78593289 -48.7421875 5.26171875 C-54.41268905 -0.13217296 -60.2031352 -1.23490535 -67.83984375 -1.140625 C-72.6810598 -0.46950084 -76.60750034 1.75041202 -80.7421875 4.26171875 Z " fill="#F7F7F7" transform="translate(575.7421875,84.73828125)"/>
<path d="M0 0 C1.05566162 0.00338379 2.11132324 0.00676758 3.19897461 0.01025391 C17.63138612 0.10542969 29.67142093 1.6696495 43.25 6.75 C44.12462891 7.07484375 44.99925781 7.3996875 45.90039062 7.734375 C48.03864174 8.5289164 50.17597234 9.32583836 52.3125 10.125 C52.3125 10.785 52.3125 11.445 52.3125 12.125 C53.9625 12.455 55.6125 12.785 57.3125 13.125 C57.3125 13.785 57.3125 14.445 57.3125 15.125 C59.2925 15.62 59.2925 15.62 61.3125 16.125 C61.3125 16.785 61.3125 17.445 61.3125 18.125 C62.3025 18.125 63.2925 18.125 64.3125 18.125 C66 19.5 66 19.5 67.3125 21.125 C67.3125 21.785 67.3125 22.445 67.3125 23.125 C67.9725 23.125 68.6325 23.125 69.3125 23.125 C70.71799561 24.73128069 72.03187515 26.4175002 73.3125 28.125 C73.99699219 28.92744141 73.99699219 28.92744141 74.6953125 29.74609375 C89.75701521 48.08036537 89.3125 71.5486565 89.3125 94.125 C49.7125 94.455 10.1125 94.785 -30.6875 95.125 C-29.52291854 121.95913824 -29.52291854 121.95913824 -20.6875 147.125 C-20.30722656 147.83140625 -19.92695312 148.5378125 -19.53515625 149.265625 C-16.35910086 154.74508158 -13.19125629 159.07887848 -6.953125 160.94140625 C-0.64814324 162.21360435 5.33986217 162.86798923 11.3125 160.125 C15.32662497 157.3396888 18.7416642 154.8375074 20.3125 150.125 C20.9725 150.125 21.6325 150.125 22.3125 150.125 C22.45042969 149.41730469 22.58835937 148.70960938 22.73046875 147.98046875 C25.49608996 134.41221971 29.35868242 117.67775106 40.609375 108.4453125 C47.26158964 105.19610939 56.04222998 105.1921459 63.19140625 106.75390625 C65.375 107.5625 65.375 107.5625 68.3125 109.125 C68.3125 109.785 68.3125 110.445 68.3125 111.125 C68.90804688 111.38925781 69.50359375 111.65351563 70.1171875 111.92578125 C74.78600004 114.47618241 77.66575535 118.63467537 79.75 123.4375 C81.4599418 134.64711848 77.30142784 143.80141321 71.3125 153.125 C67.25590798 158.21760391 63.52615679 161.97035193 57.3125 164.125 C57.3125 164.785 57.3125 165.445 57.3125 166.125 C43.15293849 171.35473586 30.07723376 175.26932309 14.8671875 175.29296875 C14.09424347 175.29629715 13.32129944 175.29962555 12.52493286 175.30305481 C10.8997659 175.30807916 9.27458878 175.31046454 7.64941406 175.31030273 C5.21401132 175.31247634 2.77907221 175.33064499 0.34375 175.34960938 C-22.94481656 175.43314877 -44.55454936 171.8038671 -62.6875 156.125 C-63.43515625 155.53203125 -64.1828125 154.9390625 -64.953125 154.328125 C-78.64438453 143.05844879 -85.44337763 126.39293108 -87.6875 109.125 C-87.97947266 107.44857422 -87.97947266 107.44857422 -88.27734375 105.73828125 C-91.64585017 84.31634172 -89.82203512 61.87215035 -80.6875 42.125 C-80.07878599 40.71028128 -79.473795 39.29394551 -78.875 37.875 C-78.483125 36.9675 -78.09125 36.06 -77.6875 35.125 C-77.0275 35.125 -76.3675 35.125 -75.6875 35.125 C-75.6875 34.135 -75.6875 33.145 -75.6875 32.125 C-75.0275 32.125 -74.3675 32.125 -73.6875 32.125 C-73.5946875 31.2896875 -73.5946875 31.2896875 -73.5 30.4375 C-72.32183878 27.08427191 -70.30912281 25.52350598 -67.6875 23.125 C-67.01460937 22.50625 -66.34171875 21.8875 -65.6484375 21.25 C-59.96547379 16.125 -59.96547379 16.125 -57.6875 16.125 C-57.6875 15.465 -57.6875 14.805 -57.6875 14.125 C-42.10497573 5.125 -42.10497573 5.125 -33.6875 5.125 C-33.3575 4.465 -33.0275 3.805 -32.6875 3.125 C-30.28125 2.52734375 -30.28125 2.52734375 -27.1875 2.0625 C-26.1871875 1.90652344 -25.186875 1.75054687 -24.15625 1.58984375 C-22.43921875 1.35974609 -22.43921875 1.35974609 -20.6875 1.125 C-20.02645264 1.03379883 -19.36540527 0.94259766 -18.68432617 0.84863281 C-12.4491639 0.06109237 -6.27916914 -0.02894316 0 0 Z M-18.6875 25.125 C-19.02199922 26.45804132 -19.35545819 27.79134445 -19.6875 29.125 C-20.6775 29.455 -21.6675 29.785 -22.6875 30.125 C-28.60210059 39.4752877 -30.11122242 51.34802824 -30.875 62.125 C-30.95685547 63.14722656 -31.03871094 64.16945312 -31.12304688 65.22265625 C-31.40871073 68.86667075 -31.6875 72.46882704 -31.6875 76.125 C-10.5675 76.125 10.5525 76.125 32.3125 76.125 C32.37466175 49.29826939 32.37466175 49.29826939 20.32421875 26 C9.89093416 16.27577358 -7.93619742 14.96319443 -18.6875 25.125 Z " fill="#F8F8F8" transform="translate(1090.6875,65.875)"/>
<path d="M0 0 C1.607043 -0.00472824 1.607043 -0.00472824 3.24655151 -0.009552 C4.99646896 -0.00651566 4.99646896 -0.00651566 6.78173828 -0.00341797 C7.97179474 -0.00437469 9.1618512 -0.00533142 10.38796997 -0.00631714 C12.91164197 -0.00699928 15.43531572 -0.00514262 17.95898438 -0.00097656 C21.82832785 0.0043618 25.69755474 -0.00091558 29.56689453 -0.00732422 C32.01350937 -0.00666326 34.46012414 -0.00538173 36.90673828 -0.00341797 C38.65058304 -0.00645432 38.65058304 -0.00645432 40.42965698 -0.009552 C41.5073233 -0.00639984 42.58498962 -0.00324768 43.6953125 0 C45.11975174 0.00119339 45.11975174 0.00119339 46.57296753 0.00241089 C48.97705078 0.12939453 48.97705078 0.12939453 51.97705078 1.12939453 C52.95744503 5.20872601 53.08716933 8.99487901 53.05934143 13.18452454 C53.0561123 13.88300056 53.05288318 14.58147659 53.0495562 15.30111855 C53.03751943 17.63496577 53.01813882 19.96869314 52.9987793 22.30249023 C52.98863244 23.97808067 52.97893921 25.65367391 52.96966553 27.32926941 C52.94322528 31.87432152 52.91043747 36.41930833 52.87651563 40.96430993 C52.84213224 45.71553798 52.81357875 50.46680096 52.78440857 55.21806335 C52.72829421 64.21358299 52.66693187 73.20905887 52.60368723 82.20453089 C52.53193576 92.4462643 52.46602993 102.68803271 52.40061677 112.92980826 C52.26593568 133.99638248 52.12390822 155.0629019 51.97705078 176.12939453 C48.45870272 176.86941653 45.25124478 177.255641 41.65185547 177.25878906 C40.61438171 177.26194122 39.57690796 177.26509338 38.50799561 177.26834106 C37.39950256 177.26631683 36.29100952 177.2642926 35.14892578 177.26220703 C34.00417786 177.26316376 32.85942993 177.26412048 31.67999268 177.2651062 C29.26599065 177.26578567 26.85198678 177.26394766 24.43798828 177.25976562 C20.72700957 177.25439447 17.01615082 177.2597286 13.30517578 177.26611328 C10.96142551 177.26545284 8.61767532 177.2641724 6.27392578 177.26220703 C5.15733582 177.26423126 4.04074585 177.26625549 2.89031982 177.26834106 C1.35302216 177.26361282 1.35302216 177.26361282 -0.21533203 177.25878906 C-1.5750412 177.25759567 -1.5750412 177.25759567 -2.96221924 177.25637817 C-5.02294922 177.12939453 -5.02294922 177.12939453 -6.02294922 176.12939453 C-6.12220971 173.87878395 -6.14927357 171.62499069 -6.14993286 169.37219238 C-6.15149285 168.65742186 -6.15305284 167.94265134 -6.15466011 167.2062211 C-6.15867256 164.79322194 -6.15547953 162.38028487 -6.15234375 159.96728516 C-6.15369768 158.24464379 -6.15547757 156.52200271 -6.15765381 154.79936218 C-6.1622291 150.10734796 -6.16043819 145.41535562 -6.15727472 140.72334099 C-6.15475161 135.82438979 -6.15708852 130.92544053 -6.15866089 126.02648926 C-6.16048273 117.7979295 -6.1580759 109.56937871 -6.15332031 101.34082031 C-6.14787767 91.81312355 -6.14964031 82.28544818 -6.15514672 72.75775194 C-6.15967744 64.59302604 -6.1603286 56.4283066 -6.15770805 48.26357985 C-6.15614505 43.3803316 -6.15595213 38.49709343 -6.15924454 33.61384583 C-6.16212266 29.02404079 -6.16014865 24.43426347 -6.15435028 19.84446144 C-6.15302236 18.15492105 -6.15341733 16.46537834 -6.15561295 14.77583885 C-6.15832323 12.47939276 -6.15494485 10.18303693 -6.14993286 7.88659668 C-6.14955584 6.59830711 -6.14917881 5.31001755 -6.14879036 3.9826889 C-5.93966173 -0.75904765 -4.27710056 0.00358935 0 0 Z " fill="#F6F6F6" transform="translate(921.02294921875,64.87060546875)"/>
<path d="M0 0 C13.86 0 27.72 0 42 0 C44.31 4.29 46.62 8.58 49 13 C51.94835404 16.56259446 54.74047322 19.78158437 58 23 C58.54011719 23.56203125 59.08023438 24.1240625 59.63671875 24.703125 C69.99869727 34.62139159 85.07186624 38.99106384 99.0625 39.375 C110.39230387 39.06202199 119.32726582 35.68042021 129.1640625 30.42578125 C132 29 132 29 134 29 C134 28.34 134 27.68 134 27 C135.64453125 25.66796875 135.64453125 25.66796875 137.8125 24.1875 C141.16187753 21.7773659 143.09048659 19.71294273 145 16 C145.66 15.67 146.32 15.34 147 15 C147.33 14.01 147.66 13.02 148 12 C148.66 12 149.32 12 150 12 C150.268125 11.13375 150.53625 10.2675 150.8125 9.375 C152 6 152 6 155 0 C168.86 0 182.72 0 197 0 C193.52056962 17.3971519 193.52056962 17.3971519 190.25 23.8125 C189.90437012 24.51753662 189.55874023 25.22257324 189.20263672 25.94897461 C186.36370217 31.59898562 183.2738412 37.29877468 179 42 C178.34 42 177.68 42 177 42 C176.74476563 42.74378906 176.48953125 43.48757813 176.2265625 44.25390625 C173.10196534 51.24942156 165.42146174 57.02050259 159 61 C158.34 61 157.68 61 157 61 C157 61.66 157 62.32 157 63 C155.68 63.33 154.36 63.66 153 64 C153 64.66 153 65.32 153 66 C150.525 66.495 150.525 66.495 148 67 C148 67.66 148 68.32 148 69 C144.91190305 70.76462683 143.76687864 71 140 71 C139.67 71.66 139.34 72.32 139 73 C135.45069915 74.64479795 131.71830169 75.7960667 128 77 C127.09894531 77.29390625 126.19789063 77.5878125 125.26953125 77.890625 C116.00501252 80.55629753 106.57756419 80.78466678 97 81 C96.12053711 81.03496582 95.24107422 81.06993164 94.33496094 81.10595703 C87.63303482 81.275461 81.80656476 80.34291194 75.375 78.5 C74.43003662 78.23590332 73.48507324 77.97180664 72.51147461 77.69970703 C59.2614308 73.82213545 44.74438055 67.98799006 35 58 C33.90816406 57.26136719 32.81632812 56.52273438 31.69140625 55.76171875 C27.8751644 53.07442772 25.21896225 49.9662118 22.4375 46.25 C21.96207764 45.62585205 21.48665527 45.0017041 20.99682617 44.35864258 C19.65237147 42.58114599 18.32465331 40.79227188 17 39 C16.41992188 38.23558594 15.83984375 37.47117187 15.2421875 36.68359375 C11.88609955 31.99790812 9.33442472 26.91699589 6.8125 21.75 C6.47903564 21.08315186 6.14557129 20.41630371 5.80200195 19.72924805 C2.67499103 13.09664773 1.74681864 7.56954746 0 0 Z " fill="#F8F8F8" transform="translate(2,259)"/>
<path d="M0 0 C1.46738608 1.04996212 2.92614267 2.11211412 4.375 3.1875 C5.02855469 3.62835938 5.68210938 4.06921875 6.35546875 4.5234375 C12.75304139 9.24318192 14.36661475 15.90186271 16.125 23.375 C17.08223421 34.14388483 15.36566012 43.78743482 8.6875 52.625 C1.72191277 60.6023485 -6.21971711 65.01309476 -16.8125 66 C-27.23030102 66.64000143 -35.61015255 63.8690647 -43.625 57.1875 C-50.9726653 50.42182799 -54.86922074 42.02144271 -55.828125 32.08203125 C-56.07890907 20.9430387 -52.0553959 12.14717425 -44.62109375 3.98828125 C-32.08060185 -8.14840233 -14.53355633 -9.32202855 0 0 Z " fill="#B43601" transform="translate(119.625,128.8125)"/>
<path d="M0 0 C1.03769531 -0.02835937 2.07539062 -0.05671875 3.14453125 -0.0859375 C11.86204842 -0.10792367 17.69364076 2.14489319 23.9375 8.25 C29.87316928 17.06870865 32.55062773 26.46039443 30.6484375 37.1875 C29.23018854 41.8007054 27.1239631 45.72711094 24.125 49.5 C23.465 49.5 22.805 49.5 22.125 49.5 C22.125 50.16 22.125 50.82 22.125 51.5 C14.11536082 58.32302597 5.82249054 60.06500576 -4.46484375 59.96875 C-10.23842515 59.17513056 -14.94174042 56.48662202 -19.875 53.5 C-19.875 52.84 -19.875 52.18 -19.875 51.5 C-20.74125 51.2215625 -20.74125 51.2215625 -21.625 50.9375 C-26.08347221 48.08903164 -28.1670561 42.36656818 -29.875 37.5 C-31.48454628 28.15737045 -30.75913046 21.26826093 -26.5625 12.875 C-19.03889488 2.28622242 -12.94083624 -0.03191328 0 0 Z " fill="#F5F5F5" transform="translate(943.875,-0.5)"/>
<path d="M0 0 C1.46738608 1.04996212 2.92614267 2.11211412 4.375 3.1875 C5.02855469 3.62835938 5.68210938 4.06921875 6.35546875 4.5234375 C12.75304139 9.24318192 14.36661475 15.90186271 16.125 23.375 C16.96689077 32.84627113 15.78723087 42.06915369 10.375 50.1875 C7.25 50.875 7.25 50.875 4.375 51.1875 C4.045 52.8375 3.715 54.4875 3.375 56.1875 C3.045 56.1875 2.715 56.1875 2.375 56.1875 C2.2203125 54.764375 2.2203125 54.764375 2.0625 53.3125 C1.68960705 49.89642499 1.68960705 49.89642499 -1.625 48.1875 C-1.2640625 47.55585938 -0.903125 46.92421875 -0.53125 46.2734375 C3.38492599 38.72392045 4.95682831 31.66391791 3.375 23.1875 C1.63376227 20.81116036 -0.10405298 19.85132503 -2.625 18.1875 C-3.30755989 15.85876625 -3.97550775 13.52567209 -4.625 11.1875 C-9.395725 7.34441597 -15.30907997 5.70324303 -21.41015625 5.8671875 C-27.77165469 6.78719257 -34.07630036 9.63880036 -38.625 14.1875 C-43.30464315 20.77366444 -44.27456793 27.28663289 -43.625 35.1875 C-42.7521302 38.2089724 -41.8022181 39.95964816 -39.875 42.4375 C-37.9848951 46.59573079 -39.34137182 49.9487566 -40.625 54.1875 C-45.09161951 53.6770292 -47.51823857 52.45358253 -50.625 49.1875 C-55.32387447 39.88404286 -57.19070424 30.3646931 -54.5 20.1875 C-51.16480137 10.21278559 -44.35423911 1.82354244 -35.05859375 -3.19921875 C-23.06006009 -8.17677638 -10.80333937 -6.92941464 0 0 Z " fill="#CE3F04" transform="translate(119.625,128.8125)"/>
<path d="M0 0 C2.86915343 0.59070806 4.8827748 1.55692402 7.125 3.4375 C7.125 4.0975 7.125 4.7575 7.125 5.4375 C7.785 4.7775 8.445 4.1175 9.125 3.4375 C11.93959362 1.38068159 13.96395795 1.36662488 17.3125 1.75 C21.125 2.4375 21.125 2.4375 22.125 3.4375 C22.81758941 11.80534251 22.69893928 18.29071988 18.125 25.4375 C17.465 25.4375 16.805 25.4375 16.125 25.4375 C15.88394531 26.04078125 15.64289063 26.6440625 15.39453125 27.265625 C12.94786115 31.45131293 8.59292554 32.98687483 4.125 34.4375 C-1.3233988 34.99345906 -6.64487497 35.18087501 -11.875 33.4375 C-11.875 32.4475 -11.875 31.4575 -11.875 30.4375 C-12.535 30.4375 -13.195 30.4375 -13.875 30.4375 C-13.25961538 22.92980769 -13.25961538 22.92980769 -11.3125 20.4375 C-10.838125 20.1075 -10.36375 19.7775 -9.875 19.4375 C-10.37 18.756875 -10.865 18.07625 -11.375 17.375 C-13.28988105 13.62502461 -13.52201716 11.60716614 -12.875 7.4375 C-9.89416922 1.64520382 -6.49348693 -0.52649894 0 0 Z " fill="#B33601" transform="translate(101.875,148.5625)"/>
<path d="M0 0 C0.495 1.485 0.495 1.485 1 3 C1.99 3.66 2.98 4.32 4 5 C4.495 6.485 4.495 6.485 5 8 C5.33 7.34 5.66 6.68 6 6 C6.66 6 7.32 6 8 6 C8.33 5.34 8.66 4.68 9 4 C9.66 4.66 10.32 5.32 11 6 C5.18201938 13.88242536 -2.30018185 18.85612861 -12.04296875 20.51953125 C-22.87581939 21.52880305 -31.19713064 19.95680599 -40.1171875 13.5625 C-42.4587584 11.61928763 -44.29648865 9.51823416 -46 7 C-43.69 7.66 -41.38 8.32 -39 9 C-38.814375 7.576875 -38.814375 7.576875 -38.625 6.125 C-38 3 -38 3 -36 1 C-34.60026042 2.23697917 -33.20052083 3.47395833 -31.80078125 4.7109375 C-25.83299479 8.98288876 -19.04573858 8.815479 -12 8 C-6.9120635 6.2775215 -3.01297258 4.51945887 0 0 Z " fill="#CD3F04" transform="translate(118,174)"/>
<path d="M0 0 C4.58385008 3.50593759 5.48266224 9.69549545 6.6875 15.0625 C7.6964348 24.54648712 6.41364227 33.87953659 1 42 C-2.125 42.6875 -2.125 42.6875 -5 43 C-5.495 45.475 -5.495 45.475 -6 48 C-6.33 48 -6.66 48 -7 48 C-7.103125 47.05125 -7.20625 46.1025 -7.3125 45.125 C-7.68539295 41.70892499 -7.68539295 41.70892499 -11 40 C-10.6390625 39.36835938 -10.278125 38.73671875 -9.90625 38.0859375 C-5.99524203 30.54638325 -4.40038521 23.4659885 -6 15 C-7.76345169 12.67244705 -9.52411666 11.65058889 -12 10 C-12.75002573 6.32487393 -12.49744129 4.78761537 -10.5 1.625 C-6.75900771 -0.80664499 -4.42573582 -0.49174842 0 0 Z " fill="#D44207" transform="translate(129,137)"/>
<path d="M0 0 C4.50814939 0.92325569 6.60473817 2.66491975 9.1171875 6.43359375 C9.84743132 10.96789843 9.73474552 14.43272385 7.3046875 18.37109375 C3.66484906 21.80294142 1.24345349 22.93615868 -3.8125 22.82421875 C-7.53275143 22.12228452 -9.30110791 20.14123515 -11.8828125 17.43359375 C-13.11815295 13.7275724 -13.33809995 11.33605761 -12.8828125 7.43359375 C-9.93047818 1.63034118 -6.47636078 -0.53424525 0 0 Z " fill="#030100" transform="translate(101.8828125,148.56640625)"/>
<path d="M0 0 C2 1.0625 2 1.0625 3 3 C3.49573337 6.89504791 3.58016848 9.09493717 1.4375 12.4375 C-1.94217804 14.60396028 -4.05983987 14.56288002 -8 14 C-10.4375 12.375 -10.4375 12.375 -12 10 C-12.60024477 6.39853135 -12.45562482 4.72140596 -10.5 1.625 C-6.75900771 -0.80664499 -4.42573582 -0.49174842 0 0 Z " fill="#F8F6F4" transform="translate(129,137)"/>
<path d="M0 0 C0 0.99 0 1.98 0 3 C0.99 3.66 1.98 4.32 3 5 C1.88809524 8.33571429 1.53679327 8.58417079 -1.375 10.1875 C-1.98085937 10.53167969 -2.58671875 10.87585938 -3.2109375 11.23046875 C-5 12 -5 12 -8 12 C-9.17686789 9.50780916 -10.03861725 7.65649326 -9.875 4.875 C-7.79112757 0.40955908 -4.65497775 -0.38791481 0 0 Z " fill="#DB4305" transform="translate(84,131)"/>
<path d="M0 0 C0.66 0 1.32 0 2 0 C0.68692628 2.89852365 -0.72684638 4.98277217 -2.96875 7.234375 C-3.82533203 8.09482422 -3.82533203 8.09482422 -4.69921875 8.97265625 C-5.59060547 9.85244141 -5.59060547 9.85244141 -6.5 10.75 C-7.39138672 11.65298828 -7.39138672 11.65298828 -8.30078125 12.57421875 C-8.87183594 13.14269531 -9.44289063 13.71117188 -10.03125 14.296875 C-10.55267578 14.81604492 -11.07410156 15.33521484 -11.61132812 15.87011719 C-13 17 -13 17 -15 17 C-15 15 -15 15 -13.0625 12.875 C-9.7874727 9.71323013 -6.33111868 6.74863422 -2.890625 3.76953125 C-0.92091997 2.13136012 -0.92091997 2.13136012 0 0 Z " fill="#B6B6B6" transform="translate(36,81)"/>
<path d="M0 0 C1.23802788 3.576525 0.81278541 6.34246563 0 10 C-0.33 10.33 -0.66 10.66 -1 11 C-1.36871088 12.65919896 -1.69595322 14.32774271 -2 16 C-2.33333333 17.66666667 -2.66666667 19.33333333 -3 21 C-3.33 21 -3.66 21 -4 21 C-4.36371537 13.48321576 -3.40119063 6.80238126 0 0 Z " fill="#652002" transform="translate(68,142)"/>
<path d="M0 0 C-0.3125 1.875 -0.3125 1.875 -1 4 C-4.74406455 6.49604304 -7.54151685 7 -12 7 C-10.87720538 6.01830524 -9.75168527 5.03972702 -8.625 4.0625 C-7.68527344 3.24458984 -7.68527344 3.24458984 -6.7265625 2.41015625 C-4.23340655 0.37389087 -3.29576226 0 0 0 Z " fill="#962E04" transform="translate(87,126)"/>
<path d="M0 0 C0.66 0.33 1.32 0.66 2 1 C-0.11905463 3.17277714 -2.24472878 5.33826908 -4.375 7.5 C-4.97828125 8.12003906 -5.5815625 8.74007812 -6.203125 9.37890625 C-6.78320312 9.96542969 -7.36328125 10.55195312 -7.9609375 11.15625 C-8.49509277 11.70087891 -9.02924805 12.24550781 -9.57958984 12.80664062 C-11 14 -11 14 -13 14 C-13 12 -13 12 -11 9.8125 C-7.4588514 6.40401691 -3.723568 3.20614912 0 0 Z " fill="#B6B6B6" transform="translate(1031,82)"/>
<path d="M0 0 C0.33 0 0.66 0 1 0 C2.28130809 6.40654045 2.59843905 12.60624381 1 19 C0.67 19 0.34 19 0 19 C-0.8931507 12.41816638 -0.95494281 6.57849492 0 0 Z " fill="#601D01" transform="translate(134,149)"/>
<path d="M0 0 C0 3 0 3 -1.96875 5.26171875 C-2.8040625 6.06222656 -3.639375 6.86273438 -4.5 7.6875 C-5.3353125 8.49574219 -6.170625 9.30398437 -7.03125 10.13671875 C-7.6809375 10.75160156 -8.330625 11.36648437 -9 12 C-9.33 11.34 -9.66 10.68 -10 10 C-3.84965831 2.51708428 -3.84965831 2.51708428 0 0 Z " fill="#A3A3A3" transform="translate(1134,173)"/>
<path d="M0 0 C0.99 0.66 1.98 1.32 3 2 C-2.14285714 8.57142857 -2.14285714 8.57142857 -6 10 C-6 9.01 -6 8.02 -6 7 C-5.01 7 -4.02 7 -3 7 C-2.67 5.35 -2.34 3.7 -2 2 C-1.34 2 -0.68 2 0 2 C0 1.34 0 0.68 0 0 Z " fill="#9C2E04" transform="translate(126,178)"/>
<path d="M0 0 C0.93423645 3.01031744 1.04449911 3.86650268 0 7 C-1.65 7.33 -3.3 7.66 -5 8 C-3.8141763 4.62496331 -2.72426311 2.35277269 0 0 Z " fill="#9A3006" transform="translate(74,134)"/>
<path d="M0 0 C2.875 0.6875 2.875 0.6875 6 2 C7.375 4.625 7.375 4.625 8 7 C4.2047869 5.50902342 2.38957269 3.24299151 0 0 Z " fill="#7A2506" transform="translate(72,181)"/>
<path d="M0 0 C0.99 0.33 1.98 0.66 3 1 C1.25 6.75 1.25 6.75 -1 9 C-0.67 6.03 -0.34 3.06 0 0 Z " fill="#9B2F03" transform="translate(130,170)"/>
<path d="M0 0 C1.00000429 4.00001715 0.80688405 6.05523353 0 10 C-0.99 9.67 -1.98 9.34 -3 9 C-2.01 6.03 -1.02 3.06 0 0 Z " fill="#842801" transform="translate(68,142)"/>
<path d="M0 0 C3.3 0.33 6.6 0.66 10 1 C10 1.33 10 1.66 10 2 C6.37 2.33 2.74 2.66 -1 3 C-0.67 2.01 -0.34 1.02 0 0 Z " fill="#D56031" transform="translate(118,135)"/>
<path d="" fill="#000000" transform="translate(0,0)"/>
</svg>
